<?xml version="1.0" encoding="UTF-8" standalone="no"?>
<!-- Created with Inkscape (http://www.inkscape.org/) -->

<svg
   xmlns:dc="http://purl.org/dc/elements/1.1/"
   xmlns:cc="http://creativecommons.org/ns#"
   xmlns:rdf="http://www.w3.org/1999/02/22-rdf-syntax-ns#"
   xmlns:svg="http://www.w3.org/2000/svg"
   xmlns="http://www.w3.org/2000/svg"
   xmlns:sodipodi="http://sodipodi.sourceforge.net/DTD/sodipodi-0.dtd"
   xmlns:inkscape="http://www.inkscape.org/namespaces/inkscape"
   width="48"
   height="48"
   viewBox="0 0 12.7 12.7"
   version="1.1"
   id="svg5631"
   inkscape:version="0.92.3 (unknown)"
   sodipodi:docname="bug.svg">
  <defs
     id="defs5625" />
  <sodipodi:namedview
     id="base"
     pagecolor="#ffffff"
     bordercolor="#666666"
     borderopacity="1.0"
     inkscape:pageopacity="0.0"
     inkscape:pageshadow="2"
     inkscape:zoom="11.2"
     inkscape:cx="20.404517"
     inkscape:cy="18.61402"
     inkscape:document-units="mm"
     inkscape:current-layer="layer1"
     showgrid="false"
     units="px"
     inkscape:window-width="1391"
     inkscape:window-height="876"
     inkscape:window-x="49"
     inkscape:window-y="24"
     inkscape:window-maximized="1" />
  <metadata
     id="metadata5628">
    <rdf:RDF>
      <cc:Work
         rdf:about="">
        <dc:format>image/svg+xml</dc:format>
        <dc:type
           rdf:resource="http://purl.org/dc/dcmitype/StillImage" />
        <dc:title></dc:title>
      </cc:Work>
    </rdf:RDF>
  </metadata>
  <g
     inkscape:label="Layer 1"
     inkscape:groupmode="layer"
     id="layer1"
     transform="translate(0,-284.29998)">
    <path
       style="fill:#000000;stroke-width:0.06485585"
       d="m 4.5374179,296.71426 c -0.7005542,-0.46781 -1.2774376,-1.23632 -1.5810222,-2.10618 -0.08043,-0.23045 -0.1655027,-0.41169 -0.1890496,-0.40274 -0.023542,0.009 -0.294996,0.34462 -0.6032222,0.7459 -0.4902359,0.63828 -0.5843869,0.72963 -0.7518669,0.72963 -0.2182548,0 -0.45087669,-0.19881 -0.45087669,-0.38535 0,-0.0693 0.37940779,-0.63457 0.84312719,-1.25622 l 0.8431255,-1.13031 0.00152,-0.38137 c 0.00141,-0.33899 0.062906,-0.7342 0.1682962,-1.08161 0.02605,-0.0859 -0.2560289,0.0293 -1.071811,0.43778 -1.36730862,0.68455 -1.56259261,0.70344 -1.56259261,0.15122 v -0.24743 L 1.748769,291.00801 c 1.515356,-0.75448 1.5736692,-0.79065 1.8126743,-1.12442 l 0.2469494,-0.34485 -0.7263382,-0.49059 c -1.2010018,-0.81119 -1.2776138,-0.87433 -1.2776138,-1.0531 0,-0.19502 0.2096996,-0.42115 0.3905543,-0.42115 0.072116,0 0.6064366,0.31771 1.1873658,0.70603 l 1.0562373,0.70603 -0.1151277,-0.33311 c -0.063316,-0.18321 -0.1160853,-0.40724 -0.1172403,-0.49784 -0.00395,-0.30772 0.1948204,-0.92252 0.3933979,-1.21676 l 0.1978555,-0.29316 -0.1081061,-0.28307 c -0.154762,-0.40524 -0.4827735,-0.86909 -0.7332245,-1.03687 -0.1185474,-0.0795 -0.346175,-0.16399 -0.5058462,-0.18793 -0.3445594,-0.0517 -0.4784541,-0.16684 -0.4784541,-0.41155 0,-0.29818 0.1973266,-0.41911 0.6137136,-0.37615 0.701998,0.0725 1.2527007,0.50894 1.6698567,1.32351 0.2055672,0.4014 0.2205026,0.41496 0.4079473,0.37031 0.1070118,-0.0255 0.3789138,-0.054 0.6042253,-0.0634 l 0.4096571,-0.017 0.2265592,-0.37817 c 0.331998,-0.55416 0.7696429,-0.97268 1.1762042,-1.12479 0.6321614,-0.23651 0.9882853,-0.12629 0.9882853,0.30601 0,0.23945 -0.082223,0.31214 -0.4215621,0.37275 -0.379464,0.0678 -0.6430404,0.25607 -0.8926829,0.63771 -0.339243,0.51865 -0.3404847,0.53979 -0.051021,0.86864 0.5243517,0.5957 0.7156324,1.36527 0.4980569,2.00383 -0.058103,0.17049 -0.1056287,0.31755 -0.1056287,0.32678 0,0.009 0.4723216,-0.30242 1.0496047,-0.69253 0.5772816,-0.39013 1.1126838,-0.70933 1.1897808,-0.70933 0.227315,0 0.384259,0.2283 0.362533,0.52733 -0.0043,0.0594 -0.434192,0.39502 -0.9805219,0.76552 -0.5350605,0.36287 -0.9728376,0.67273 -0.9728376,0.68857 0,0.0158 0.1069206,0.17764 0.2375978,0.35953 0.2264102,0.31515 0.3080878,0.36563 1.7348937,1.07208 0.899473,0.44537 1.548553,0.80658 1.625676,0.90467 0.117985,0.15 0.120447,0.17751 0.03041,0.33868 -0.175777,0.31465 -0.388936,0.27194 -1.553654,-0.31127 -0.578116,-0.28948 -1.0647151,-0.51274 -1.0813284,-0.49613 -0.016612,0.0166 9.013e-4,0.14241 0.038923,0.2795 0.038026,0.13709 0.0885,0.47996 0.1121641,0.76189 l 0.043027,0.51258 0.8005423,1.07283 c 0.838116,1.12317 0.920076,1.30836 0.676566,1.52874 -0.242415,0.21937 -0.454654,0.11368 -0.900918,-0.44881 -0.226415,-0.28536 -0.490107,-0.61748 -0.5859826,-0.73803 l -0.1743178,-0.21919 -0.177163,0.45358 c -0.097437,0.24948 -0.256231,0.59506 -0.3528684,0.76796 -0.2440373,0.43663 -0.9871591,1.20102 -1.3703695,1.40959 l -0.3194958,0.17388 -0.2731878,-0.29637 c -0.1502512,-0.163 -0.3362536,-0.43283 -0.4133337,-0.59962 -0.1355695,-0.29334 -0.1406762,-0.39105 -0.1563457,-2.99476 -0.00897,-1.48033 -0.030093,-2.75217 -0.047085,-2.82633 -0.063438,-0.27686 -0.5621972,-0.33188 -0.7248989,-0.0799 -0.030214,0.0468 -0.069533,1.35463 -0.087376,2.9063 -0.031628,2.75201 -0.035929,2.82778 -0.175254,3.08822 -0.1711247,0.31986 -0.44332,0.65281 -0.6040125,0.7388 -0.090704,0.0485 -0.2041112,0.005 -0.5088843,-0.1994 z"
       id="path6289"
       inkscape:connector-curvature="0" />
  </g>
</svg>
