<?xml version="1.0" encoding="UTF-8" standalone="no"?>
<svg
   xmlns:dc="http://purl.org/dc/elements/1.1/"
   xmlns:cc="http://creativecommons.org/ns#"
   xmlns:rdf="http://www.w3.org/1999/02/22-rdf-syntax-ns#"
   xmlns:svg="http://www.w3.org/2000/svg"
   xmlns="http://www.w3.org/2000/svg"
   xmlns:sodipodi="http://sodipodi.sourceforge.net/DTD/sodipodi-0.dtd"
   xmlns:inkscape="http://www.inkscape.org/namespaces/inkscape"
   data-name="Layer 1"
   viewBox="0 0 90.993492 91"
   x="0px"
   y="0px"
   version="1.1"
   id="svg522"
   sodipodi:docname="gear.svg"
   inkscape:export-filename="/home/brian/src/cytoflow/cytoflowgui/images/gear.png"
   inkscape:export-xdpi="527.51001"
   inkscape:export-ydpi="527.51001"
   width="90.993492"
   height="91"
   inkscape:version="0.92.3 (2405546, 2018-03-11)">
  <metadata
     id="metadata528">
    <rdf:RDF>
      <cc:Work
         rdf:about="">
        <dc:format>image/svg+xml</dc:format>
        <dc:type
           rdf:resource="http://purl.org/dc/dcmitype/StillImage" />
        <dc:title>Artboard 15</dc:title>
      </cc:Work>
    </rdf:RDF>
  </metadata>
  <defs
     id="defs526" />
  <sodipodi:namedview
     pagecolor="#ffffff"
     bordercolor="#666666"
     borderopacity="1"
     objecttolerance="10"
     gridtolerance="10"
     guidetolerance="10"
     inkscape:pageopacity="0"
     inkscape:pageshadow="2"
     inkscape:window-width="1620"
     inkscape:window-height="1225"
     id="namedview524"
     showgrid="false"
     fit-margin-top="0"
     fit-margin-left="0"
     fit-margin-right="0"
     fit-margin-bottom="0"
     inkscape:zoom="2.6700352"
     inkscape:cx="-65.120929"
     inkscape:cy="38.521448"
     inkscape:window-x="65"
     inkscape:window-y="28"
     inkscape:window-maximized="0"
     inkscape:current-layer="svg522" />
  <title
     id="title514">Artboard 15</title>
  <path
     d="m 77.670209,77.67 a 2.49,2.49 0 0 1 -0.32,0.26 h 6 a 2.5,2.5 0 0 1 0,5 h -12 a 2.5,2.5 0 0 1 -2.5,-2.5 v -12 a 2.5,2.5 0 0 1 5,0 v 6 l 0.26,-0.28 a 40.5,40.5 0 0 0 -28.61,-69.15 2.5,2.5 0 0 1 0,-5 45.5,45.5 0 0 1 32.17,77.67 z M 2.0913177e-4,45.5 A 45.5,45.5 0 0 0 45.500209,91 a 2.5,2.5 0 0 0 0,-5 40.5,40.5 0 0 1 -28.64,-69.14 c 0.08,-0.08 0.17,-0.18 0.26,-0.29 v 6 a 2.5,2.5 0 0 0 5,0 v -12 a 2.5,2.5 0 0 0 -2.5,-2.5 H 7.6202091 a 2.5,2.5 0 0 0 0,5 h 5.9999999 a 3.72,3.72 0 0 0 -0.31,0.26 A 45.2,45.2 0 0 0 2.0913177e-4,45.5 Z M 54.130209,36.87 a 12.2,12.2 0 1 1 -17.25,0 12.21,12.21 0 0 1 17.25,0 z m -3.54,3.54 a 7.2,7.2 0 1 0 0,10.18 7.21,7.21 0 0 0 0,-10.18 z m 12.21,22.4 a 24.68,24.68 0 0 1 -2.59,2.25 l 0.29,3.28 a 6.47,6.47 0 0 1 -4.78,6.83 l -4.22,1.14 a 6.48,6.48 0 0 1 -7.56,-3.53 l -1.39,-3 a 24.24,24.24 0 0 1 -6.61,-1.77 l -2.7,1.89 a 6.48,6.48 0 0 1 -8.31,-0.72 l -3.11,-3.11 a 6.47,6.47 0 0 1 -0.72,-8.31 l 1.89,-2.7 a 24.24,24.24 0 0 1 -1.78,-6.56 l -3,-1.39 a 6.48,6.48 0 0 1 -3.52,-7.61 l 1.14,-4.25 a 6.46,6.46 0 0 1 6.83,-4.75 l 3.28,0.29 a 24.72,24.72 0 0 1 4.84,-4.84 l -0.28,-3.29 a 6.48,6.48 0 0 1 4.78,-6.83 l 4.22,-1.14 a 6.48,6.48 0 0 1 7.56,3.53 l 1.39,3 a 24.24,24.24 0 0 1 6.61,1.77 l 2.7,-1.89 a 6.47,6.47 0 0 1 8.31,0.72 l 3.11,3.11 a 6.48,6.48 0 0 1 0.72,8.31 l -1.89,2.7 a 24.21,24.21 0 0 1 1.78,6.56 l 3,1.39 a 6.48,6.48 0 0 1 3.52,7.61 l -1.14,4.25 a 6.46,6.46 0 0 1 -6.83,4.75 l -3.28,-0.29 a 24.69,24.69 0 0 1 -2.26,2.6 z m 1.26,-7.7 4.71,0.42 a 1.48,1.48 0 0 0 1.56,-1.09 l 1.17,-4.25 a 1.48,1.48 0 0 0 -0.83,-1.69 l -4.3,-2 a 2.5,2.5 0 0 1 -1.44,-2.12 19.31,19.31 0 0 0 -2,-7.55 2.5,2.5 0 0 1 0.19,-2.56 l 2.72,-3.88 a 1.48,1.48 0 0 0 -0.17,-1.9 l -3.17,-3.15 a 1.48,1.48 0 0 0 -1.9,-0.17 l -3.83,2.73 a 2.5,2.5 0 0 1 -2.55,0.19 19.33,19.33 0 0 0 -7.55,-2 2.5,2.5 0 0 1 -2.17,-1.47 l -2,-4.3 a 1.48,1.48 0 0 0 -1.69,-0.82 l -4.25,1.14 a 1.48,1.48 0 0 0 -1.06,1.58 l 0.42,4.71 a 2.5,2.5 0 0 1 -1.11,2.31 19.54,19.54 0 0 0 -3,2.49 v 0 a 19.51,19.51 0 0 0 -2.49,3 2.5,2.5 0 0 1 -2.31,1.11 l -4.79,-0.34 a 1.48,1.48 0 0 0 -1.56,1.09 l -1.16,4.22 a 1.48,1.48 0 0 0 0.83,1.69 l 4.3,2 a 2.5,2.5 0 0 1 1.44,2.12 19.33,19.33 0 0 0 2,7.55 2.5,2.5 0 0 1 -0.19,2.55 l -2.72,3.88 a 1.48,1.48 0 0 0 0.17,1.9 l 3.17,3.16 a 1.48,1.48 0 0 0 1.9,0.17 l 3.88,-2.72 a 2.5,2.5 0 0 1 2.55,-0.19 19.33,19.33 0 0 0 7.55,2 2.5,2.5 0 0 1 2.12,1.46 l 2,4.3 a 1.48,1.48 0 0 0 1.73,0.81 l 4.25,-1.14 a 1.48,1.48 0 0 0 1.02,-1.57 l -0.42,-4.71 a 2.5,2.5 0 0 1 1.11,-2.31 19.67,19.67 0 0 0 5.54,-5.54 2.5,2.5 0 0 1 2.34,-1.11 z"
     id="path516"
     inkscape:connector-curvature="0" />
</svg>
