<?xml version="1.0" encoding="UTF-8" standalone="no"?>
<svg
   xmlns:dc="http://purl.org/dc/elements/1.1/"
   xmlns:cc="http://creativecommons.org/ns#"
   xmlns:rdf="http://www.w3.org/1999/02/22-rdf-syntax-ns#"
   xmlns:svg="http://www.w3.org/2000/svg"
   xmlns="http://www.w3.org/2000/svg"
   xmlns:sodipodi="http://sodipodi.sourceforge.net/DTD/sodipodi-0.dtd"
   xmlns:inkscape="http://www.inkscape.org/namespaces/inkscape"
   version="1.1"
   x="0px"
   y="0px"
   viewBox="0 0 100 100"
   enable-background="new 0 0 100 100"
   xml:space="preserve"
   id="svg2"
   inkscape:version="0.48.4 r9939"
   width="100%"
   height="100%"
   sodipodi:docname="setup.svg"><metadata
     id="metadata130"><rdf:RDF><cc:Work
         rdf:about=""><dc:format>image/svg+xml</dc:format><dc:type
           rdf:resource="http://purl.org/dc/dcmitype/StillImage" /></cc:Work></rdf:RDF></metadata><defs
     id="defs128" /><sodipodi:namedview
     pagecolor="#ffffff"
     bordercolor="#666666"
     borderopacity="1"
     objecttolerance="10"
     gridtolerance="10"
     guidetolerance="10"
     inkscape:pageopacity="0"
     inkscape:pageshadow="2"
     inkscape:window-width="1393"
     inkscape:window-height="1052"
     id="namedview126"
     showgrid="false"
     inkscape:zoom="2.6700352"
     inkscape:cx="-32.091223"
     inkscape:cy="47.817613"
     inkscape:window-x="1733"
     inkscape:window-y="24"
     inkscape:window-maximized="0"
     inkscape:current-layer="svg2" /><g
     id="g104"
     transform="translate(0,1)"><circle
       cx="18.162001"
       cy="5.2719998"
       r="3.7720001"
       id="circle106"
       sodipodi:cx="18.162001"
       sodipodi:cy="5.2719998"
       sodipodi:rx="3.7720001"
       sodipodi:ry="3.7720001"
       d="m 21.934001,5.2719998 c 0,2.0832182 -1.688782,3.7720001 -3.772,3.7720001 -2.083218,0 -3.772,-1.6887819 -3.772,-3.7720001 0,-2.0832181 1.688782,-3.772 3.772,-3.772 2.083218,0 3.772,1.6887819 3.772,3.772 z" /></g><g
     id="g108"
     transform="translate(0,1)"><circle
       cx="49.813999"
       cy="5.2719998"
       r="3.7709999"
       id="circle110"
       sodipodi:cx="49.813999"
       sodipodi:cy="5.2719998"
       sodipodi:rx="3.7709999"
       sodipodi:ry="3.7709999"
       d="m 53.584999,5.2719998 c 0,2.0826658 -1.688334,3.7709999 -3.771,3.7709999 -2.082666,0 -3.771,-1.6883341 -3.771,-3.7709999 0,-2.0826657 1.688334,-3.7709999 3.771,-3.7709999 2.082666,0 3.771,1.6883342 3.771,3.7709999 z" /></g><g
     id="g112"
     transform="translate(0,1)"><circle
       cx="81.467003"
       cy="5.2719998"
       r="3.7720001"
       id="circle114"
       sodipodi:cx="81.467003"
       sodipodi:cy="5.2719998"
       sodipodi:rx="3.7720001"
       sodipodi:ry="3.7720001"
       d="m 85.239003,5.2719998 c 0,2.0832182 -1.688782,3.7720001 -3.772,3.7720001 -2.083218,0 -3.772,-1.6887819 -3.772,-3.7720001 0,-2.0832181 1.688782,-3.772 3.772,-3.772 2.083218,0 3.772,1.6887819 3.772,3.772 z" /></g><path
     d="M 27.179,54.677 H 20.923 V 20.08 c 0,-1.524 -1.236,-2.76 -2.761,-2.76 -1.524,0 -2.76,1.236 -2.76,2.76 V 54.677 H 9.884 c -3.599,0 -6.517,2.918 -6.517,6.517 0,3.6 2.918,6.518 6.517,6.518 h 5.518 v 27.44 c 0,1.525 1.236,2.761 2.76,2.761 1.525,0 2.761,-1.235 2.761,-2.761 v -27.44 h 6.256 c 3.6,0 6.517,-2.918 6.517,-6.518 0,-3.599 -2.917,-6.517 -6.517,-6.517 z"
     id="path116"
     inkscape:connector-curvature="0" /><path
     d="M 59.2,75.655 H 52.575 V 20.08 c 0,-1.524 -1.236,-2.76 -2.761,-2.76 -1.525,0 -2.76,1.236 -2.76,2.76 v 55.575 h -5.15 c -3.599,0 -6.517,2.918 -6.517,6.518 0,3.599 2.918,6.517 6.517,6.517 h 5.15 v 6.462 c 0,1.525 1.236,2.761 2.76,2.761 1.524,0 2.761,-1.235 2.761,-2.761 V 88.69 H 59.2 c 3.599,0 6.517,-2.918 6.517,-6.517 0,-3.6 -2.918,-6.518 -6.517,-6.518 z"
     id="path118"
     inkscape:connector-curvature="0" /><path
     d="M 90.116,33.698 H 84.227 V 20.08 c 0,-1.524 -1.235,-2.76 -2.761,-2.76 -1.524,0 -2.76,1.236 -2.76,2.76 V 33.698 H 72.82 c -3.599,0 -6.517,2.917 -6.517,6.517 0,3.599 2.918,6.517 6.517,6.517 h 5.887 v 48.419 c 0,1.525 1.235,2.761 2.76,2.761 1.525,0 2.761,-1.235 2.761,-2.761 V 46.732 h 5.889 c 3.6,0 6.517,-2.918 6.517,-6.517 -0.001,-3.6 -2.918,-6.517 -6.518,-6.517 z"
     id="path120"
     inkscape:connector-curvature="0" /></svg>