<?xml version="1.0" encoding="UTF-8" standalone="no"?>
<!-- Created with Inkscape (http://www.inkscape.org/) -->

<svg
   width="0.5in"
   height="0.5in"
   viewBox="0 0 12.7 12.7"
   version="1.1"
   id="svg2714"
   inkscape:version="1.1 (1:1.1+202105261517+ce6663b3b7)"
   sodipodi:docname="error.svg"
   xmlns:inkscape="http://www.inkscape.org/namespaces/inkscape"
   xmlns:sodipodi="http://sodipodi.sourceforge.net/DTD/sodipodi-0.dtd"
   xmlns="http://www.w3.org/2000/svg"
   xmlns:svg="http://www.w3.org/2000/svg">
  <sodipodi:namedview
     id="namedview2716"
     pagecolor="#ffffff"
     bordercolor="#666666"
     borderopacity="1.0"
     inkscape:pageshadow="2"
     inkscape:pageopacity="0.0"
     inkscape:pagecheckerboard="0"
     inkscape:document-units="mm"
     showgrid="false"
     units="in"
     inkscape:showpageshadow="false"
     inkscape:zoom="6.2217172"
     inkscape:cx="19.367644"
     inkscape:cy="63.728387"
     inkscape:window-width="2488"
     inkscape:window-height="1376"
     inkscape:window-x="72"
     inkscape:window-y="27"
     inkscape:window-maximized="1"
     inkscape:current-layer="g2814" />
  <defs
     id="defs2711" />
  <g
     inkscape:label="Layer 1"
     inkscape:groupmode="layer"
     id="layer1">
    <g
       id="g2814"
       transform="translate(14.610054,-45.079002)"
       style="fill:#ff0000">
      <path
         style="fill:#ff0000;fill-opacity:1;stroke-width:0.0564654"
         d="m -9.4088636,57.644244 c -1.6608704,-0.304251 -3.1772524,-1.278143 -4.0955024,-2.630325 -0.331316,-0.487886 -0.760646,-1.412465 -0.893556,-1.924306 -0.456962,-1.759785 -0.159792,-3.647074 0.801828,-5.092298 0.82399,-1.238382 1.925612,-2.084861 3.312016,-2.544932 0.7936598,-0.263373 1.3725301,-0.339863 2.2809343,-0.301398 1.589263,0.06729 2.9410247,0.657698 4.100487,1.790952 0.8022396,0.784107 1.3414574,1.686114 1.6708679,2.795041 0.1293438,0.435422 0.154795,0.643096 0.1777471,1.450337 0.03079,1.082908 -0.016723,1.444987 -0.3019841,2.301351 -0.7158796,2.149088 -2.6025577,3.758185 -4.8721968,4.155362 -0.56963,0.09968 -1.6370863,0.09979 -2.180641,2.14e-4 z m 2.6995194,-1.372004 c 1.6281856,-0.575598 2.7320023,-1.71663 3.2904882,-3.401428 0.147969,-0.446381 0.1592958,-0.545131 0.1619142,-1.411636 0.00249,-0.824251 -0.012455,-0.980513 -0.1296227,-1.355172 -0.5883891,-1.881451 -1.8917795,-3.149481 -3.7171885,-3.616342 -0.5587489,-0.142904 -1.7571221,-0.15289 -2.3434698,-0.01953 -1.1002822,0.250254 -2.1543822,0.918956 -2.8708592,1.821223 -0.373773,0.470697 -0.813599,1.382903 -0.956618,1.984044 -0.156672,0.658522 -0.156672,1.656565 0,2.315086 0.147026,0.617984 0.578445,1.501868 0.989431,2.027124 0.605936,0.77441 1.694535,1.486798 2.6787762,1.753005 0.3652558,0.09879 0.5593736,0.112129 1.411637,0.097 0.9390849,-0.01667 1.0128401,-0.02628 1.4855116,-0.193374 z m -4.1961248,-2.131227 -0.534464,-0.536693 1.043195,-1.044339 1.0431951,-1.044341 -1.0298251,-1.030954 -1.029825,-1.030954 0.549982,-0.549981 0.54998,-0.549981 1.030955,1.029825 1.0309547,1.029824 1.0309549,-1.029824 1.0309546,-1.029825 0.5499811,0.549981 0.5499812,0.549981 -1.0298248,1.030954 -1.0298255,1.030954 1.0435721,1.044718 1.0435718,1.044716 -0.5499658,0.549967 -0.549966,0.549965 -1.044717,-1.043572 -1.0447166,-1.043572 -1.0310525,1.029924 c -0.5670789,0.566458 -1.0440082,1.029922 -1.0598432,1.029922 -0.01583,0 -0.269298,-0.241513 -0.563252,-0.536695 z"
         id="path2816" />
    </g>
  </g>
</svg>
