<?xml version="1.0" encoding="UTF-8" standalone="no"?>
<!-- Created with Inkscape (http://www.inkscape.org/) -->

<svg
   width="0.5in"
   height="0.5in"
   viewBox="0 0 12.7 12.7"
   version="1.1"
   id="svg2326"
   inkscape:version="1.1 (1:1.1+202105261517+ce6663b3b7)"
   sodipodi:docname="okay.svg"
   xmlns:inkscape="http://www.inkscape.org/namespaces/inkscape"
   xmlns:sodipodi="http://sodipodi.sourceforge.net/DTD/sodipodi-0.dtd"
   xmlns="http://www.w3.org/2000/svg"
   xmlns:svg="http://www.w3.org/2000/svg">
  <sodipodi:namedview
     id="namedview2328"
     pagecolor="#ffffff"
     bordercolor="#666666"
     borderopacity="1.0"
     inkscape:pageshadow="2"
     inkscape:pageopacity="0.0"
     inkscape:pagecheckerboard="0"
     inkscape:document-units="mm"
     showgrid="false"
     units="in"
     inkscape:showpageshadow="false"
     inkscape:zoom="6.2217172"
     inkscape:cx="68.710934"
     inkscape:cy="47.655654"
     inkscape:window-width="2488"
     inkscape:window-height="1376"
     inkscape:window-x="72"
     inkscape:window-y="27"
     inkscape:window-maximized="1"
     inkscape:current-layer="g2388" />
  <defs
     id="defs2323" />
  <g
     inkscape:label="Layer 1"
     inkscape:groupmode="layer"
     id="layer1">
    <g
       id="g2388"
       transform="translate(22.371607,9.9596219)">
      <path
         style="fill:#01a501;stroke-width:0.0257829"
         d="M -16.757725,2.6995866 C -17.882324,2.563346 -19.022291,2.085858 -19.922781,1.373866 -20.21687,1.1413383 -20.653937,0.70741048 -20.896767,0.40687506 c -0.308091,-0.38130538 -0.542816,-0.74996023 -0.766337,-1.20359764 -0.863298,-1.75207682 -0.863298,-3.80765732 0,-5.55973412 0.317077,-0.6435109 0.658294,-1.1262108 1.157889,-1.6379944 0.514115,-0.5266586 1.06256,-0.923292 1.734466,-1.2543591 1.485207,-0.7318042 3.198,-0.8477618 4.778045,-0.3234774 0.355206,0.1178627 0.70903,0.2663191 0.70903,0.2974923 0,0.010285 -0.142128,0.1346635 -0.31584,0.2763907 -0.173713,0.1417277 -0.380242,0.31111 -0.458954,0.3764059 l -0.143112,0.1187193 -0.233045,-0.074943 c -1.239592,-0.3986309 -2.698532,-0.2827212 -3.878984,0.3081775 -2.358395,1.1805411 -3.471607,3.8639472 -2.63994,6.363587 0.638512,1.91909513 2.35653,3.3056035 4.38255,3.5368925 0.730949,0.083445 1.523777,-0.00265 2.250248,-0.2443581 1.935268,-0.64389341 3.316403,-2.36935687 3.54091,-4.4236888 0.03417,-0.3126021 0.01736,-1.0514202 -0.03054,-1.3426501 -0.03884,-0.2361282 -0.08066,-0.1577974 0.422108,-0.7903986 l 0.375539,-0.4725128 0.063603,0.2017919 c 0.3117781,0.9891971 0.3606217,2.1929259 0.1310473,3.2295993 -0.2007303,0.9064282 -0.6419373,1.83302089 -1.2223453,2.56709234 -0.232528,0.29408876 -0.666456,0.73115556 -0.966991,0.97398506 -0.935425,0.7558141 -2.067241,1.2335686 -3.250182,1.3719453 -0.403849,0.047241 -1.102888,0.046473 -1.500126,-0.00166 z m 0.8313,-3.05844443 c -0.675205,-1.47937407 -1.630966,-2.70963237 -2.784558,-3.58429027 -0.170167,-0.1290214 -0.318451,-0.2423907 -0.32952,-0.2519307 -0.01107,-0.00954 0.0068,-0.1034294 0.03973,-0.2086417 l 0.05985,-0.1912958 0.282563,-0.019807 c 0.155409,-0.010894 0.526211,-0.016693 0.824004,-0.012889 l 0.541442,0.00692 0.214284,0.1350698 c 0.321429,0.2026076 0.698403,0.500033 0.99251,0.7830694 0.144559,0.1391188 0.266604,0.2420943 0.271211,0.2288344 0.0212,-0.061043 0.768232,-1.1594096 1.008043,-1.4821522 0.329131,-0.4429506 0.783464,-1.0066974 1.166425,-1.4473293 0.434227,-0.4996187 1.652275,-1.7047591 1.783008,-1.7641137 0.09872,-0.04482 0.178332,-0.049016 0.939354,-0.049531 0.457324,-3.119e-4 0.831498,0.00662 0.831498,0.0154 0,0.00878 -0.102397,0.1277058 -0.227562,0.2642746 -0.349186,0.3810156 -0.885553,1.0046995 -1.244601,1.4472148 -1.59133,1.9612604 -2.819522,3.8330734 -4.030594,6.14278712 -0.0948,0.18080245 -0.17462,0.32842387 -0.177375,0.32804674 -0.0028,-3.8046e-4 -0.07462,-0.15321039 -0.159705,-0.33962891 z"
         id="path2390" />
    </g>
  </g>
</svg>
