<?xml version="1.0" encoding="UTF-8" standalone="no"?>
<!-- Created with Inkscape (http://www.inkscape.org/) -->

<svg
   width="0.5in"
   height="0.5in"
   viewBox="0 0 12.7 12.7"
   version="1.1"
   id="svg3140"
   inkscape:version="1.1 (1:1.1+202105261517+ce6663b3b7)"
   sodipodi:docname="refresh.svg"
   xmlns:inkscape="http://www.inkscape.org/namespaces/inkscape"
   xmlns:sodipodi="http://sodipodi.sourceforge.net/DTD/sodipodi-0.dtd"
   xmlns="http://www.w3.org/2000/svg"
   xmlns:svg="http://www.w3.org/2000/svg">
  <sodipodi:namedview
     id="namedview3142"
     pagecolor="#ffffff"
     bordercolor="#666666"
     borderopacity="1.0"
     inkscape:pageshadow="2"
     inkscape:pageopacity="0.0"
     inkscape:pagecheckerboard="0"
     inkscape:document-units="mm"
     showgrid="false"
     units="in"
     inkscape:showpageshadow="false"
     inkscape:zoom="3.1108586"
     inkscape:cx="9.8043672"
     inkscape:cy="16.233461"
     inkscape:window-width="2488"
     inkscape:window-height="1376"
     inkscape:window-x="72"
     inkscape:window-y="27"
     inkscape:window-maximized="1"
     inkscape:current-layer="g3230" />
  <defs
     id="defs3137" />
  <g
     inkscape:label="Layer 1"
     inkscape:groupmode="layer"
     id="layer1">
    <g
       id="g3230"
       transform="translate(111.19049,-5.477332)">
      <path
         style="fill:#4b75ae;stroke-width:0.028384"
         d="m -105.33247,18.215734 c -1.97847,-0.180533 -3.71276,-1.213027 -4.80988,-2.863527 -0.34068,-0.51252 -0.66799,-1.246269 -0.82471,-1.848813 -0.58543,-2.250809 0.0769,-4.6078176 1.74363,-6.2049414 0.97312,-0.9324803 2.09742,-1.4863705 3.47939,-1.7141343 0.46541,-0.076704 1.43433,-0.070792 1.91592,0.011691 0.65842,0.1127681 1.16453,0.2704329 1.74562,0.5437912 1.64656,0.7745883 2.947417,2.343018 3.406473,4.1071395 0.152822,0.587285 0.194733,0.93772 0.194733,1.628227 0,0.524111 -0.01093,0.702268 -0.06094,0.993441 -0.239973,1.397198 -0.811831,2.510772 -1.793476,3.492415 -0.98118,0.981183 -2.10691,1.560314 -3.47822,1.789359 -0.33085,0.05526 -1.21305,0.09323 -1.51854,0.06535 z m 1.37662,-1.883712 c 1.02205,-0.204735 1.94789,-0.748983 2.59892,-1.52776 0.63686,-0.761816 0.99749,-1.655195 1.06496,-2.63816 l 0.02,-0.290936 h -0.90827 -0.90826 l -0.0187,0.224188 c -0.0976,1.170544 -0.93975,2.143374 -2.10797,2.435119 -0.29765,0.07433 -0.94558,0.06794 -1.25035,-0.01234 -0.51262,-0.135021 -0.95449,-0.389153 -1.30343,-0.749646 -0.4756,-0.491352 -0.73365,-1.085744 -0.76826,-1.769599 -0.0736,-1.454903 1.036,-2.7206744 2.49149,-2.8420576 l 0.22419,-0.018696 v 0.4582569 0.4582577 l 1.34823,-0.8987717 c 0.74154,-0.4943247 1.34825,-0.907366 1.34825,-0.9178685 0,-0.010504 -0.60671,-0.4235447 -1.34825,-0.9178695 l -1.34823,-0.8987721 V 6.875486 7.3256047 l -0.29094,0.01997 c -0.83628,0.057399 -1.65161,0.3422697 -2.3062,0.8057746 -0.98356,0.6964389 -1.62708,1.6904234 -1.8645,2.8798957 -0.0844,0.422974 -0.09,1.227222 -0.0114,1.638669 0.24533,1.283548 0.99392,2.387175 2.07455,3.058446 0.56894,0.353416 1.28378,0.598189 1.95849,0.670615 0.2613,0.02805 1.02756,-0.01125 1.30567,-0.06696 z"
         id="path3232" />
    </g>
  </g>
</svg>
