<?xml version="1.0" encoding="UTF-8" standalone="no"?>
<!-- Created with Inkscape (http://www.inkscape.org/) -->

<svg
   xmlns:dc="http://purl.org/dc/elements/1.1/"
   xmlns:cc="http://creativecommons.org/ns#"
   xmlns:rdf="http://www.w3.org/1999/02/22-rdf-syntax-ns#"
   xmlns:svg="http://www.w3.org/2000/svg"
   xmlns="http://www.w3.org/2000/svg"
   xmlns:sodipodi="http://sodipodi.sourceforge.net/DTD/sodipodi-0.dtd"
   xmlns:inkscape="http://www.inkscape.org/namespaces/inkscape"
   width="500"
   height="500"
   id="svg2"
   version="1.1"
   inkscape:version="0.91 r"
   inkscape:export-filename="/home/brian/src/cytoflow/cytoflowgui/op_plugins/images/bead_calibration.png"
   inkscape:export-xdpi="5.8299999"
   inkscape:export-ydpi="5.8299999"
   sodipodi:docname="bead_calibration.svg">
  <defs
     id="defs4">
    <clipPath
       clipPathUnits="userSpaceOnUse"
       id="clipPath5006">
      <rect
         style="opacity:1;fill:none;fill-opacity:0.56078384;stroke:#000000;stroke-width:1.25;stroke-linecap:round;stroke-linejoin:round;stroke-miterlimit:0;stroke-dasharray:none;stroke-dashoffset:5.69999981;stroke-opacity:1"
         id="rect5008"
         width="498.74997"
         height="498.75"
         x="0.625"
         y="552.98724" />
    </clipPath>
    <clipPath
       clipPathUnits="userSpaceOnUse"
       id="clipPath5010">
      <rect
         style="opacity:1;fill:none;fill-opacity:0.56078384;stroke:#000000;stroke-width:1.25;stroke-linecap:round;stroke-linejoin:round;stroke-miterlimit:0;stroke-dasharray:none;stroke-dashoffset:5.69999981;stroke-opacity:1"
         id="rect5012"
         width="498.74997"
         height="498.75"
         x="0.625"
         y="552.98724" />
    </clipPath>
  </defs>
  <sodipodi:namedview
     id="base"
     pagecolor="#ffffff"
     bordercolor="#666666"
     borderopacity="1.0"
     inkscape:pageopacity="0.0"
     inkscape:pageshadow="2"
     inkscape:zoom="0.7"
     inkscape:cx="261.0564"
     inkscape:cy="172.74762"
     inkscape:document-units="px"
     inkscape:current-layer="layer1"
     showgrid="false"
     inkscape:window-width="1354"
     inkscape:window-height="848"
     inkscape:window-x="66"
     inkscape:window-y="24"
     inkscape:window-maximized="0"
     showguides="true"
     inkscape:guide-bbox="true" />
  <metadata
     id="metadata7">
    <rdf:RDF>
      <cc:Work
         rdf:about="">
        <dc:format>image/svg+xml</dc:format>
        <dc:type
           rdf:resource="http://purl.org/dc/dcmitype/StillImage" />
        <dc:title />
      </cc:Work>
    </rdf:RDF>
  </metadata>
  <g
     inkscape:label="Layer 1"
     inkscape:groupmode="layer"
     id="layer1"
     transform="translate(0,-552.36218)">
    <rect
       inkscape:tile-y0="-1.0356619"
       inkscape:tile-x0="-2.0203052"
       y="553.36121"
       x="1.7578122e-07"
       height="499.00098"
       width="15.647999"
       id="use4065"
       style="opacity:0.33;fill:#ff0000;fill-opacity:1;stroke:none" />
    <rect
       inkscape:tile-y0="-1.0356619"
       inkscape:tile-x0="-2.0203052"
       y="553.36121"
       x="15.64801"
       height="499.00098"
       width="15.647999"
       id="use4067"
       style="opacity:0.33;fill:#ff2600;fill-opacity:1;stroke:none" />
    <rect
       inkscape:tile-y0="-1.0356619"
       inkscape:tile-x0="-2.0203052"
       y="553.36121"
       x="31.296021"
       height="499.00098"
       width="15.647999"
       id="use4069"
       style="opacity:0.33;fill:#ff4d00;fill-opacity:1;stroke:none" />
    <rect
       inkscape:tile-y0="-1.0356619"
       inkscape:tile-x0="-2.0203052"
       y="553.36121"
       x="46.94397"
       height="499.00098"
       width="15.647999"
       id="use4071"
       style="opacity:0.33;fill:#ff7300;fill-opacity:1;stroke:none" />
    <rect
       inkscape:tile-y0="-1.0356619"
       inkscape:tile-x0="-2.0203052"
       y="553.36121"
       x="62.59198"
       height="499.00098"
       width="15.647999"
       id="use4073"
       style="opacity:0.33;fill:#ff9900;fill-opacity:1;stroke:none" />
    <rect
       inkscape:tile-y0="-1.0356619"
       inkscape:tile-x0="-2.0203052"
       y="553.36121"
       x="78.23999"
       height="499.00098"
       width="15.647999"
       id="use4075"
       style="opacity:0.33;fill:#ffbf00;fill-opacity:1;stroke:none" />
    <rect
       inkscape:tile-y0="-1.0356619"
       inkscape:tile-x0="-2.0203052"
       y="553.36121"
       x="93.888"
       height="499.00098"
       width="15.647999"
       id="use4077"
       style="opacity:0.33;fill:#ffe600;fill-opacity:1;stroke:none" />
    <rect
       inkscape:tile-y0="-1.0356619"
       inkscape:tile-x0="-2.0203052"
       y="553.36121"
       x="109.53601"
       height="499.00098"
       width="15.647999"
       id="use4079"
       style="opacity:0.33;fill:#f2ff00;fill-opacity:1;stroke:none" />
    <rect
       inkscape:tile-y0="-1.0356619"
       inkscape:tile-x0="-2.0203052"
       y="553.36121"
       x="125.18399"
       height="499.00098"
       width="15.647999"
       id="use4081"
       style="opacity:0.33;fill:#ccff00;fill-opacity:1;stroke:none" />
    <rect
       inkscape:tile-y0="-1.0356619"
       inkscape:tile-x0="-2.0203052"
       y="553.36121"
       x="140.83197"
       height="499.00098"
       width="15.647999"
       id="use4083"
       style="opacity:0.33;fill:#a6ff00;fill-opacity:1;stroke:none" />
    <rect
       inkscape:tile-y0="-1.0356619"
       inkscape:tile-x0="-2.0203052"
       y="553.36121"
       x="156.47998"
       height="499.00098"
       width="15.647999"
       id="use4085"
       style="opacity:0.33;fill:#80ff00;fill-opacity:1;stroke:none" />
    <rect
       inkscape:tile-y0="-1.0356619"
       inkscape:tile-x0="-2.0203052"
       y="553.36121"
       x="172.12799"
       height="499.00098"
       width="15.647999"
       id="use4087"
       style="opacity:0.33;fill:#59ff00;fill-opacity:1;stroke:none" />
    <rect
       inkscape:tile-y0="-1.0356619"
       inkscape:tile-x0="-2.0203052"
       y="553.36121"
       x="187.77597"
       height="499.00098"
       width="15.647999"
       id="use4089"
       style="opacity:0.33;fill:#33ff00;fill-opacity:1;stroke:none" />
    <rect
       inkscape:tile-y0="-1.0356619"
       inkscape:tile-x0="-2.0203052"
       y="553.36121"
       x="203.42398"
       height="499.00098"
       width="15.647999"
       id="use4091"
       style="opacity:0.33;fill:#0dff00;fill-opacity:1;stroke:none" />
    <rect
       inkscape:tile-y0="-1.0356619"
       inkscape:tile-x0="-2.0203052"
       y="553.36121"
       x="219.07199"
       height="499.00098"
       width="15.647999"
       id="use4093"
       style="opacity:0.33;fill:#00ff19;fill-opacity:1;stroke:none" />
    <rect
       inkscape:tile-y0="-1.0356619"
       inkscape:tile-x0="-2.0203052"
       y="553.36121"
       x="234.71997"
       height="499.00098"
       width="15.647999"
       id="use4095"
       style="opacity:0.33;fill:#00ff40;fill-opacity:1;stroke:none" />
    <rect
       inkscape:tile-y0="-1.0356619"
       inkscape:tile-x0="-2.0203052"
       y="553.36121"
       x="250.36798"
       height="499.00098"
       width="15.647999"
       id="use4097"
       style="opacity:0.33;fill:#00ff66;fill-opacity:1;stroke:none" />
    <rect
       inkscape:tile-y0="-1.0356619"
       inkscape:tile-x0="-2.0203052"
       y="553.36121"
       x="266.01599"
       height="499.00098"
       width="15.647999"
       id="use4099"
       style="opacity:0.33;fill:#00ff8c;fill-opacity:1;stroke:none" />
    <rect
       inkscape:tile-y0="-1.0356619"
       inkscape:tile-x0="-2.0203052"
       y="553.36121"
       x="281.66397"
       height="499.00098"
       width="15.647999"
       id="use4101"
       style="opacity:0.33;fill:#00ffb2;fill-opacity:1;stroke:none" />
    <rect
       inkscape:tile-y0="-1.0356619"
       inkscape:tile-x0="-2.0203052"
       y="553.36121"
       x="297.31198"
       height="499.00098"
       width="15.647999"
       id="use4103"
       style="opacity:0.33;fill:#00ffd9;fill-opacity:1;stroke:none" />
    <rect
       inkscape:tile-y0="-1.0356619"
       inkscape:tile-x0="-2.0203052"
       y="553.36121"
       x="312.95996"
       height="499.00098"
       width="15.647999"
       id="use4105"
       style="opacity:0.33;fill:#00ffff;fill-opacity:1;stroke:none" />
    <rect
       inkscape:tile-y0="-1.0356619"
       inkscape:tile-x0="-2.0203052"
       y="553.36121"
       x="328.60797"
       height="499.00098"
       width="15.647999"
       id="use4107"
       style="opacity:0.33;fill:#00d9ff;fill-opacity:1;stroke:none" />
    <rect
       inkscape:tile-y0="-1.0356619"
       inkscape:tile-x0="-2.0203052"
       y="553.36121"
       x="344.25595"
       height="499.00098"
       width="15.647999"
       id="use4109"
       style="opacity:0.33;fill:#00b2ff;fill-opacity:1;stroke:none" />
    <rect
       inkscape:tile-y0="-1.0356619"
       inkscape:tile-x0="-2.0203052"
       y="553.36121"
       x="359.90396"
       height="499.00098"
       width="15.647999"
       id="use4111"
       style="opacity:0.33;fill:#008cff;fill-opacity:1;stroke:none" />
    <rect
       inkscape:tile-y0="-1.0356619"
       inkscape:tile-x0="-2.0203052"
       y="553.36121"
       x="375.55197"
       height="499.00098"
       width="15.647999"
       id="use4113"
       style="opacity:0.33;fill:#0066ff;fill-opacity:1;stroke:none" />
    <rect
       inkscape:tile-y0="-1.0356619"
       inkscape:tile-x0="-2.0203052"
       y="553.36121"
       x="391.19998"
       height="499.00098"
       width="15.647999"
       id="use4115"
       style="opacity:0.33;fill:#0040ff;fill-opacity:1;stroke:none" />
    <rect
       inkscape:tile-y0="-1.0356619"
       inkscape:tile-x0="-2.0203052"
       y="553.36121"
       x="406.84796"
       height="499.00098"
       width="15.647999"
       id="use4117"
       style="opacity:0.33;fill:#001aff;fill-opacity:1;stroke:none" />
    <rect
       inkscape:tile-y0="-1.0356619"
       inkscape:tile-x0="-2.0203052"
       y="553.36121"
       x="422.49597"
       height="499.00098"
       width="15.647999"
       id="use4119"
       style="opacity:0.33;fill:#0d00ff;fill-opacity:1;stroke:none" />
    <rect
       inkscape:tile-y0="-1.0356619"
       inkscape:tile-x0="-2.0203052"
       y="553.36121"
       x="438.14398"
       height="499.00098"
       width="15.647999"
       id="use4121"
       style="opacity:0.33;fill:#3300ff;fill-opacity:1;stroke:none" />
    <rect
       inkscape:tile-y0="-1.0356619"
       inkscape:tile-x0="-2.0203052"
       y="553.36121"
       x="453.79196"
       height="499.00098"
       width="15.647999"
       id="use4123"
       style="opacity:0.33;fill:#5900ff;fill-opacity:1;stroke:none" />
    <rect
       inkscape:tile-y0="-1.0356619"
       inkscape:tile-x0="-2.0203052"
       y="553.36121"
       x="469.43997"
       height="499.00098"
       width="15.647999"
       id="use4125"
       style="opacity:0.33;fill:#8000ff;fill-opacity:1;stroke:none" />
    <rect
       inkscape:tile-y0="-1.0356619"
       inkscape:tile-x0="-2.0203052"
       y="553.36121"
       x="485.08798"
       height="499.00098"
       width="15.647999"
       id="use4127"
       style="opacity:0.33;fill:#a600ff;fill-opacity:1;stroke:none" />
    <path
       style="fill:#000000"
       d="m 15.429245,982.62719 c 1.568113,-0.49174 3.727119,-3.37448 16.893176,-22.55631 15.288657,-22.27445 47.714204,-67.97903 51.498457,-72.58822 2.177508,-2.65222 5.64435,-6.47849 7.70407,-8.50284 2.059721,-2.02435 5.741757,-6.65775 8.182315,-10.29644 2.440547,-3.6387 10.166517,-14.7187 17.168787,-24.62223 l 12.73142,-18.00641 -1.44842,-3.66767 c -2.38483,-6.03893 -1.38774,-7.91359 23.75107,-44.65466 21.38498,-31.25472 21.01905,-30.79919 25.99324,-32.35894 3.69875,-1.15981 6.74101,0.22464 15.13504,6.88751 l 6.60689,5.24429 4.48014,-6.11553 c 8.32962,-11.37016 34.43917,-49.90621 41.81754,-61.72003 2.00485,-3.21002 4.10388,-5.66337 5.11735,-5.98117 2.50979,-0.78699 5.64228,0.75294 12.04638,5.922 3.12897,2.52557 8.16883,6.1469 11.19973,8.04742 3.03088,1.90051 5.64738,3.92067 5.81442,4.48924 0.45114,1.53546 -3.81776,8.42471 -15.29311,24.6803 -15.45856,21.89808 -34.1532,51.54402 -33.59809,53.2798 0.61954,1.93728 24.02522,16.69135 31.27906,19.71717 9.12965,3.80832 23.47968,6.51598 32.55514,6.14273 9.00466,-0.37033 26.8631,-5.34012 35.66321,-9.92467 8.16269,-4.25247 16.58778,-10.90117 22.88397,-18.05901 6.03854,-6.86496 14.45138,-22.00191 16.89442,-30.39766 4.27408,-14.68813 3.67968,-32.45887 -1.70396,-50.94286 -3.55288,-12.19833 -7.17946,-19.28671 -13.62964,-26.63998 -5.75327,-6.55879 -18.00548,-17.07976 -26.81291,-23.02421 l -6.36178,-4.29381 -29.89237,-21.60414 -1.49576,-3.53038 -1.49578,-3.53037 3.04469,-5.67958 c 5.93467,-11.07057 20.75642,-34.31941 22.36131,-35.07517 2.03026,-0.95603 6.53364,1.52988 17.91521,9.88944 23.89272,17.54876 35.05116,21.73037 52.73349,19.7618 9.15047,-1.0187 16.94363,-0.61884 21.40076,1.09813 5.26772,2.02919 30.53429,24.85098 39.29216,35.49024 11.27385,13.69574 19.74633,32.03683 26.11129,56.52523 4.12136,15.85642 5.54225,24.8468 6.08266,38.48671 0.84718,21.38328 -2.67057,42.44253 -10.44235,62.51358 -17.25672,44.56655 -56.6214,83.30129 -100.60408,98.99407 -16.30008,5.81583 -31.04377,8.06003 -49.45575,7.52783 -23.32816,-0.67424 -45.55557,-6.69753 -67.89402,-18.39826 -5.76401,-3.01915 -12.03397,-5.77659 -13.93319,-6.12766 -4.60423,-0.85106 -13.83315,-0.48188 -20.14656,0.80595 -4.73615,0.9661 -5.33163,0.88854 -7.88244,-1.02674 -1.51757,-1.13947 -5.08477,-3.47185 -7.92704,-5.18303 l -5.16782,-3.11125 -12.56838,18.7919 c -6.91258,10.33554 -14.89453,22.17744 -17.73764,26.31533 -3.4363,5.00125 -5.0248,8.03086 -4.73831,9.03703 0.60811,2.13573 0.60957,2.13256 -7.29458,15.95682 -11.23645,19.65256 -18.05773,30.41858 -40.4625,63.86172 -11.51701,17.1913 -20.845956,31.5769 -20.731018,31.9682 -7.299159,2.7768 -68.409035,-30.6845 -75.639897,-53.81521 z"
       id="path3267"
       inkscape:connector-curvature="0" />
  </g>
</svg>
