<?xml version="1.0" encoding="UTF-8" standalone="no"?>
<!-- Created with Inkscape (http://www.inkscape.org/) -->

<svg
   xmlns:dc="http://purl.org/dc/elements/1.1/"
   xmlns:cc="http://creativecommons.org/ns#"
   xmlns:rdf="http://www.w3.org/1999/02/22-rdf-syntax-ns#"
   xmlns:svg="http://www.w3.org/2000/svg"
   xmlns="http://www.w3.org/2000/svg"
   xmlns:sodipodi="http://sodipodi.sourceforge.net/DTD/sodipodi-0.dtd"
   xmlns:inkscape="http://www.inkscape.org/namespaces/inkscape"
   width="500"
   height="500"
   id="svg2"
   version="1.1"
   inkscape:version="0.48.4 r9939"
   inkscape:export-filename="/home/brian/src/cytoflow/cytoflowgui/op_plugins/images/bead_calibration.png"
   inkscape:export-xdpi="5.8299999"
   inkscape:export-ydpi="5.8299999"
   sodipodi:docname="gauss_1d.svg">
  <defs
     id="defs4">
    <clipPath
       clipPathUnits="userSpaceOnUse"
       id="clipPath5006">
      <rect
         style="opacity:1;fill:none;fill-opacity:0.56078384;stroke:#000000;stroke-width:1.25;stroke-linecap:round;stroke-linejoin:round;stroke-miterlimit:0;stroke-dasharray:none;stroke-dashoffset:5.69999981;stroke-opacity:1"
         id="rect5008"
         width="498.74997"
         height="498.75"
         x="0.625"
         y="552.98724" />
    </clipPath>
    <clipPath
       clipPathUnits="userSpaceOnUse"
       id="clipPath5010">
      <rect
         style="opacity:1;fill:none;fill-opacity:0.56078384;stroke:#000000;stroke-width:1.25;stroke-linecap:round;stroke-linejoin:round;stroke-miterlimit:0;stroke-dasharray:none;stroke-dashoffset:5.69999981;stroke-opacity:1"
         id="rect5012"
         width="498.74997"
         height="498.75"
         x="0.625"
         y="552.98724" />
    </clipPath>
  </defs>
  <sodipodi:namedview
     id="base"
     pagecolor="#ffffff"
     bordercolor="#666666"
     borderopacity="1.0"
     inkscape:pageopacity="0.0"
     inkscape:pageshadow="2"
     inkscape:zoom="0.35"
     inkscape:cx="653.88626"
     inkscape:cy="247.61583"
     inkscape:document-units="px"
     inkscape:current-layer="layer1"
     showgrid="false"
     inkscape:window-width="1354"
     inkscape:window-height="940"
     inkscape:window-x="66"
     inkscape:window-y="232"
     inkscape:window-maximized="0"
     showguides="true"
     inkscape:guide-bbox="true" />
  <metadata
     id="metadata7">
    <rdf:RDF>
      <cc:Work
         rdf:about="">
        <dc:format>image/svg+xml</dc:format>
        <dc:type
           rdf:resource="http://purl.org/dc/dcmitype/StillImage" />
        <dc:title></dc:title>
      </cc:Work>
    </rdf:RDF>
  </metadata>
  <g
     inkscape:label="Layer 1"
     inkscape:groupmode="layer"
     id="layer1"
     transform="translate(0,-552.36218)">
    <rect
       inkscape:tile-y0="-1.0356619"
       inkscape:tile-x0="-2.0203052"
       y="553.36121"
       x="1.7578122e-07"
       height="499.00098"
       width="15.647999"
       id="use4065"
       style="opacity:0.33;fill:#ff0000;fill-opacity:1;stroke:none" />
    <rect
       inkscape:tile-y0="-1.0356619"
       inkscape:tile-x0="-2.0203052"
       y="553.36121"
       x="15.64801"
       height="499.00098"
       width="15.647999"
       id="use4067"
       style="opacity:0.33;fill:#ff2600;fill-opacity:1;stroke:none" />
    <rect
       inkscape:tile-y0="-1.0356619"
       inkscape:tile-x0="-2.0203052"
       y="553.36121"
       x="31.296021"
       height="499.00098"
       width="15.647999"
       id="use4069"
       style="opacity:0.33;fill:#ff4d00;fill-opacity:1;stroke:none" />
    <rect
       inkscape:tile-y0="-1.0356619"
       inkscape:tile-x0="-2.0203052"
       y="553.36121"
       x="46.94397"
       height="499.00098"
       width="15.647999"
       id="use4071"
       style="opacity:0.33;fill:#ff7300;fill-opacity:1;stroke:none" />
    <rect
       inkscape:tile-y0="-1.0356619"
       inkscape:tile-x0="-2.0203052"
       y="553.36121"
       x="62.59198"
       height="499.00098"
       width="15.647999"
       id="use4073"
       style="opacity:0.33;fill:#ff9900;fill-opacity:1;stroke:none" />
    <rect
       inkscape:tile-y0="-1.0356619"
       inkscape:tile-x0="-2.0203052"
       y="553.36121"
       x="78.23999"
       height="499.00098"
       width="15.647999"
       id="use4075"
       style="opacity:0.33;fill:#ffbf00;fill-opacity:1;stroke:none" />
    <rect
       inkscape:tile-y0="-1.0356619"
       inkscape:tile-x0="-2.0203052"
       y="553.36121"
       x="93.888"
       height="499.00098"
       width="15.647999"
       id="use4077"
       style="opacity:0.33;fill:#ffe600;fill-opacity:1;stroke:none" />
    <rect
       inkscape:tile-y0="-1.0356619"
       inkscape:tile-x0="-2.0203052"
       y="553.36121"
       x="109.53601"
       height="499.00098"
       width="15.647999"
       id="use4079"
       style="opacity:0.33;fill:#f2ff00;fill-opacity:1;stroke:none" />
    <rect
       inkscape:tile-y0="-1.0356619"
       inkscape:tile-x0="-2.0203052"
       y="553.36121"
       x="125.18399"
       height="499.00098"
       width="15.647999"
       id="use4081"
       style="opacity:0.33;fill:#ccff00;fill-opacity:1;stroke:none" />
    <rect
       inkscape:tile-y0="-1.0356619"
       inkscape:tile-x0="-2.0203052"
       y="553.36121"
       x="140.83197"
       height="499.00098"
       width="15.647999"
       id="use4083"
       style="opacity:0.33;fill:#a6ff00;fill-opacity:1;stroke:none" />
    <rect
       inkscape:tile-y0="-1.0356619"
       inkscape:tile-x0="-2.0203052"
       y="553.36121"
       x="156.47998"
       height="499.00098"
       width="15.647999"
       id="use4085"
       style="opacity:0.33;fill:#80ff00;fill-opacity:1;stroke:none" />
    <rect
       inkscape:tile-y0="-1.0356619"
       inkscape:tile-x0="-2.0203052"
       y="553.36121"
       x="172.12799"
       height="499.00098"
       width="15.647999"
       id="use4087"
       style="opacity:0.33;fill:#59ff00;fill-opacity:1;stroke:none" />
    <rect
       inkscape:tile-y0="-1.0356619"
       inkscape:tile-x0="-2.0203052"
       y="553.36121"
       x="187.77597"
       height="499.00098"
       width="15.647999"
       id="use4089"
       style="opacity:0.33;fill:#33ff00;fill-opacity:1;stroke:none" />
    <rect
       inkscape:tile-y0="-1.0356619"
       inkscape:tile-x0="-2.0203052"
       y="553.36121"
       x="203.42398"
       height="499.00098"
       width="15.647999"
       id="use4091"
       style="opacity:0.33;fill:#0dff00;fill-opacity:1;stroke:none" />
    <rect
       inkscape:tile-y0="-1.0356619"
       inkscape:tile-x0="-2.0203052"
       y="553.36121"
       x="219.07199"
       height="499.00098"
       width="15.647999"
       id="use4093"
       style="opacity:0.33;fill:#00ff19;fill-opacity:1;stroke:none" />
    <rect
       inkscape:tile-y0="-1.0356619"
       inkscape:tile-x0="-2.0203052"
       y="553.36121"
       x="234.71997"
       height="499.00098"
       width="15.647999"
       id="use4095"
       style="opacity:0.33;fill:#00ff40;fill-opacity:1;stroke:none" />
    <rect
       inkscape:tile-y0="-1.0356619"
       inkscape:tile-x0="-2.0203052"
       y="553.36121"
       x="250.36798"
       height="499.00098"
       width="15.647999"
       id="use4097"
       style="opacity:0.33;fill:#00ff66;fill-opacity:1;stroke:none" />
    <rect
       inkscape:tile-y0="-1.0356619"
       inkscape:tile-x0="-2.0203052"
       y="553.36121"
       x="266.01599"
       height="499.00098"
       width="15.647999"
       id="use4099"
       style="opacity:0.33;fill:#00ff8c;fill-opacity:1;stroke:none" />
    <rect
       inkscape:tile-y0="-1.0356619"
       inkscape:tile-x0="-2.0203052"
       y="553.36121"
       x="281.66397"
       height="499.00098"
       width="15.647999"
       id="use4101"
       style="opacity:0.33;fill:#00ffb2;fill-opacity:1;stroke:none" />
    <rect
       inkscape:tile-y0="-1.0356619"
       inkscape:tile-x0="-2.0203052"
       y="553.36121"
       x="297.31198"
       height="499.00098"
       width="15.647999"
       id="use4103"
       style="opacity:0.33;fill:#00ffd9;fill-opacity:1;stroke:none" />
    <rect
       inkscape:tile-y0="-1.0356619"
       inkscape:tile-x0="-2.0203052"
       y="553.36121"
       x="312.95996"
       height="499.00098"
       width="15.647999"
       id="use4105"
       style="opacity:0.33;fill:#00ffff;fill-opacity:1;stroke:none" />
    <rect
       inkscape:tile-y0="-1.0356619"
       inkscape:tile-x0="-2.0203052"
       y="553.36121"
       x="328.60797"
       height="499.00098"
       width="15.647999"
       id="use4107"
       style="opacity:0.33;fill:#00d9ff;fill-opacity:1;stroke:none" />
    <rect
       inkscape:tile-y0="-1.0356619"
       inkscape:tile-x0="-2.0203052"
       y="553.36121"
       x="344.25595"
       height="499.00098"
       width="15.647999"
       id="use4109"
       style="opacity:0.33;fill:#00b2ff;fill-opacity:1;stroke:none" />
    <rect
       inkscape:tile-y0="-1.0356619"
       inkscape:tile-x0="-2.0203052"
       y="553.36121"
       x="359.90396"
       height="499.00098"
       width="15.647999"
       id="use4111"
       style="opacity:0.33;fill:#008cff;fill-opacity:1;stroke:none" />
    <rect
       inkscape:tile-y0="-1.0356619"
       inkscape:tile-x0="-2.0203052"
       y="553.36121"
       x="375.55197"
       height="499.00098"
       width="15.647999"
       id="use4113"
       style="opacity:0.33;fill:#0066ff;fill-opacity:1;stroke:none" />
    <rect
       inkscape:tile-y0="-1.0356619"
       inkscape:tile-x0="-2.0203052"
       y="553.36121"
       x="391.19998"
       height="499.00098"
       width="15.647999"
       id="use4115"
       style="opacity:0.33;fill:#0040ff;fill-opacity:1;stroke:none" />
    <rect
       inkscape:tile-y0="-1.0356619"
       inkscape:tile-x0="-2.0203052"
       y="553.36121"
       x="406.84796"
       height="499.00098"
       width="15.647999"
       id="use4117"
       style="opacity:0.33;fill:#001aff;fill-opacity:1;stroke:none" />
    <rect
       inkscape:tile-y0="-1.0356619"
       inkscape:tile-x0="-2.0203052"
       y="553.36121"
       x="422.49597"
       height="499.00098"
       width="15.647999"
       id="use4119"
       style="opacity:0.33;fill:#0d00ff;fill-opacity:1;stroke:none" />
    <rect
       inkscape:tile-y0="-1.0356619"
       inkscape:tile-x0="-2.0203052"
       y="553.36121"
       x="438.14398"
       height="499.00098"
       width="15.647999"
       id="use4121"
       style="opacity:0.33;fill:#3300ff;fill-opacity:1;stroke:none" />
    <rect
       inkscape:tile-y0="-1.0356619"
       inkscape:tile-x0="-2.0203052"
       y="553.36121"
       x="453.79196"
       height="499.00098"
       width="15.647999"
       id="use4123"
       style="opacity:0.33;fill:#5900ff;fill-opacity:1;stroke:none" />
    <rect
       inkscape:tile-y0="-1.0356619"
       inkscape:tile-x0="-2.0203052"
       y="553.36121"
       x="469.43997"
       height="499.00098"
       width="15.647999"
       id="use4125"
       style="opacity:0.33;fill:#8000ff;fill-opacity:1;stroke:none" />
    <rect
       inkscape:tile-y0="-1.0356619"
       inkscape:tile-x0="-2.0203052"
       y="553.36121"
       x="485.08798"
       height="499.00098"
       width="15.647999"
       id="use4127"
       style="opacity:0.33;fill:#a600ff;fill-opacity:1;stroke:none" />
    <path
       style="fill:#000000"
       d="m 440.59514,1050.4697 c -0.52812,-1.6841 -3.62408,-4.0028 -24.22472,-18.1427 -23.922,-16.4195 -73.00718,-51.24344 -77.95729,-55.3076 -2.84839,-2.33857 -6.95767,-6.06184 -9.13176,-8.27391 -2.17408,-2.21207 -7.1502,-6.16645 -11.05803,-8.78753 -3.90784,-2.62107 -15.80739,-10.91849 -26.44344,-18.43869 l -19.33827,-13.67312 -3.93896,1.55556 c -6.4856,2.56122 -8.49893,1.49038 -47.95759,-25.50785 -33.56652,-22.96675 -33.07729,-22.57375 -34.75241,-27.91586 -1.24559,-3.97233 0.24125,-7.23961 7.39695,-16.25452 l 5.63219,-7.09558 -6.56787,-4.81151 c -12.21117,-8.94573 -53.59758,-36.98651 -66.28523,-44.91063 -3.44745,-2.15313 -6.08227,-4.40742 -6.42357,-5.49586 -0.8452,-2.69543 0.80863,-6.05961 6.36003,-12.9374 2.71238,-3.36041 6.60156,-8.77305 8.64266,-12.02814 2.04108,-3.25506 4.21066,-6.06508 4.82129,-6.24448 1.64903,-0.48451 9.04785,4.10014 26.50581,16.42428 23.51779,16.60197 55.35653,36.67938 57.2207,36.08322 2.08057,-0.66538 17.92595,-25.80228 21.17557,-33.59266 4.09001,-9.80494 6.99794,-25.21639 6.59708,-34.96311 -0.39772,-9.67071 -5.73511,-28.85006 -10.65876,-38.30109 -4.56701,-8.76646 -11.70748,-17.81471 -19.39476,-24.5766 -7.37273,-6.4852 -23.6293,-15.5203 -32.64605,-18.14405 -15.77456,-4.59021 -34.85974,-3.95184 -54.71091,1.83 -13.1006,3.81568 -20.71329,7.71049 -28.61045,14.63777 -7.043924,6.17882 -18.343082,19.33728 -24.727223,28.79616 l -4.611399,6.83234 -23.202115,32.10339 -3.791516,1.6064 -3.791495,1.60642 -6.099678,-3.2699 C 26.734506,746.89881 1.7660333,730.98076 0.95437413,729.25716 -0.07236404,727.07673 2.5974199,722.24025 11.575305,710.01683 30.42208,684.35686 34.912987,672.37307 32.798811,653.38285 c -1.094054,-9.82729 -0.664608,-18.19688 1.179347,-22.9837 2.179293,-5.65735 26.689116,-32.79279 38.115323,-42.19844 14.708766,-12.10773 34.406479,-21.2069 60.706189,-28.04264 17.02925,-4.42621 26.68462,-5.9522 41.33342,-6.53258 22.96492,-0.90985 45.58184,2.8681 67.13747,11.21473 47.86297,18.53314 89.46276,60.80947 106.31628,108.04538 6.246,17.50574 8.6562,33.33995 8.08463,53.1138 -0.72411,25.05365 -7.19292,48.92515 -19.75911,72.91588 -3.24245,6.19035 -6.20386,12.92408 -6.5809,14.96378 -0.914,4.94479 -0.51752,14.85633 0.86557,21.63672 1.03756,5.08647 0.95427,5.72599 -1.10268,8.46547 -1.22376,1.62982 -3.72865,5.46087 -5.56641,8.51338 l -3.34137,5.55006 20.18187,13.49801 c 11.10001,7.42388 23.81782,15.99623 28.26177,19.04963 5.37117,3.69047 8.62487,5.39646 9.70546,5.08879 2.2937,-0.6531 2.2903,-0.65466 17.13709,7.83413 21.10618,12.06757 32.66853,19.39338 68.58538,43.45535 18.46282,12.36887 33.91249,22.38785 34.33265,22.26441 2.98222,7.83905 -32.95402,73.46899 -57.79565,81.23469 z"
       id="path3267"
       inkscape:connector-curvature="0" />
  </g>
</svg>
