<?xml version="1.0" encoding="UTF-8" standalone="no"?>
<!-- Created with Inkscape (http://www.inkscape.org/) -->

<svg
   xmlns:dc="http://purl.org/dc/elements/1.1/"
   xmlns:cc="http://creativecommons.org/ns#"
   xmlns:rdf="http://www.w3.org/1999/02/22-rdf-syntax-ns#"
   xmlns:svg="http://www.w3.org/2000/svg"
   xmlns="http://www.w3.org/2000/svg"
   xmlns:sodipodi="http://sodipodi.sourceforge.net/DTD/sodipodi-0.dtd"
   xmlns:inkscape="http://www.inkscape.org/namespaces/inkscape"
   width="500"
   height="500"
   id="svg2"
   version="1.1"
   inkscape:version="0.92.3 (unknown)"
   inkscape:export-filename="/home/brian/src/cytoflow/cytoflowgui/op_plugins/images/binning.png"
   inkscape:export-xdpi="5.8299999"
   inkscape:export-ydpi="5.8299999"
   sodipodi:docname="binning.svg">
  <defs
     id="defs4">
    <linearGradient
       id="linearGradient3880">
      <stop
         id="stop3890"
         offset="0"
         style="stop-color:#ff0000;stop-opacity:1;" />
      <stop
         style="stop-color:#fd7f00;stop-opacity:1;"
         offset="0.125"
         id="stop3894" />
      <stop
         id="stop3888"
         offset="0.25"
         style="stop-color:#fcff00;stop-opacity:1;" />
      <stop
         id="stop3886"
         offset="0.5"
         style="stop-color:#06ff00;stop-opacity:1;" />
      <stop
         style="stop-color:#392cfa;stop-opacity:1;"
         offset="0.75"
         id="stop3892" />
      <stop
         style="stop-color:#ff00eb;stop-opacity:1;"
         offset="1"
         id="stop3884" />
    </linearGradient>
    <clipPath
       clipPathUnits="userSpaceOnUse"
       id="clipPath7758">
      <g
         inkscape:label="Clip"
         id="use7760">
        <rect
           clip-path="none"
           y="552.36218"
           x="46.142899"
           height="502.85718"
           width="101.42857"
           id="rect7772"
           style="opacity:0.86831276;fill:#ff2c0b;fill-opacity:1;stroke:none" />
        <rect
           clip-path="none"
           style="opacity:0.86831276;fill:#f5ff0b;fill-opacity:1;stroke:none"
           id="rect7774"
           width="101.42857"
           height="502.85718"
           x="147.57147"
           y="552.36218" />
        <rect
           clip-path="none"
           y="552.36218"
           x="249.00005"
           height="502.85718"
           width="101.42857"
           id="rect7776"
           style="opacity:0.86831276;fill:#0bff1f;fill-opacity:1;stroke:none" />
        <rect
           clip-path="none"
           style="opacity:0.86831276;fill:#1f0bff;fill-opacity:1;stroke:none"
           id="rect7778"
           width="101.42857"
           height="502.85718"
           x="350.42862"
           y="552.36218" />
      </g>
    </clipPath>
  </defs>
  <sodipodi:namedview
     id="base"
     pagecolor="#ffffff"
     bordercolor="#666666"
     borderopacity="1.0"
     inkscape:pageopacity="0.0"
     inkscape:pageshadow="2"
     inkscape:zoom="0.98994949"
     inkscape:cx="121.72714"
     inkscape:cy="288.32804"
     inkscape:document-units="px"
     inkscape:current-layer="layer1"
     showgrid="false"
     inkscape:window-width="1391"
     inkscape:window-height="876"
     inkscape:window-x="49"
     inkscape:window-y="24"
     inkscape:window-maximized="1"
     showguides="true"
     inkscape:guide-bbox="true"
     units="in" />
  <metadata
     id="metadata7">
    <rdf:RDF>
      <cc:Work
         rdf:about="">
        <dc:format>image/svg+xml</dc:format>
        <dc:type
           rdf:resource="http://purl.org/dc/dcmitype/StillImage" />
        <dc:title></dc:title>
      </cc:Work>
    </rdf:RDF>
  </metadata>
  <g
     inkscape:label="Layer 1"
     inkscape:groupmode="layer"
     id="layer1"
     transform="translate(0,-552.36218)">
    <path
       style="fill:none;stroke:#000000;stroke-width:18.75;stroke-linecap:butt;stroke-linejoin:miter;stroke-miterlimit:4;stroke-dasharray:none;stroke-opacity:1"
       d="M 2.506187,1043.5525 C 78.34959,1048.1898 115.53758,801.55393 143.46577,664.78581 171.39398,528.0177 218.5272,518.6029 255.81607,691.89075 c 37.28887,173.28785 52.14786,217.02956 97.56738,219.26453 45.41952,2.23498 37.16069,13.88055 61.10279,52.12489 23.9421,38.24433 33.95174,77.23533 83.76996,84.44233 z"
       id="path7744"
       inkscape:connector-curvature="0"
       sodipodi:nodetypes="czzzzcc" />
    <path
       style="fill:none;stroke:#000000;stroke-width:18.75;stroke-linecap:butt;stroke-linejoin:miter;stroke-miterlimit:4;stroke-dasharray:none;stroke-opacity:1"
       d="M 2.506187,1043.5525 C 78.34959,1048.1898 115.53758,801.55393 143.46577,664.78581 171.39398,528.0177 218.5272,518.6029 255.81607,691.89075 c 37.28887,173.28785 52.14786,217.02956 97.56738,219.26453 45.41952,2.23498 37.16069,13.88055 61.10279,52.12489 23.9421,38.24433 33.95174,77.23533 83.76996,84.44233 z"
       id="path7740"
       inkscape:connector-curvature="0"
       sodipodi:nodetypes="czzzzcc" />
    <path
       style="fill:none;stroke:#000000;stroke-width:18.75;stroke-linecap:butt;stroke-linejoin:miter;stroke-miterlimit:4;stroke-dasharray:none;stroke-opacity:1"
       d="M 2.506187,1043.5525 C 78.34959,1048.1898 115.53758,801.55393 143.46577,664.78581 171.39398,528.0177 218.5272,518.6029 255.81607,691.89075 c 37.28887,173.28785 52.14786,217.02956 97.56738,219.26453 45.41952,2.23498 37.16069,13.88055 61.10279,52.12489 23.9421,38.24433 33.95174,77.23533 83.76996,84.44233 z"
       id="path7736"
       inkscape:connector-curvature="0"
       sodipodi:nodetypes="czzzzcc" />
    <path
       style="opacity:0.86831276;fill:#ff2c0b;fill-opacity:1;stroke:none"
       clip-path="none"
       d="m 46.142899,1012.3622 50.714286,-131.00002 50.714285,-233 V 1047.2194 H 46.142899 Z"
       id="rect2992"
       inkscape:connector-curvature="0"
       sodipodi:nodetypes="cccccc" />
    <path
       style="opacity:0.86831276;fill:#f5ff0b;fill-opacity:1;stroke:none"
       clip-path="none"
       d="m 147.57147,632.36218 48.71429,-74 52.71429,94 V 1045.2194 H 147.57147 Z"
       id="rect3896"
       inkscape:connector-curvature="0"
       sodipodi:nodetypes="cccccc" />
    <path
       style="opacity:0.86831276;fill:#0bff1f;fill-opacity:1;stroke:none"
       clip-path="none"
       d="m 249.00005,652.36218 61.42857,232.14286 40,25.85714 V 1047.2194 H 249.00005 Z"
       id="rect3900"
       inkscape:connector-curvature="0"
       sodipodi:nodetypes="cccccc" />
    <path
       style="opacity:0.86831276;fill:#1f0bff;fill-opacity:1;stroke:none"
       clip-path="none"
       d="m 350.42862,912.36218 34.28572,1.42857 85.14285,133.42865 H 350.42862 Z"
       id="rect3904"
       inkscape:connector-curvature="0"
       sodipodi:nodetypes="ccccc" />
    <path
       style="fill:none;stroke:#000000;stroke-width:18.75;stroke-linecap:butt;stroke-linejoin:miter;stroke-miterlimit:4;stroke-dasharray:none;stroke-opacity:1"
       d="M 2.506187,1043.5525 C 78.34959,1048.1898 115.53758,801.55393 143.46577,664.78581 171.39398,528.0177 218.5272,518.6029 255.81607,691.89075 c 37.28887,173.28785 52.14786,217.02956 97.56738,219.26453 45.41952,2.23498 37.16069,13.88055 61.10279,52.12489 23.9421,38.24433 33.95174,77.23533 83.76996,84.44233 z"
       id="path7764"
       inkscape:connector-curvature="0"
       sodipodi:nodetypes="czzzzcc" />
    <path
       style="fill:none;stroke:#000000;stroke-width:18.75;stroke-linecap:butt;stroke-linejoin:miter;stroke-miterlimit:4;stroke-dasharray:none;stroke-opacity:1"
       d="M 2.506187,1043.5525 C 78.34959,1048.1898 115.53758,801.55393 143.46577,664.78581 171.39398,528.0177 218.5272,518.6029 255.81607,691.89075 c 37.28887,173.28785 52.14786,217.02956 97.56738,219.26453 45.41952,2.23498 37.16069,13.88055 61.10279,52.12489 23.9421,38.24433 33.95174,77.23533 83.76996,84.44233 z"
       id="path7732"
       inkscape:connector-curvature="0"
       sodipodi:nodetypes="czzzzcc" />
  </g>
</svg>
