<?xml version="1.0" encoding="UTF-8" standalone="no"?>
<!-- Created with Inkscape (http://www.inkscape.org/) -->

<svg
   width="500"
   height="500"
   id="svg2"
   version="1.1"
   xml:space="preserve"
   sodipodi:docname="flowclean.svg"
   inkscape:version="1.4 (1:1.4+202410161351+e7c3feb100)"
   xmlns:inkscape="http://www.inkscape.org/namespaces/inkscape"
   xmlns:sodipodi="http://sodipodi.sourceforge.net/DTD/sodipodi-0.dtd"
   xmlns="http://www.w3.org/2000/svg"
   xmlns:svg="http://www.w3.org/2000/svg"
   xmlns:rdf="http://www.w3.org/1999/02/22-rdf-syntax-ns#"
   xmlns:cc="http://creativecommons.org/ns#"
   xmlns:dc="http://purl.org/dc/elements/1.1/"><sodipodi:namedview
     id="namedview1"
     pagecolor="#ffffff"
     bordercolor="#000000"
     borderopacity="0.25"
     inkscape:showpageshadow="2"
     inkscape:pageopacity="0.0"
     inkscape:pagecheckerboard="0"
     inkscape:deskcolor="#d1d1d1"
     inkscape:zoom="2.326"
     inkscape:cx="250"
     inkscape:cy="250"
     inkscape:window-width="3374"
     inkscape:window-height="1371"
     inkscape:window-x="1986"
     inkscape:window-y="32"
     inkscape:window-maximized="1"
     inkscape:current-layer="layer1" /><defs
     id="defs4" /><metadata
     id="metadata7"><rdf:RDF><cc:Work
         rdf:about=""><dc:format>image/svg+xml</dc:format><dc:type
           rdf:resource="http://purl.org/dc/dcmitype/StillImage" /></cc:Work></rdf:RDF></metadata><g
     id="layer1"
     transform="translate(0,-552.36218)"><path
       style="fill:#000000;stroke-width:3.49279"
       d="m 185.41367,1003.696 -24.24218,-23.85651 34.84639,-38.39197 c 19.16555,-21.11554 34.84643,-41.10016 34.84643,-44.41026 0,-7.40034 -12.38749,-14.55307 -18.66555,-10.77781 -2.53102,1.522 -19.28989,18.95445 -37.24196,38.73881 l -32.64014,35.97159 -23.83572,-23.65312 c -13.10967,-13.00921 -23.835771,-23.93699 -23.835771,-24.28396 0,-0.34683 16.110541,-15.1002 35.801181,-32.78498 19.69066,-17.6848 37.04644,-34.31866 38.56847,-36.96414 3.74138,-6.50323 -3.32274,-18.87371 -10.77784,-18.87371 -3.3101,0 -23.29472,15.68087 -44.41026,34.84642 L 75.434787,894.10275 51.578053,869.86057 C 36.523327,854.5626 28.159717,843.34202 28.909527,839.44855 29.968531,833.94957 64.146693,805.67865 142.9401,745.1267 l 25.59177,-19.66701 80.06537,80.00862 c 44.03599,44.00475 80.06542,80.82007 80.06542,81.81185 0,5.39082 -107.65226,138.08624 -112.83554,139.08414 -3.89529,0.7502 -15.11191,-7.6098 -30.41345,-22.6683 z m 82.96845,-216.86278 c -41.76625,-41.79859 -75.93859,-77.24003 -75.93859,-78.75873 0,-3.77009 28.02964,-16.22387 36.67438,-16.29471 22.63592,-0.18546 35.1305,7.83072 78.00697,50.04716 23.69343,23.32868 45.26017,46.57316 47.92605,51.65437 9.13485,17.41093 9.86324,35.66115 2.12181,53.16196 -3.93828,8.90311 -8.44108,16.18745 -10.00624,16.18745 -1.5652,0 -37.01815,-34.19886 -78.78438,-75.9975 z m 61.06992,-61.1258 -32.39221,-32.57704 55.09539,-54.3483 c 59.05491,-58.25414 66.33146,-62.67086 91.4035,-55.48031 16.00417,4.58997 24.1774,12.70503 28.33068,28.12915 6.97093,25.88814 3.00493,32.43386 -55.57464,91.72313 l -54.47051,55.1304 z"
       id="path241" /></g></svg>
