<?xml version="1.0" encoding="UTF-8" standalone="no"?>
<!-- Created with Inkscape (http://www.inkscape.org/) -->

<svg
   xmlns:dc="http://purl.org/dc/elements/1.1/"
   xmlns:cc="http://creativecommons.org/ns#"
   xmlns:rdf="http://www.w3.org/1999/02/22-rdf-syntax-ns#"
   xmlns:svg="http://www.w3.org/2000/svg"
   xmlns="http://www.w3.org/2000/svg"
   xmlns:sodipodi="http://sodipodi.sourceforge.net/DTD/sodipodi-0.dtd"
   xmlns:inkscape="http://www.inkscape.org/namespaces/inkscape"
   width="500"
   height="500"
   id="svg2"
   version="1.1"
   inkscape:version="0.91 r"
   inkscape:export-filename="/home/brian/src/cytoflow/cytoflowgui/view_plugins/images/kde_1d.png"
   inkscape:export-xdpi="5.8299999"
   inkscape:export-ydpi="5.8299999"
   sodipodi:docname="gauss_2d.svg">
  <defs
     id="defs4" />
  <sodipodi:namedview
     id="base"
     pagecolor="#ffffff"
     bordercolor="#666666"
     borderopacity="1.0"
     inkscape:pageopacity="0.0"
     inkscape:pageshadow="2"
     inkscape:zoom="0.98994949"
     inkscape:cx="427.8239"
     inkscape:cy="90.963712"
     inkscape:document-units="px"
     inkscape:current-layer="g4837"
     showgrid="false"
     inkscape:window-width="1787"
     inkscape:window-height="1311"
     inkscape:window-x="1964"
     inkscape:window-y="139"
     inkscape:window-maximized="0"
     showguides="true"
     inkscape:guide-bbox="true" />
  <metadata
     id="metadata7">
    <rdf:RDF>
      <cc:Work
         rdf:about="">
        <dc:format>image/svg+xml</dc:format>
        <dc:type
           rdf:resource="http://purl.org/dc/dcmitype/StillImage" />
        <dc:title></dc:title>
      </cc:Work>
    </rdf:RDF>
  </metadata>
  <g
     inkscape:label="Layer 1"
     inkscape:groupmode="layer"
     id="layer1"
     transform="translate(0,-552.36218)">
    <g
       id="g4837">
      <path
         style="fill:#c44e52;fill-opacity:1;stroke:none;stroke-width:0.99999994;stroke-opacity:1"
         d="m 177.13672,721.06445 c -40.11024,-0.0134 -80.96865,9.04592 -115.400392,30.12305 -25.01626,15.25367 -44.528794,41.07717 -47.582581,70.73989 -4.5715533,40.95346 11.627338,81.35217 33.495741,115.20271 9.73227,14.48929 20.370639,28.71754 32.922778,40.8074 5.144805,2.7648 10.875522,-4.39137 6.539062,-8.68164 -8.659593,-13.28847 -21.02991,-23.75579 -28.864162,-37.66604 -19.092015,-29.72637 -34.324143,-64.0102 -33.272557,-99.87302 0.284947,-20.30512 8.686174,-40.58829 23.921435,-54.35789 23.779521,-22.67394 56.301396,-33.40092 87.865216,-39.53598 28.42671,-4.08268 57.44017,-2.61898 86.00608,-1.23629 42.72943,4.14464 84.43367,16.60645 124.8342,31.05723 34.38299,12.91021 68.61388,28.17204 96.49026,52.46746 12.54863,11.45232 21.18927,28.1475 19.31009,45.45865 -1.06349,31.47433 -19.49065,59.02746 -38.03564,83.46941 -46.85542,59.08281 -125.26668,91.85261 -200.06812,83.13641 -27.36662,-2.5712 -53.72955,-11.2285 -78.92508,-21.8164 -4.20306,-1.8427 -10.05332,1.6612 -7.84375,6.5429 5.5459,9.2037 17.299,11.1013 26.40112,15.1394 43.64025,15.5552 91.75713,20.0415 136.94874,8.8078 73.4881,-17.2675 138.85128,-70.67898 166.4022,-141.48579 8.31203,-22.14878 11.30477,-48.53078 -1.352,-69.73448 -13.04158,-23.84858 -37.83478,-37.34749 -60.60514,-50.34798 -47.24742,-24.78417 -98.71503,-40.77513 -150.79297,-51.72656 -25.80612,-5.39852 -52.08074,-6.95718 -78.39453,-6.49024 z"
         id="path5045"
         inkscape:connector-curvature="0" />
      <path
         style="fill:#c44e52;fill-opacity:1;stroke:none;stroke-width:0.99999994;stroke-opacity:1"
         d="m 112.22852,982.44922 c -5.76311,1.14092 -4.76667,8.23829 -5.13086,12.35156 -6.06834,1.16037 -5.0119,10.39052 0.61132,11.49022 2.86695,0.6949 5.85402,1.582 6.27344,4.8965 1.40818,2.3175 4.46472,2.5276 6.79492,2.4844 1.11744,5.2949 8.17449,9.1213 12.19532,4.2695 6.36482,-5.573 7.85722,-18.18871 -0.22071,-22.78906 -2.4745,-0.22739 -4.1807,0.39912 -4.88867,-2.57617 -1.69692,-2.50326 -4.69869,-4.2954 -7.7832,-3.99805 -1.5958,-2.95961 -3.96941,-6.64468 -7.85156,-6.1289 z"
         id="path5037"
         inkscape:connector-curvature="0" />
      <path
         style="fill:#c44e52;fill-opacity:1;stroke:none;stroke-width:0.99999994;stroke-opacity:1"
         d="m 128.69336,1001.2305 c -7.53321,1.0056 -4.94444,15.401 2.55664,12.248 4.99996,-2.45 3.86005,-12.8101 -2.55664,-12.248 z"
         id="path5035"
         inkscape:connector-curvature="0" />
      <path
         style="fill:#c44e52;fill-opacity:1;stroke:none;stroke-width:0.99999994;stroke-opacity:1"
         d="m 119.66602,994.87305 c -6.49412,2.01644 -5.34503,15.05905 2.24609,13.32425 5.64862,-2.3945 5.22907,-14.44712 -2.24609,-13.32425 z"
         id="path5033"
         inkscape:connector-curvature="0" />
      <path
         style="fill:#c44e52;fill-opacity:1;stroke:none;stroke-width:0.99999994;stroke-opacity:1"
         d="m 98.357422,973.76953 c -3.43116,0.16242 -4.867793,4.21297 -8.304688,4.15039 -5.288814,3.94523 0.183664,10.43902 1.292969,15.0918 1.446347,4.38772 7.339252,8.77328 11.195317,4.30664 5.9993,-5.57485 9.20768,-17.84832 0.74023,-22.66992 -1.53216,-0.75465 -3.24272,-0.91151 -4.923828,-0.87891 z"
         id="path5031"
         inkscape:connector-curvature="0" />
      <path
         style="fill:#c44e52;fill-opacity:1;stroke:none;stroke-width:0.99999994;stroke-opacity:1"
         d="m 98.791016,979.30859 c -6.940091,1.26214 -6.010409,15.08373 1.617184,13.37891 5.60564,-1.64333 5.44707,-14.07347 -1.617184,-13.37891 z"
         id="path5029"
         inkscape:connector-curvature="0" />
      <path
         style="fill:#c44e52;fill-opacity:1;stroke:none;stroke-width:0.99999994;stroke-opacity:1"
         d="m 200.61719,963.0332 c -11.40119,1.60825 -14.02886,19.85462 -4.67969,25.62305 2.86425,1.16919 6.304,-0.64689 8.0957,2.48437 2.08701,1.67744 5.2806,2.16487 7.54102,0.54297 3.19085,3.98396 9.9898,4.23012 12.35156,-0.77148 4.15455,-6.17943 4.37985,-17.02691 -2.6914,-21.11523 -2.61591,-1.32146 -6.10934,0.9668 -7.62305,-2.17774 -2.00319,-1.87236 -5.17171,-2.09376 -7.51563,-1.40234 -1.14211,-1.88692 -3.23133,-3.24748 -5.47851,-3.1836 z"
         id="path5023"
         inkscape:connector-curvature="0" />
      <path
         style="fill:#c44e52;fill-opacity:1;stroke:none;stroke-width:0.99999994;stroke-opacity:1"
         d="m 217.82227,975.39258 c -7.05781,0.80203 -5.37875,14.37877 1.90625,11.74609 5.37013,-2.19164 4.97195,-12.33554 -1.90625,-11.74609 z"
         id="path5021"
         inkscape:connector-curvature="0" />
      <path
         style="fill:#c44e52;fill-opacity:1;stroke:none;stroke-width:0.99999994;stroke-opacity:1"
         d="m 208.11328,972.16992 c -7.50304,1.07597 -4.84674,15.4257 2.63477,12.22852 4.98707,-2.48425 3.80294,-12.85853 -2.63477,-12.22852 z"
         id="path5019"
         inkscape:connector-curvature="0" />
      <path
         style="fill:#c44e52;fill-opacity:1;stroke:none;stroke-width:0.99999994;stroke-opacity:1"
         d="m 202.09375,737.53125 c -37.41756,0.64741 -77.30771,8.50326 -106.077912,34.06859 -18.373569,17.4329 -28.76801,43.16955 -25.970916,68.5193 3.385401,43.17046 29.260847,81.68293 61.668858,109.04282 10.25135,8.19776 21.15076,16.27872 33.43075,21.00796 4.99745,0.85141 9.66683,-5.81262 5.33789,-9.55273 C 158.25117,949.9927 142.98279,943.45048 131.58956,931.72574 109.98896,911.45572 92.817351,885.87769 84.656981,857.28349 81.606102,844.51548 81.544312,831.302 82.8125,818.30273 c 4.485288,-25.03864 25.92082,-43.34969 48.43164,-52.91796 34.33651,-15.60275 73.17217,-15.20063 109.97461,-11.54102 42.88123,5.6669 85.42294,18.97948 123.20898,40.07422 16.09334,9.86655 32.78196,22.01133 40.23048,40.01011 9.19517,25.9189 -3.02636,53.39523 -18.84121,74.07969 -30.84609,43.14541 -83.95655,69.14305 -136.61305,68.61498 -6.77872,0.63121 -14.49955,0.21248 -20.34457,4.05498 -4.28042,4.93058 2.43559,11.81066 7.92937,10.18143 31.35045,1.17646 63.29163,-3.92167 91.41242,-18.31033 39.61858,-19.42862 73.33688,-53.3854 87.8161,-95.52923 6.67751,-20.09882 5.22235,-43.40906 -7.17157,-61.03522 C 390.19436,788.46995 358.47089,774.17134 328.72384,761.96553 288.49148,746.39116 245.328,737.24622 202.09375,737.53125 Z"
         id="path5017"
         inkscape:connector-curvature="0" />
      <path
         style="fill:#c44e52;fill-opacity:1;stroke:none;stroke-width:0.99999994;stroke-opacity:1"
         d="m 185.46875,959.43555 c -6.17104,1.23499 -11.97758,7.72668 -11.06836,14.02539 2.00439,5.13141 5.10172,12.32547 11.23047,12.80859 7.7762,-1.93671 9.76082,-12.10154 8.23633,-18.95117 -0.68928,-4.09067 -3.79734,-8.3588 -8.39844,-7.88281 z"
         id="path5015"
         inkscape:connector-curvature="0" />
      <path
         style="fill:#c44e52;fill-opacity:1;stroke:none;stroke-width:0.99999994;stroke-opacity:1"
         d="m 185.08984,966.30859 c -7.22749,0.56605 -6.22111,14.13133 1.44727,11.90235 5.23821,-1.77161 5.00346,-12.25202 -1.44727,-11.90235 z"
         id="path5013"
         inkscape:connector-curvature="0" />
      <path
         style="fill:#c44e52;fill-opacity:1;stroke:none;stroke-width:0.99999994;stroke-opacity:1"
         d="m 191.125,975.375 c -7.43661,0.3402 -4.90017,13.4516 2.06445,10.91211 5.48026,-1.92885 4.01582,-11.44681 -2.06445,-10.91211 z"
         id="path5011"
         inkscape:connector-curvature="0" />
      <path
         style="fill:#c44e52;fill-opacity:1;stroke:none;stroke-width:0.99999994;stroke-opacity:1"
         d="m 224.58398,755.24609 c -31.40207,-0.69239 -65.16829,5.36018 -89.21875,27.02149 -19.07885,16.94305 -26.1487,45.13267 -18.79811,69.37922 13.00176,49.51455 58.84996,86.64182 108.6321,94.65203 16.61562,1.87378 33.53254,1.15837 50.10566,-0.89947 11.54863,-1.85039 22.97239,-5.54748 33.19512,-11.20014 4.52936,-2.45511 6.08941,-10.34568 0.27148,-12.17969 -6.82096,-1.91343 -12.61228,4.33815 -19.15234,5.24024 -24.93164,7.87698 -51.76882,7.65466 -77.04883,1.55859 -35.17205,-9.93052 -66.61358,-35.14177 -80.59961,-69.47266 -7.21139,-17.59045 -8.98763,-38.90542 1.9532,-55.63866 11.77257,-17.94009 33.09527,-26.75916 53.33587,-31.19142 41.87913,-7.84083 85.65197,-0.76363 124.51964,16.12302 20.99938,9.4664 43.7291,22.83259 50.82801,46.28128 3.87493,12.0737 0.33737,24.63404 -4.41406,35.85742 -2.03901,4.11239 -2.30622,11.7973 3.94531,11.80078 6.30791,-0.37787 7.19682,-8.24511 9.6211,-12.73632 8.39961,-21.61716 4.82117,-48.32667 -12.1453,-64.90047 -23.30957,-24.76336 -56.6875,-36.67231 -88.98662,-44.54144 -15.09382,-3.40651 -30.5593,-5.29739 -46.04387,-5.1538 z"
         id="path5005"
         inkscape:connector-curvature="0" />
      <path
         style="fill:#c44e52;fill-opacity:1;stroke:none;stroke-width:0.99999994;stroke-opacity:1"
         d="m 322.32227,906.32617 c -7.94766,0.76262 -7.7151,10.44666 -9.39454,16.19141 -1.50126,4.20028 1.54477,9.40519 6.32032,8.71094 6.00966,1.04162 14.30025,-2.026 13.65625,-9.33204 0.22012,-6.51952 -2.97706,-15.22473 -10.58203,-15.57031 z"
         id="path5003"
         inkscape:connector-curvature="0" />
      <path
         style="fill:#c44e52;fill-opacity:1;stroke:none;stroke-width:0.99999994;stroke-opacity:1"
         d="m 323.01953,913.02148 c -7.60912,0.58392 -4.66237,14.64599 2.53516,11.7793 5.42503,-2.36757 3.2921,-11.81644 -2.53516,-11.7793 z"
         id="path5001"
         inkscape:connector-curvature="0" />
      <path
         style="fill:#c44e52;fill-opacity:1;stroke:none;stroke-width:0.99999994;stroke-opacity:1"
         d="m 331.83008,912.39844 c -7.71088,0.44294 -6.39878,14.2162 1.36523,12.63867 6.05381,-1.35103 5.39972,-13.04397 -1.36523,-12.63867 z"
         id="path4995"
         inkscape:connector-curvature="0" />
      <path
         style="fill:#c44e52;fill-opacity:1;stroke:none;stroke-width:0.99999994;stroke-opacity:1"
         d="m 350.58203,880.28906 c -4.21363,-0.36876 -6.261,4.05001 -7.95508,6.88672 -5.76646,0.51995 -6.59714,8.42355 -12.27343,8.90234 -6.53461,4.98295 -5.0658,15.5176 0.83984,20.24415 0.33525,4.40948 5.75134,7.75828 9.13867,4.03515 2.97076,-2.06563 2.43044,-7.39096 6.71485,-7.21875 4.45146,-1.31453 4.20248,-7.71764 8.78906,-8.20898 10.10456,-5.15853 5.65218,-23.9616 -5.25391,-24.64063 z"
         id="path4993"
         inkscape:connector-curvature="0" />
      <path
         style="fill:#c44e52;fill-opacity:1;stroke:none;stroke-width:0.99999994;stroke-opacity:1"
         d="m 343.08984,895.18164 c -7.11,0.75475 -3.88381,12.7458 2.56446,10.49609 6.21905,-1.95011 3.02685,-10.81001 -2.56446,-10.49609 z"
         id="path4991"
         inkscape:connector-curvature="0" />
      <path
         style="fill:#c44e52;fill-opacity:1;stroke:none;stroke-width:0.99999994;stroke-opacity:1"
         d="m 348.46875,883.60742 c 0.78148,4.14228 -3.44985,7.77884 -1.06641,11.9707 1.24868,4.86759 8.7078,4.26829 8.99414,-0.83593 1.04393,-6.9792 -5.39004,-12.24355 -7.67773,-18.26172 -0.0833,2.37565 -0.16667,4.7513 -0.25,7.12695 z"
         id="path4989"
         inkscape:connector-curvature="0" />
      <path
         style="fill:#c44e52;fill-opacity:1;stroke:none;stroke-width:0.99999994;stroke-opacity:1"
         d="m 207.38672,780.05273 c -23.46526,3.53801 -45.87947,22.20698 -48.33594,46.71875 -1.91552,22.09276 10.89976,42.98854 27.1211,56.99219 15.81185,13.28281 35.99867,22.40779 56.96823,21.57068 16.12913,0.22593 32.9169,-0.75197 47.30911,-8.78162 20.8592,-10.39444 39.22815,-30.06393 41.36914,-54.0957 0.95414,-20.17119 -13.31612,-37.20691 -29.44336,-47.53711 -8.05968,-4.99236 -17.09883,-10.03149 -26.65625,-10.45117 -6.28132,2.03548 -5.71885,12.75014 1.11231,13.60398 16.76899,7.19903 36.15297,16.60964 41.62988,35.63821 4.2016,17.74117 -9.22234,33.84132 -22.77344,43.42968 -17.2471,12.80373 -39.61528,16.44042 -60.5472,13.35638 -27.54118,-3.22755 -54.88349,-22.7469 -62.90397,-50.21966 -4.27653,-14.69261 3.19138,-31.04493 16.62109,-38.11328 7.21661,-4.88537 15.98683,-6.64032 23.48047,-10.48633 4.57857,-3.42884 2.48435,-11.74277 -3.59961,-11.59375 -0.44992,-0.0344 -0.90031,-0.0526 -1.35156,-0.0312 z"
         id="path4987"
         inkscape:connector-curvature="0" />
      <path
         style="fill:#c44e52;fill-opacity:1;stroke:none;stroke-width:0.99999994;stroke-opacity:1"
         d="m 241.41602,770.31836 c -6.24264,0.0739 -8.03344,8.74797 -3.86914,12.42969 -1.44141,3.23958 -7.43271,2.15614 -7.04297,6.85937 0.57494,6.81264 9.30366,8.51627 14.79297,7.42969 1.79968,-1.19253 2.98766,-1.21767 4.79492,-0.0215 2.74458,1.58684 5.86835,-1.55252 7.94531,0.9375 4.51543,2.96479 9.89975,-0.68629 11.11328,-5.40624 2.57464,-6.2813 2.81952,-15.85629 -3.65625,-19.78516 -3.52992,-2.15373 -7.64368,1.52489 -10.53516,-1.52149 -2.40588,-1.55719 -5.73175,-0.52744 -7.41015,1.00391 -1.52724,-1.81985 -3.95399,-1.88795 -6.13281,-1.92578 z"
         id="path4965"
         inkscape:connector-curvature="0" />
      <path
         style="fill:#ccb974;fill-opacity:1;stroke:none;stroke-width:1;stroke-opacity:1"
         d="m 159.98069,560.68196 c -14.28745,0.68949 -31.69403,1.26354 -41.12919,13.77844 -4.2723,6.46398 -1.5072,18.58091 7.52767,18.34219 7.64586,-1.63031 2.50124,-14.0296 11.10773,-14.45619 19.71305,-5.92276 40.33478,-1.86348 60.30637,0.36287 77.40561,11.76276 152.36521,38.36264 220.71373,76.21587 20.55025,11.91944 41.83437,24.94124 55.59642,44.80105 3.92526,5.17024 4.19675,14.3651 -3.36333,16.20692 -17.38139,7.46998 -37.13739,4.84686 -55.29497,3.89882 -43.07378,-4.49116 -84.17349,-19.62852 -124.67871,-34.36253 -35.95567,-13.59391 -68.92857,-33.39609 -102.81454,-51.31451 -4.92673,-2.14684 -11.82172,2.73418 -8.59213,8.13108 5.88819,8.89892 17.02778,11.93594 25.43633,17.78765 40.98451,23.08756 83.80448,43.32524 129.13917,56.29293 41.00439,13.18894 84.4329,23.54266 127.72192,17.90452 12.07255,-2.08055 26.83709,-7.25397 29.59016,-20.85569 3.14691,-13.93673 -7.4818,-26.02983 -16.05819,-35.65181 -25.84316,-24.83554 -58.14882,-41.61703 -90.12573,-57.1486 -52.19427,-24.0323 -107.3685,-41.55513 -163.57861,-53.32309 -20.24818,-3.99857 -40.8304,-6.73253 -61.5041,-6.60992 z"
         id="path5149"
         inkscape:connector-curvature="0" />
      <path
         style="fill:#ccb974;fill-opacity:1;stroke:none;stroke-width:1;stroke-opacity:1"
         d="m 135.95927,588.28769 c -6.52301,0.5428 -5.73482,9.34377 -11.29895,11.24159 -5.75877,5.58615 0.35825,14.20781 6.74367,15.86272 5.17708,3.47144 8.32958,11.87809 15.48879,10.8039 1.08243,5.16763 6.40969,7.37814 10.29186,9.84568 2.38987,4.85541 7.21139,10.38691 13.17928,7.87188 9.8969,-2.10394 16.37162,-16.7673 7.32159,-23.571 -2.45612,-1.92486 -7.42236,-0.6405 -7.01777,-5.01208 -1.65921,-5.48455 -10.18301,-3.18388 -10.82515,-8.98944 -2.05237,-5.83215 -10.83889,-9.58824 -14.81952,-3.51844 -1.44325,2.6081 0.0552,7.66734 -4.32793,4.37892 -0.96429,-2.318 3.24862,-4.43503 3.27198,-7.10273 2.71667,-5.96138 -1.63612,-11.83916 -8.00785,-11.811 z"
         id="path5147"
         inkscape:connector-curvature="0" />
      <path
         style="fill:#ccb974;fill-opacity:1;stroke:none;stroke-width:1;stroke-opacity:1"
         d="m 159.41767,616.37359 c -6.07608,-0.0958 -9.0001,10.38952 -2.0928,11.62615 6.38806,1.94385 11.90112,-9.10187 4.61689,-11.38394 -0.82253,-0.22277 -1.67572,-0.27459 -2.52409,-0.24221 z"
         id="path5143"
         inkscape:connector-curvature="0" />
      <path
         style="fill:#ccb974;fill-opacity:1;stroke:none;stroke-width:1;stroke-opacity:1"
         d="m 217.41455,592.20769 c -10.69842,0.0609 -25.01945,1.76689 -29.25021,13.38324 -2.49253,12.90117 9.27076,22.45631 17.85756,29.96191 29.89267,23.7959 65.17073,39.93164 100.9922,52.58428 26.55764,8.57744 54.38839,15.90209 82.49957,14.27182 9.45961,-1.49347 21.61157,-4.20644 25.61552,-13.97745 2.72915,-13.80729 -9.53379,-24.57603 -19.04734,-32.42888 -7.87899,-6.21278 -16.08049,-13.76919 -26.16546,-15.5566 -7.59323,1.33637 -6.03768,12.53614 0.0392,14.97428 11.18116,7.7587 24.2339,15.17142 30.51131,27.73354 -1.9546,5.36874 -9.79481,3.61833 -14.22037,4.81024 -26.5497,0.98062 -52.18826,-7.52163 -77.16983,-15.5249 -36.38988,-12.79275 -72.70155,-29.29338 -101.7288,-55.28583 -2.18719,-2.16357 -7.07958,-7.52383 -1.76984,-8.68774 11.67951,-2.6557 24.10799,-0.60344 35.75026,0.86976 18.49921,2.81335 36.50916,8.96515 55.03653,11.62326 6.40446,-0.51251 7.7404,-10.5784 1.33004,-12.38892 -15.85728,-7.46672 -33.5471,-9.74593 -50.51225,-13.51262 -9.82648,-1.71745 -19.78013,-2.8926 -29.76809,-2.84939 z"
         id="path5141"
         inkscape:connector-curvature="0" />
      <path
         style="fill:#ccb974;fill-opacity:1;stroke:none;stroke-width:1;stroke-opacity:1"
         d="m 328.5896,612.55345 c -5.88842,-0.0468 -11.16826,6.76817 -8.19907,12.28692 -5.62253,1.21875 -4.0991,8.53345 -0.0319,10.7869 4.81873,3.21683 10.90149,3.93636 15.33156,7.81664 2.79824,2.26096 7.55577,-0.83613 8.91508,2.96814 3.90861,5.49066 12.17305,5.07176 16.2303,-0.0425 6.89162,-5.50371 6.73305,-18.64898 -2.20327,-21.85639 -3.22295,-1.2136 -7.11338,0.55309 -8.55602,-3.31873 -2.97488,-3.24576 -8.10503,-3.34377 -11.80887,-2.69195 -1.48939,-3.83309 -5.62537,-6.22135 -9.67783,-5.94905 z"
         id="path5137"
         inkscape:connector-curvature="0" />
      <path
         style="fill:#ccb974;fill-opacity:1;stroke:none;stroke-width:1;stroke-opacity:1"
         d="m 353.45451,630.21152 c -6.9343,0.53565 -6.82716,14.25948 1.00497,12.02345 5.42931,-1.58029 5.89263,-12.4879 -1.00497,-12.02345 z"
         id="path5135"
         inkscape:connector-curvature="0" />
      <path
         style="fill:#ccb974;fill-opacity:1;stroke:none;stroke-width:1;stroke-opacity:1"
         d="m 341.54791,625.45014 c -7.48973,-0.78361 -7.8648,11.31576 -0.83712,11.89387 6.54503,0.92534 8.99569,-9.07464 2.97665,-11.43069 -0.67117,-0.2998 -1.40579,-0.45178 -2.13953,-0.46318 z"
         id="path5133"
         inkscape:connector-curvature="0" />
      <path
         style="fill:#ccb974;fill-opacity:1;stroke:none;stroke-width:1;stroke-opacity:1"
         d="m 311.63267,605.22124 c -7.58747,2.10832 -8.1648,11.50466 -10.25149,17.77705 -1.16561,5.13883 3.19943,9.52002 8.23589,9.53975 4.64214,2.12415 13.82189,2.77097 14.16229,-4.24722 0.62141,-4.41485 -7.40014,-4.89853 -4.74649,-9.18916 2.00271,-5.93562 0.8217,-14.6968 -7.4002,-13.88042 z"
         id="path5131"
         inkscape:connector-curvature="0" />
    </g>
  </g>
</svg>
