<?xml version="1.0" encoding="UTF-8" standalone="no"?>
<!-- Created with Inkscape (http://www.inkscape.org/) -->

<svg
   xmlns:dc="http://purl.org/dc/elements/1.1/"
   xmlns:cc="http://creativecommons.org/ns#"
   xmlns:rdf="http://www.w3.org/1999/02/22-rdf-syntax-ns#"
   xmlns:svg="http://www.w3.org/2000/svg"
   xmlns="http://www.w3.org/2000/svg"
   xmlns:sodipodi="http://sodipodi.sourceforge.net/DTD/sodipodi-0.dtd"
   xmlns:inkscape="http://www.inkscape.org/namespaces/inkscape"
   width="500"
   height="500"
   id="svg2"
   version="1.1"
   inkscape:version="0.48.4 r9939"
   inkscape:export-filename="/home/brian/src/cytoflow/cytoflowgui/op_plugins/images/bead_calibration.png"
   inkscape:export-xdpi="5.8299999"
   inkscape:export-ydpi="5.8299999"
   sodipodi:docname="gauss_1d.svg">
  <defs
     id="defs4">
    <clipPath
       clipPathUnits="userSpaceOnUse"
       id="clipPath5006">
      <rect
         style="opacity:1;fill:none;fill-opacity:0.56078384;stroke:#000000;stroke-width:1.25;stroke-linecap:round;stroke-linejoin:round;stroke-miterlimit:0;stroke-dasharray:none;stroke-dashoffset:5.69999981;stroke-opacity:1"
         id="rect5008"
         width="498.74997"
         height="498.75"
         x="0.625"
         y="552.98724" />
    </clipPath>
    <clipPath
       clipPathUnits="userSpaceOnUse"
       id="clipPath5010">
      <rect
         style="opacity:1;fill:none;fill-opacity:0.56078384;stroke:#000000;stroke-width:1.25;stroke-linecap:round;stroke-linejoin:round;stroke-miterlimit:0;stroke-dasharray:none;stroke-dashoffset:5.69999981;stroke-opacity:1"
         id="rect5012"
         width="498.74997"
         height="498.75"
         x="0.625"
         y="552.98724" />
    </clipPath>
  </defs>
  <sodipodi:namedview
     id="base"
     pagecolor="#ffffff"
     bordercolor="#666666"
     borderopacity="1.0"
     inkscape:pageopacity="0.0"
     inkscape:pageshadow="2"
     inkscape:zoom="0.7"
     inkscape:cx="54.265552"
     inkscape:cy="274.18441"
     inkscape:document-units="px"
     inkscape:current-layer="layer1"
     showgrid="false"
     inkscape:window-width="1354"
     inkscape:window-height="940"
     inkscape:window-x="66"
     inkscape:window-y="232"
     inkscape:window-maximized="0"
     showguides="true"
     inkscape:guide-bbox="true" />
  <metadata
     id="metadata7">
    <rdf:RDF>
      <cc:Work
         rdf:about="">
        <dc:format>image/svg+xml</dc:format>
        <dc:type
           rdf:resource="http://purl.org/dc/dcmitype/StillImage" />
        <dc:title />
      </cc:Work>
    </rdf:RDF>
  </metadata>
  <g
     inkscape:label="Layer 1"
     inkscape:groupmode="layer"
     id="layer1"
     transform="translate(0,-552.36218)">
    <path
       style="fill:#000000"
       d="m 1199.7717,1154.332 c -3.3317,-3.063 -7.7773,-6.6749 -9.879,-8.0265 -5.5822,-3.5899 -12.7678,-11.4636 -23.8717,-26.1576 -5.403,-7.15 -12.2794,-15.6832 -15.2807,-18.9626 -6.1377,-6.7064 -9.1005,-12.3688 -9.1762,-17.5374 -0.035,-2.4231 -0.9528,-4.4908 -2.9811,-6.7201 l -2.9299,-3.22 -4.1665,1.47 c -5.2166,1.8406 -17.9264,1.9101 -22.2071,0.1215 -4.0351,-1.686 -14.2504,-12.562 -30.9027,-32.9014 -8.1745,-9.9845 -13.5704,-15.75 -14.7402,-15.75 -1.8914,0 -8.194,-7.2582 -32.5629,-37.50001 -7.0911,-8.8 -15.442,-18.925 -18.5577,-22.5 -6.1826,-7.09412 -8.9446,-11.73365 -8.9446,-15.02488 0,-2.14629 -2.6757,-5.91325 -20.93624,-29.47512 -21.20465,-27.36063 -64.3128,-84.82364 -68.46454,-91.26301 -2.38901,-3.70534 -5.71179,-9.4587 -7.38396,-12.78523 -1.67218,-3.32653 -5.89218,-9.64675 -9.37778,-14.04493 -3.4856,-4.39819 -13.98745,-18.15974 -23.33745,-30.58122 l -17,-22.58451 -5,0.46468 c -8.23265,0.7651 -10.12745,-1.17468 -45.13409,-46.20578 -29.77931,-38.30687 -29.36591,-37.68058 -29.36591,-44.48837 0,-5.06219 2.83659,-8.36491 14.11185,-16.43083 l 8.87468,-6.34863 -5.71432,-7.86608 C 784.2194,615.3891 747.40461,568.48057 735.8804,554.88443 c -3.13134,-3.69432 -5.30897,-7.22808 -5.30897,-8.61515 0,-3.43496 3.05952,-6.79349 11.76582,-12.91569 4.2538,-2.99124 10.56369,-7.97371 14.02198,-11.07216 3.45829,-3.09845 6.90409,-5.63354 7.65733,-5.63354 2.0342,0 8.76742,7.88625 24.12136,28.25206 20.68345,27.43497 49.53455,61.77807 51.85128,61.72152 2.58567,-0.0631 29.38601,-23.962 35.81566,-31.93819 8.09236,-10.03882 16.83525,-27.02489 19.83454,-38.53539 2.9759,-11.42073 3.74015,-35.63025 1.5262,-48.3463 -2.05359,-11.79499 -6.91412,-24.80107 -13.20205,-35.32674 -6.03064,-10.095 -21.1925,-26.21107 -30.4477,-32.36391 -16.19172,-10.76424 -37.97462,-16.56245 -62.44442,-16.62158 -16.14861,-0.039 -26.12665,1.89579 -37.5,7.27151 -10.14455,4.79492 -27.56742,16.27524 -38.12845,25.12372 l -7.62845,6.39143 6.36353,7.93593 c 9.32727,11.63201 9.19124,12.57677 -3.61255,25.09002 -11.8744,11.60496 -17.11794,15.34592 -21.5097,15.34592 -4.25232,0 -6.95939,-2.28409 -13.42967,-11.33126 l -5.38878,-7.53494 -4.85148,0.57458 -4.85148,0.57459 -5.73149,-5.90671 c -11.17177,-11.51331 -33.73601,-38.6476 -34.04231,-40.93706 -0.38748,-2.89626 4.34104,-7.62446 18.81083,-18.80953 30.3757,-23.48026 39.69258,-35.92403 44.0305,-58.80783 2.24483,-11.84217 5.69422,-21.46109 9.47236,-26.41448 4.46522,-5.8542 41.75992,-29.11462 57.99714,-36.17237 20.9019,-9.08533 46.37328,-12.94969 78.5,-11.90953 20.8023,0.6735 32.24854,2.20311 49,6.54804 26.26126,6.81156 50.46912,18.97383 71.86016,36.10326 47.49748,38.03485 79.51141,101.62744 81.81771,162.52324 0.8548,22.56812 -2.031,41.87078 -9.68,64.74816 -9.6913,28.98591 -25.45256,54.62287 -48.14308,78.30859 -5.85486,6.11166 -11.5847,12.95368 -12.73298,15.20448 -2.78371,5.45653 -5.84629,17.15785 -6.68555,25.5438 -0.62959,6.29094 -0.95018,7.00861 -4.24375,9.5 -1.95949,1.48223 -6.14563,5.09374 -9.30252,8.02557 l -5.73981,5.3306 18.01485,22.6694 c 9.90818,12.46817 21.23689,26.83103 25.17492,31.91748 4.75969,6.14773 7.83054,9.25385 9.16005,9.26531 2.82206,0.0243 2.81876,0.0213 16.58177,15.0166 19.5655,21.31717 30.0306,33.82938 62.0767,74.22001 16.4731,20.7625 30.3751,37.75 30.8934,37.75 2.3778,0 10.4278,9.11355 27.2957,30.90188 29.6318,38.27537 31.6524,41.06292 31.6524,43.665 0,1.56849 2.9729,6.08679 8.346,12.68471 11.858,14.5611 24.1977,31.20738 27.7972,37.49862 2.7433,4.7948 3.037,6.0788 2.6786,11.7083 -0.3286,5.1607 -1.0977,7.449 -4.1834,12.4484 l -3.7808,6.1254 3.1552,3.9838 c 1.8384,2.3212 4.01,3.9839 5.2032,3.9839 4.8609,0 8.0534,3.1051 29.2177,28.4184 17.6638,21.1263 24.5663,31.0899 24.5663,35.4603 0,1.0879 1.6316,4.7169 3.6258,8.0646 3.1775,5.3341 3.5676,6.6924 3.155,10.9862 -0.6129,6.3788 -4.9427,12.4347 -15.2906,21.386 -9.3935,8.1258 -21.8684,14.5584 -29.826,15.3797 l -5.4061,0.558 -6.0578,-5.5691 z m 20.6932,-2.8007 c 12.831,-5.8453 28.553,-19.6461 31.0703,-27.2737 0.9807,-2.9714 0.8514,-4.0517 -0.8944,-7.4737 -1.1224,-2.2002 -2.4482,-4.2521 -2.9462,-4.5599 -0.498,-0.3077 -2.6135,1.3492 -4.7012,3.6822 -2.0878,2.3329 -9.1845,9.3586 -15.7705,15.6125 -11.901,11.301 -19.1804,16.0683 -24.6515,16.1444 -2.3854,0.033 -2.3058,0.218 1.7356,4.0325 4.8701,4.5965 5.7265,4.5878 16.1579,-0.1643 z m -16.8935,2.739 c 0,-0.2076 -0.7875,-0.9951 -1.75,-1.75 -1.586,-1.2438 -1.6214,-1.2085 -0.3775,0.3776 1.3063,1.6657 2.1275,2.1955 2.1275,1.3724 z m 4.5903,-13.5914 c 4.3323,-2.1766 9.9802,-6.9777 21.1597,-17.9878 17.2407,-16.9792 17.3831,-17.28 12.1211,-25.5974 -4.6839,-7.4038 -32.4429,-41.4482 -33.7925,-41.444 -0.3182,10e-4 -1.8079,1.9477 -3.3103,4.326 -8.2298,13.0274 -23.8511,27.6263 -38.9455,36.3968 -7.0466,4.0944 -7.7363,4.7567 -6.5961,6.3341 4.1152,5.6934 23.1902,30.0286 25.9687,33.1301 7.4666,8.3345 13.8243,9.6504 23.3949,4.8422 z m 37.9726,-4.281 2.9371,-3.25 -3.25,2.9371 c -3.0294,2.7378 -3.7096,3.5629 -2.9371,3.5629 0.1721,0 1.6346,-1.4625 3.25,-3.25 z m -25.4353,-1.5 c 1.2439,-1.5861 1.2085,-1.6214 -0.3776,-0.3776 -0.9625,0.7549 -1.75,1.5424 -1.75,1.75 0,0.8231 0.8212,0.2933 2.1276,-1.3724 z m 4,-4 c 1.2439,-1.5861 1.2085,-1.6214 -0.3776,-0.3776 -0.9625,0.7549 -1.75,1.5424 -1.75,1.75 0,0.8231 0.8212,0.2933 2.1276,-1.3724 z m -61.7888,-38.6895 c 14.4839,-8.254 27.6976,-20.5906 37.3468,-34.8675 l 4.1855,-6.193 -2.1098,-2.25 c -1.1605,-1.2375 -2.3791,-2.25 -2.7082,-2.25 -0.329,0 -1.4881,1.6525 -2.5757,3.6722 -2.336,4.3381 -24.6437,25.1834 -31.9134,29.8213 -2.7852,1.7769 -7.8765,4.2531 -11.314,5.5026 -3.4375,1.2495 -6.25,2.6916 -6.25,3.2046 0,1.5263 5.1418,7.7993 6.3929,7.7993 0.6356,0 4.6612,-1.9978 8.9459,-4.4395 z m -5.7138,-13.0483 c 7.3253,-3.0607 28.0194,-22.1941 33.4355,-30.9141 l 1.8025,-2.9019 -3.9947,-4.7374 -3.9947,-4.7375 -7.1603,7.0615 c -6.7678,6.6744 -24.7595,20.6546 -32.9633,25.6135 -2.0625,1.2468 -3.75,2.61 -3.75,3.0294 0,0.4195 1.8888,2.6328 4.1974,4.9185 4.5836,4.5383 6.8083,5.0159 12.4276,2.668 z m 30.5026,-2.2622 c 1.2439,-1.5861 1.2085,-1.6214 -0.3776,-0.3776 -0.9625,0.7549 -1.75,1.5424 -1.75,1.75 0,0.8231 0.8212,0.2933 2.1276,-1.3724 z m -66,-4 c 1.2439,-1.5861 1.2085,-1.6214 -0.3776,-0.3776 -0.9625,0.7549 -1.75,1.5424 -1.75,1.75 0,0.8231 0.8212,0.2933 2.1276,-1.3724 z m 2.7894,-4.8649 c 3.6207,-1.9881 10.633,-6.3323 15.583,-9.6536 30.3441,-20.36 50.5,-40.1672 50.5,-49.6262 0,-3.2956 -6.1097,-12.15857 -24.7241,-35.86533 l -10.4117,-13.26001 -3.8211,5.08541 c -2.1016,2.79698 -6.3558,7.9546 -9.4537,11.46137 -13.8447,15.67194 -46.8979,39.13186 -66.1687,46.96416 l -5.302,2.1549 12.1584,14.9271 c 6.6871,8.2099 15.7854,18.6396 20.2184,23.1771 9.642,9.8694 11.2541,10.2182 21.4215,4.6351 z m -18.917,1.2699 c 0,-0.1898 -1.0125,-1.2023 -2.25,-2.25 l -2.25,-1.905 1.905,2.25 c 1.7902,2.1144 2.595,2.7052 2.595,1.905 z m 46.1685,-11.6445 c 5.0419,-3.5692 11.2291,-8.4495 13.7493,-10.8451 3.6996,-3.5166 2.945,-3.1183 -3.9178,2.0682 -4.675,3.533 -12.775,9.2761 -18,12.7624 -5.225,3.4863 -9.95,6.7868 -10.5,7.3345 -2.2341,2.2247 10.1008,-5.2548 18.6685,-11.32 z m 25.8315,9.4895 c 1.2918,-1.375 2.1237,-2.5 1.8487,-2.5 -0.275,0 -1.5569,1.125 -2.8487,2.5 -1.2917,1.375 -2.1236,2.5 -1.8486,2.5 0.275,0 1.5569,-1.125 2.8486,-2.5 z m 17.3145,-18.4552 c 0.9892,-1.6746 1.3232,-3.0448 0.7421,-3.0448 -0.5811,0 -1.0566,0.594 -1.0566,1.32 0,0.726 -1.6602,3.3135 -3.6893,5.75 -2.9466,3.5381 -3.096,3.8854 -0.7421,1.7249 1.621,-1.4879 3.7566,-4.0754 4.7459,-5.7501 z m 16.6855,6.5776 c 0,-0.2076 -0.7875,-0.9951 -1.75,-1.75 -1.586,-1.2438 -1.6214,-1.2085 -0.3775,0.3776 1.3063,1.6657 2.1275,2.1955 2.1275,1.3724 z m -7,-8 c 0,-0.2076 -0.7875,-0.9951 -1.75,-1.75 -1.586,-1.2438 -1.6214,-1.2085 -0.3775,0.3776 1.3063,1.6657 2.1275,2.1955 2.1275,1.3724 z m -29.5,-8.6224 c 2.1483,-2.2 3.6809,-4 3.4059,-4 -0.275,0 -2.2576,1.8 -4.4059,4 -2.1482,2.2 -3.6809,4 -3.4059,4 0.275,0 2.2577,-1.8 4.4059,-4 z m 5.0629,-8.25 2.9371,-3.25 -3.25,2.9371 c -3.0294,2.7378 -3.7096,3.5629 -2.9371,3.5629 0.1721,0 1.6346,-1.4625 3.25,-3.25 z m -100.3827,-14.2267 c 12.9483,-6.4257 35.4884,-21.72021 46.8198,-31.76945 15.4599,-13.71055 26.9006,-28.34119 25.5325,-32.65169 -0.342,-1.07746 -2.7392,-4.6332 -5.3271,-7.90165 -2.588,-3.26845 -13.2554,-17.11275 -23.7054,-30.7651 -19.3376,-25.26358 -24.6141,-31.4523 -26.7833,-31.41385 -0.6692,0.0119 -2.9198,2.39981 -5.0013,5.30657 -11.7851,16.45689 -45.799,43.27925 -73.2154,57.7354 -5.5,2.90005 -10.1251,5.35973 -10.278,5.46595 -1.075,0.74692 2.923,6.90808 9.5692,14.74661 4.3014,5.07315 16.5397,19.95704 27.1961,33.07531 22.473,27.6646 19.3323,26.0429 35.1929,18.1719 z m 112.8198,-0.5233 c 0,-0.55 -0.1984,-1 -0.4409,-1 -0.2426,0 -0.7191,0.45 -1.0591,1 -0.3399,0.55 -0.1414,1 0.441,1 0.5825,0 1.059,-0.45 1.059,-1 z m -54.8724,-37.75001 c 1.2439,-1.58606 1.2085,-1.62143 -0.3776,-0.37756 -0.9625,0.75485 -1.75,1.54235 -1.75,1.75 0,0.82304 0.8212,0.29331 2.1276,-1.37244 z m -117.3818,-39.90166 c 22.6067,-13.01508 40.3413,-26.30877 55.7542,-41.79291 6.6,-6.63049 12.7781,-13.45886 13.729,-15.17417 l 1.729,-3.11874 -22.508,-28.38126 c -29.5516,-37.26286 -43.507,-54.36646 -53.4966,-65.56512 -7.1861,-8.05587 -8.4191,-9.04221 -10.0391,-8.03055 -1.5398,0.96164 -2.3924,0.65982 -5.1305,-1.81614 l -3.28377,-2.96945 2.75,3.05472 c 1.51247,1.68009 2.74997,3.59259 2.74997,4.25 0,3.0691 -4.2594,0.47627 -11.99997,-7.30472 -4.65071,-4.675 -8.88929,-8.5 -9.41905,-8.5 -0.52977,0 -0.28247,0.5625 0.54954,1.25 0.83202,0.6875 4.14702,4.0735 7.36668,7.52445 4.55442,4.8816 5.58742,6.54096 4.65342,7.47496 -0.93401,0.93401 -1.69444,0.90247 -3.42555,-0.14206 -1.78337,-1.07607 -1.97691,-1.08103 -0.97504,-0.025 0.6875,0.72468 1.25,2.12761 1.25,3.11761 0,3.72842 -3.87875,1.70444 -10.02993,-5.23376 -3.42974,-3.86856 -6.45653,-6.81311 -6.7262,-6.54344 -0.26967,0.26967 2.08987,3.32236 5.24342,6.78375 7.05602,7.74482 8.87343,10.40078 8.03989,11.74947 -1.38,2.23288 -3.5464,0.7518 -10.11743,-6.91687 -3.75176,-4.37847 -6.99581,-7.78642 -7.209,-7.57323 -0.21319,0.21319 2.98089,4.33526 7.09795,9.16016 7.11626,8.33973 8.60082,11.85695 4.71754,11.17679 -0.95106,-0.16658 -4.91804,-4.01406 -8.81551,-8.54995 -3.89747,-4.53589 -7.29771,-7.90502 -7.55609,-7.48696 -0.25838,0.41807 1.85338,3.51269 4.69279,6.87695 15.23595,18.05221 19.66257,23.78953 19.66257,25.48458 0,4.58955 -4.06307,1.15827 -16,-13.51208 -12.79503,-15.72494 -18.08876,-20.07879 -6.96551,-5.72881 3.39609,4.38126 5.87609,8.44912 5.51109,9.03968 -1.54555,2.50077 -4.40228,0.52001 -10.01646,-6.94509 -3.64079,-4.84111 -6.33043,-7.57984 -6.89223,-7.01804 -0.5618,0.5618 1.86585,4.07919 6.22088,9.01336 3.92823,4.4506 7.14223,8.54073 7.14223,9.08915 0,0.54843 -0.74299,1.28226 -1.65108,1.63073 -1.64311,0.63052 -2.83841,-0.45917 -12.67666,-11.55657 -5.9184,-6.67587 -5.51159,-4.12082 0.71961,4.51966 5.79013,8.02887 6.92256,11.35276 3.85813,11.32432 -1.40834,-0.0131 -7.53137,-7.54052 -12.3882,-15.22963 -0.351,-0.5557 -1.13718,-0.70197 -1.74706,-0.32504 -0.70836,0.43779 0.89811,3.39914 4.44785,8.1991 5.31191,7.18277 6.34336,10.23798 3.74811,11.10204 -0.65412,0.21779 -3.80412,-3.22073 -7,-7.64114 -3.19589,-4.42042 -6.19634,-8.04881 -6.66769,-8.0631 -1.55336,-0.0471 0.11269,2.64549 11.29456,18.25376 6.08434,8.49286 11.06243,16.17927 11.06243,17.08091 0,0.91498 -0.79933,1.63934 -1.80901,1.63934 -1.19642,0 -5.79696,-5.58738 -13.58576,-16.5 -6.47721,-9.075 -12.1616,-16.5 -12.63197,-16.5 -2.57924,0 -1.5888,3.02884 3.4822,10.64881 3.11366,4.67878 5.52246,9.22206 5.35287,10.09617 -0.71568,3.68894 -3.06089,1.83275 -9.10618,-7.20734 -5.34564,-7.99385 -6.61539,-9.34711 -7.62681,-8.12842 -0.99199,1.19527 -0.0917,3.13041 4.9331,10.60333 5.81593,8.64953 6.83369,11.98745 3.65508,11.98745 -0.76959,0 -4.21818,-4.275 -7.66352,-9.5 -3.44534,-5.225 -6.5423,-9.49311 -6.88213,-9.48469 -0.33983,0.008 -1.23957,0.40907 -1.99942,0.89032 -1.07241,0.67921 1.36188,4.91467 10.87872,18.92807 11.34646,16.7075 13.47527,21.1663 10.10564,21.1663 -1.63874,0 -3.25573,-2.13773 -14.99971,-19.83031 -6.2683,-9.44333 -11.76667,-17.16969 -12.2186,-17.16969 -1.07994,0 5.19968,10.68125 11.46426,19.5 6.14675,8.65287 42.87733,57.22729 60.11563,79.5 7.02374,9.075 15.08009,19.55667 17.90298,23.29261 6.0891,8.05837 5.4812,8.05662 19.3784,0.0557 z m 54.8171,-36.59834 2.9371,-3.25 -3.25,2.93709 c -3.0294,2.73778 -3.7096,3.56291 -2.9371,3.56291 0.1721,0 1.6346,-1.4625 3.25,-3.25 z m 8.4371,-8.25 c 1.2918,-1.375 2.1237,-2.5 1.8487,-2.5 -0.275,0 -1.5569,1.125 -2.8487,2.5 -1.2917,1.375 -2.1236,2.5 -1.8486,2.5 0.275,0 1.5569,-1.125 2.8486,-2.5 z M 918.82487,806.257 c 8.81748,-5.02486 24.8755,-16.30979 34.01435,-23.90392 7.65924,-6.36462 29.73221,-27.69869 29.73221,-28.73691 0,-0.41565 -4.40203,-6.31605 -9.7823,-13.11201 -7.23215,-9.13512 -37.08698,-47.14141 -39.85932,-50.74238 -0.16349,-0.21236 -4.24851,3.19387 -9.07782,7.5694 -23.85019,21.60914 -40.52557,35.18535 -55.03056,44.80298 -3.9875,2.64394 -7.25,5.27604 -7.25,5.84911 0,2.29081 46.53739,62.66462 48.3032,62.66462 0.68487,0 4.71249,-1.9759 8.95024,-4.39089 z m 17.87412,-8.35911 c 1.24387,-1.58606 1.2085,-1.62143 -0.37756,-0.37756 -0.9625,0.75485 -1.75,1.54235 -1.75,1.75 0,0.82304 0.82119,0.29331 2.12756,-1.37244 z m 82.87241,-13.59501 c 0,-0.18976 -1.0125,-1.20226 -2.25,-2.25 l -2.25,-1.90499 1.905,2.25 c 1.7902,2.11444 2.595,2.70524 2.595,1.90499 z m -30.99997,-3.03255 c 0,-0.20765 -0.7875,-0.99515 -1.75,-1.75 -1.58606,-1.24387 -1.62143,-1.2085 -0.37756,0.37756 1.30637,1.66575 2.12756,2.19548 2.12756,1.37244 z m -10,-2 c 0,-0.20765 -0.7875,-0.99515 -1.75,-1.75 -1.58606,-1.24387 -1.62143,-1.2085 -0.37756,0.37756 1.30637,1.66575 2.12756,2.19548 2.12756,1.37244 z m 9,-2.91949 c 0,-0.16338 -1.9125,-2.07588 -4.25,-4.25 l -4.25,-3.95295 3.95295,4.25 c 3.6762,3.95246 4.54705,4.70953 4.54705,3.95295 z m 12,-0.048 c 0,-0.18976 -1.0125,-1.20226 -2.25,-2.25 l -2.25,-1.90495 1.90499,2.25 c 1.79022,2.11444 2.59501,2.70524 2.59501,1.90499 z m 3.99997,-1.98068 c 0,-0.17912 -1.2375,-1.41662 -2.75,-2.75 l -2.74997,-2.42427 2.42427,2.75 c 2.2659,2.57029 3.0757,3.20859 3.0757,2.42431 z m 7,-0.0519 c 0,-0.20765 -0.7875,-0.99515 -1.75,-1.75 -1.586,-1.24387 -1.6214,-1.2085 -0.3775,0.37756 1.3063,1.66575 2.1275,2.19548 2.1275,1.37244 z m -21.99997,-9.12237 c -3.54322,-3.575 -6.7434,-6.5 -7.11151,-6.5 -0.73391,0 12.31969,12.95342 13.08262,12.98222 0.25911,0.01 -2.42789,-2.90722 -5.97111,-6.48222 z m 14.99997,5.2187 c 0,-0.15472 -2.8125,-2.96722 -6.24997,-6.25 l -6.25,-5.9687 5.9687,6.25 c 5.54437,5.80572 6.53127,6.7076 6.53127,5.9687 z m -12.99997,-14.2187 c -0.68469,-0.825 -1.7258,-1.5 -2.31357,-1.5 -0.58778,0 -0.19518,0.66069 0.87244,1.4682 2.50847,1.89731 2.99833,1.90812 1.44113,0.0318 z M 859.7563,742.31767 c 18.52143,-11.62811 46.88544,-34.86106 69.31513,-56.776 6.05,-5.91116 13.3625,-12.61874 16.25,-14.90573 4.4481,-3.52305 5.25,-4.66636 5.25,-7.48515 0,-5.67883 2.68168,-17.6871 5.54976,-24.85125 2.31495,-5.78245 4.46995,-8.66186 13.84595,-18.5002 18.2431,-19.1427 27.83899,-32.73862 38.57256,-54.65145 10.7617,-21.97026 16.6681,-42.64291 19.0895,-66.81424 2.4753,-24.7088 -3.2522,-58.05326 -15.0646,-87.70293 -29.11686,-73.08471 -87.7517,-121.0574 -159.45088,-130.45634 -41.16709,-5.39653 -81.36431,-0.29999 -107.54229,13.63511 -12.76581,6.79552 -37.84136,22.11884 -43.65455,26.67668 -7.22362,5.66371 -10.64795,12.89069 -13.89963,29.33499 -2.8955,14.643 -6.86738,23.45102 -15.43911,34.23763 -5.39613,6.79046 -12.22092,12.79137 -38.43239,33.79288 -4.35913,3.49267 -8.08686,6.83384 -8.28385,7.42481 -0.19699,0.59098 1.24541,2.8288 3.20534,4.97295 1.95992,2.14415 7.93766,9.07328 13.28385,15.39805 5.34619,6.32478 12.28854,14.13998 15.42744,17.36711 l 5.70711,5.86751 2.94607,-1.86711 c 1.62035,-1.0269 6.92715,-5.41167 11.7929,-9.74392 12.20981,-10.87108 49.95522,-40.94757 61.46364,-48.97576 8.13729,-5.67652 22.19921,-12.71753 30.88318,-15.46366 11.50128,-3.63705 18.20767,-4.56604 32.5,-4.50203 11.88383,0.0532 15.49397,0.46467 23.88369,2.72198 24.4399,6.5757 46.9678,21.98964 62.75049,42.93485 15.22908,20.21051 22.30204,43.44366 22.27283,73.16144 -0.0172,17.47264 -1.0335,23.4098 -6.381,37.27634 -3.27703,8.49763 -9.86039,18.99877 -17.34746,27.67101 -7.55774,8.7541 -51.27197,44.69701 -81.17855,66.747 -27.37876,20.18624 -27.80251,20.70461 -22.95617,28.08247 3.85845,5.87392 25.8961,34.51796 44.12994,57.35908 13.02929,16.32149 19.70344,23.27054 22.42364,23.34725 0.32857,0.009 4.41793,-2.38175 9.08746,-5.31337 z m 77.8384,-155.1857 c -12.1128,-15.13375 -22.02327,-27.76612 -22.02327,-28.07193 0,-0.3058 1.13774,-2.49741 2.52831,-4.87024 1.39057,-2.37283 3.89854,-8.06876 5.57327,-12.65764 17.89499,-49.03342 7.09243,-99.36237 -28.75295,-133.95961 -9.67045,-9.33371 -17.57882,-14.73292 -30.71847,-20.97214 -20.32859,-9.65279 -41.22233,-13.69761 -64.13016,-12.41495 -24.64636,1.38 -29.47352,1.16731 -34.23425,-1.50836 -2.46773,-1.38695 -5.60414,-4.47143 -7.59384,-7.46814 -1.86434,-2.80791 -10.46692,-14.0469 -19.11682,-24.97553 -8.64991,-10.92864 -15.90868,-20.36869 -16.1306,-20.97789 -0.71544,-1.96403 0.89297,-3.23523 11.07803,-8.75558 33.80264,-18.32117 64.52238,-26.81303 96.99748,-26.81303 40.01562,0 77.56765,13.16701 114,39.97223 17.24071,12.68491 30.85655,27.30216 43.7696,46.98873 32.83077,50.0521 40.45467,110.26762 21.31937,168.38627 -8.6865,26.38294 -21.70844,48.62778 -38.55723,65.86551 -5.24245,5.36347 -10.08377,9.75097 -10.75847,9.75 -0.67471,-9.8e-4 -11.13721,-12.38394 -23.25,-27.5177 z m 46.83967,-5.41458 c 17.67563,-26.49721 28.38853,-58.55009 31.26933,-93.55771 3.5142,-42.70468 -10.6385,-88.83211 -38.70349,-126.14508 -24.08374,-32.01983 -63.44085,-57.97566 -103.59218,-68.31853 -16.67236,-4.29475 -25.56011,-5.40793 -42.8366,-5.36519 -30.66804,0.0759 -60.44592,8.12485 -91.28146,24.67349 l -10.78147,5.78613 1.78147,2.33132 c 0.9798,1.28223 7.21964,9.23764 13.86631,17.6787 6.64667,8.44105 14.42327,18.57963 17.28135,22.53016 6.6018,9.12526 8.64115,9.91479 22.56,8.73408 17.24524,-1.46288 35.88517,-0.88859 48.30934,1.48841 12.32495,2.35801 28.27585,7.56348 37.69857,12.30266 26.92162,13.54031 49.5214,39.50313 59.70063,68.58457 10.48011,29.94106 8.52707,69.77869 -4.82555,98.43036 -2.49779,5.35967 -3.30095,8.11367 -2.62471,9 0.53591,0.70242 9.48345,12.00304 19.8834,25.11249 l 18.909,23.83536 8.5476,-8.83536 c 4.70117,-4.85945 11.37848,-13.07908 14.83846,-18.26586 z m -17.86294,-46.02128 c -10.69732,-2.11096 -18,-11.60054 -18,-23.39037 0,-10.1288 4.5249,-18.537 12.48673,-23.20294 12.73992,-7.46609 27.98963,-1.69343 32.99365,12.48949 6.41619,18.18537 -9.30134,37.69118 -27.48038,34.10382 z m 11.50796,-5.61902 c 1.82061,-0.86394 4.056,-2.39488 4.96752,-3.4021 1.57423,-1.73951 0.97346,-2.42518 -11.98534,-13.6792 -7.50345,-6.51635 -14.03692,-11.99077 -14.51883,-12.16538 -0.48191,-0.17462 -1.61605,2.2275 -2.52031,5.33803 -1.36462,4.69415 -1.44492,6.44798 -0.47235,10.31748 2.97092,11.82027 14.63815,18.28483 24.52931,13.59117 z m -19.50796,-0.80676 c 0,-0.20765 -0.7875,-0.99515 -1.75,-1.75 -1.58606,-1.24387 -1.62143,-1.2085 -0.37756,0.37756 1.30637,1.66575 2.12756,2.19548 2.12756,1.37244 z m 30.83948,-11.16949 c 1.81559,-3.98478 1.427,-13.013 -0.74216,-17.24279 -3.59413,-7.00842 -8.77098,-10.22375 -16.41242,-10.19371 -4.02481,0.0158 -11.87537,3.47739 -12.08783,5.32993 -0.097,0.84571 26.37736,24.55283 27.49241,24.61876 0.32422,0.0192 1.11172,-1.11131 1.75,-2.51219 z m -12.83948,-3.83051 c 0,-0.20765 -0.7875,-0.99515 -1.75,-1.75 -1.58606,-1.24387 -1.62143,-1.2085 -0.37756,0.37756 1.30637,1.66575 2.12756,2.19548 2.12756,1.37244 z m -7,-6 c 0,-0.20765 -0.7875,-0.99515 -1.75,-1.75 -1.58606,-1.24387 -1.62143,-1.2085 -0.37756,0.37756 1.30637,1.66575 2.12756,2.19548 2.12756,1.37244 z m 19,-13 c 0,-0.20765 -0.7875,-0.99515 -1.75,-1.75 -1.58606,-1.24387 -1.62143,-1.2085 -0.37756,0.37756 1.30637,1.66575 2.12756,2.19548 2.12756,1.37244 z M 820.56496,353.77342 c -10.72118,-3.51734 -17.96876,-12.58672 -17.98795,-22.50951 -0.0182,-9.39034 7.59684,-19.2326 17.05308,-22.0408 6.61436,-1.96425 10.21012,-1.98154 16.61379,-0.0799 7.19798,2.13757 13.55208,8.04424 15.65365,14.55138 1.97239,6.10714 2.03676,7.62656 0.56992,13.45191 -1.36367,5.41565 -6.75622,11.87857 -12.25347,14.68567 -4.48699,2.29122 -15.31997,3.36146 -19.64902,1.9412 z m 15.64538,-5.20726 c 3.47659,-1.27479 9.55503,-7.13819 11.01005,-10.62053 1.62192,-3.88182 1.73921,-9.13794 0.28971,-12.98264 -1.20299,-3.19083 -6.75791,-9.3151 -8.4491,-9.3151 -0.86858,0 -17.48957,31.82128 -17.48957,33.48419 0,1.41892 10.3132,1.02022 14.63891,-0.56592 z m -2.63891,-35.56484 c 0,-0.19438 -2.49735,-0.35343 -5.54966,-0.35343 -11.41651,0 -20.45034,8.17938 -20.45034,18.51608 0,5.48209 1.02651,7.7185 5.86586,12.77967 l 3.62938,3.79575 8.25238,-17.19231 c 4.53881,-9.45578 8.25238,-17.35137 8.25238,-17.54576 z m 17.69299,16.9156 c -0.25354,-0.97297 -0.47766,-0.41903 -0.49804,1.23097 -0.0204,1.65 0.18706,2.44606 0.46099,1.76903 0.27392,-0.67703 0.29059,-2.02703 0.0371,-3 z m -3.69299,-10.59472 c 0,-0.17912 -1.2375,-1.41662 -2.75,-2.75 l -2.75,-2.42431 2.42431,2.75 c 2.26589,2.57029 3.07569,3.20859 3.07569,2.42431 z m -18.25,-9.36364 c -0.9625,-0.25152 -2.5375,-0.25152 -3.5,0 -0.9625,0.25153 -0.175,0.45733 1.75,0.45733 1.925,0 2.7125,-0.2058 1.75,-0.45733 z m 104.93311,193.50183 c -0.31922,-0.79773 -0.55618,-0.56078 -0.60416,0.60417 -0.0434,1.05416 0.19293,1.64479 0.52522,1.3125 0.33229,-0.33229 0.36781,-1.1948 0.0789,-1.91667 z m 83.99996,-16 c -0.3192,-0.79773 -0.5561,-0.56078 -0.6041,0.60417 -0.043,1.05416 0.1929,1.64479 0.5252,1.3125 0.3323,-0.3323 0.3678,-1.1948 0.079,-1.91667 z m 0,-25 c -0.3192,-0.79773 -0.5561,-0.56078 -0.6041,0.60417 -0.043,1.05416 0.1929,1.64479 0.5252,1.3125 0.3323,-0.3323 0.3678,-1.1948 0.079,-1.91667 z M 905.57143,414.27033 c 0,-0.20765 -0.7875,-0.99515 -1.75,-1.75 -1.58606,-1.24387 -1.62143,-1.2085 -0.37756,0.37756 1.30637,1.66575 2.12756,2.19548 2.12756,1.37244 z M 783.3006,373.04372 c -0.3323,-0.33229 -1.1948,-0.36781 -1.91667,-0.0789 -0.79773,0.31922 -0.56078,0.55618 0.60417,0.60416 1.05416,0.0434 1.64479,-0.19292 1.3125,-0.52522 z m 23.99853,-2.12563 c -2.07477,-0.21647 -5.22477,-0.21284 -7,0.008 -1.77524,0.22091 -0.0777,0.39803 3.7723,0.39359 3.85,-0.004 5.30246,-0.18518 3.2277,-0.40166 z m 159.2723,-25.64776 c 0,-0.20765 -0.7875,-0.99515 -1.75,-1.75 -1.58606,-1.24387 -1.62143,-1.2085 -0.37756,0.37756 1.30637,1.66575 2.12756,2.19548 2.12756,1.37244 z m -6,-6 c 0,-0.20765 -0.7875,-0.99515 -1.75,-1.75 -1.58606,-1.24387 -1.62143,-1.2085 -0.37756,0.37756 1.30637,1.66575 2.12756,2.19548 2.12756,1.37244 z M 821.3006,286.04372 c -0.3323,-0.33229 -1.1948,-0.36782 -1.91667,-0.079 -0.79773,0.31923 -0.56078,0.55619 0.60417,0.60417 1.05416,0.0434 1.64479,-0.19293 1.3125,-0.52522 z m 22,0 c -0.33229,-0.33229 -1.1948,-0.36782 -1.91667,-0.079 -0.79773,0.31923 -0.56078,0.55619 0.60417,0.60417 1.05416,0.0434 1.64479,-0.19293 1.3125,-0.52522 z m 58.39839,427.85417 c 1.24387,-1.58606 1.2085,-1.62143 -0.37756,-0.37756 -0.9625,0.75485 -1.75,1.54235 -1.75,1.75 0,0.82304 0.82119,0.29331 2.12756,-1.37244 z m 7,-6 c 1.24387,-1.58606 1.2085,-1.62143 -0.37756,-0.37756 -1.66575,1.30637 -2.19548,2.12756 -1.37244,2.12756 0.20765,0 0.99515,-0.7875 1.75,-1.75 z m 8.37244,-7.25 c 0.99549,-1.1 1.58498,-2 1.30998,-2 -0.275,0 -1.31449,0.9 -2.30998,2 -0.99549,1.1 -1.58498,2 -1.30998,2 0.275,0 1.31449,-0.9 2.30998,-2 z m 12.5,-11.5 c 1.29175,-1.375 2.12363,-2.5 1.84863,-2.5 -0.275,0 -1.55688,1.125 -2.84863,2.5 -1.29175,1.375 -2.12363,2.5 -1.84863,2.5 0.275,0 1.55688,-1.125 2.84863,-2.5 z m 6.12756,-6.25 c 1.24387,-1.58606 1.2085,-1.62143 -0.37756,-0.37756 -1.66575,1.30637 -2.19548,2.12756 -1.37244,2.12756 0.20765,0 0.99515,-0.7875 1.75,-1.75 z m 15,-13 c 1.24387,-1.58606 1.2085,-1.62143 -0.37756,-0.37756 -1.66575,1.30637 -2.19548,2.12756 -1.37244,2.12756 0.20765,0 0.99515,-0.7875 1.75,-1.75 z m -167.12756,-15.75 c 1.29175,-1.375 2.12363,-2.5 1.84863,-2.5 -0.275,0 -1.55688,1.125 -2.84863,2.5 -1.29175,1.375 -2.12363,2.5 -1.84863,2.5 0.275,0 1.55688,-1.125 2.84863,-2.5 z M 820.66822,622.605 c 8.16171,-6.30141 14.85381,-11.72467 14.87134,-12.05169 0.0175,-0.32702 -4.53065,-5.72702 -10.10707,-12 -13.86718,-15.59937 -24.23777,-28.35589 -39.35183,-48.40542 -7.04837,-9.35 -14.94205,-19.56183 -17.5415,-22.69296 l -4.72627,-5.69296 -2.37073,2.55144 c -1.3039,1.40329 -7.46191,6.36555 -13.68446,11.02724 -6.22255,4.66169 -11.54109,9.06831 -11.81898,9.79248 -0.27789,0.72417 5.95657,9.34874 13.85436,19.16572 18.97323,23.58378 45.31579,57.4107 50.29624,64.58623 2.19016,3.15545 4.37751,5.61115 4.86077,5.45711 0.48327,-0.15404 7.55643,-5.43578 15.71813,-11.73719 z m 148.90321,1.54289 c 2.98742,-3.025 5.20668,-5.5 4.93168,-5.5 -0.275,0 -2.94426,2.475 -5.93168,5.5 -2.98742,3.025 -5.20668,5.5 -4.93168,5.5 0.275,0 2.94426,-2.475 5.93168,-5.5 z m -138,-22.87756 c 0,-0.20765 -0.7875,-0.99515 -1.75,-1.75 -1.58606,-1.24387 -1.62143,-1.2085 -0.37756,0.37756 1.30637,1.66575 2.12756,2.19548 2.12756,1.37244 z m -8,-9 c 0,-0.20765 -0.7875,-0.99515 -1.75,-1.75 -1.58606,-1.24387 -1.62143,-1.2085 -0.37756,0.37756 1.30637,1.66575 2.12756,2.19548 2.12756,1.37244 z m 45.5,-5.62244 c 0.99549,-1.1 1.58498,-2 1.30998,-2 -0.275,0 -1.31449,0.9 -2.30998,2 -0.99549,1.1 -1.58498,2 -1.30998,2 0.275,0 1.31449,-0.9 2.30998,-2 z m 9.5,-8.5 c 0.69443,-0.83674 0.80272,-1.5 0.24489,-1.5 -0.55,0 -1.5602,0.675 -2.24489,1.5 -0.69443,0.83674 -0.80272,1.5 -0.24489,1.5 0.55,0 1.5602,-0.675 2.24489,-1.5 z m 19.60315,-28.76291 c 4.35519,-8.48878 8.35249,-22.16556 9.38308,-32.10427 2.16,-20.83037 -3.63646,-50.58595 -13.15477,-67.52881 -7.77808,-13.84519 -21.4449,-28.86112 -34.97994,-38.43295 -8.25472,-5.83764 -22.94669,-12.85405 -32.85152,-15.68881 -9.63875,-2.75862 -28.09047,-3.72074 -38.74966,-2.02052 -8.50071,1.35593 -24.30687,6.18271 -28.25034,8.62689 -1.76964,1.09684 -1.91571,1.36322 -0.5,0.91182 9.98816,-3.1847 15.94703,-3.91118 32,-3.90133 18.50591,0.0114 28.35281,1.42343 42.20981,6.05297 16.28201,5.43973 27.0128,12.20664 38.83494,24.4896 16.23591,16.86876 24.01555,31.31862 29.08412,54.02069 2.04656,9.16651 2.35185,37.51472 0.49902,46.33763 -1.50876,7.1845 -5.71864,20.72718 -7.75883,24.95926 -1.37223,2.84648 -1.36186,2.91297 0.1623,1.04074 0.8955,-1.1 2.7278,-4.14331 4.07179,-6.76291 z m -162.10315,-7.73709 c 0.99549,-1.1 1.58498,-2 1.30998,-2 -0.275,0 -1.31449,0.9 -2.30998,2 -0.99549,1.1 -1.58498,2 -1.30998,2 0.275,0 1.31449,-0.9 2.30998,-2 z m 23.62756,-18.75 c 1.24387,-1.58606 1.2085,-1.62143 -0.37756,-0.37756 -1.66575,1.30637 -2.19548,2.12756 -1.37244,2.12756 0.20765,0 0.99515,-0.7875 1.75,-1.75 z m 141.60091,-18 c -0.21575,-2.0625 -0.39226,-0.375 -0.39226,3.75 0,4.125 0.17651,5.8125 0.39226,3.75 0.21574,-2.0625 0.21574,-5.4375 0,-7.5 z m 8.95464,-5.4375 c -0.31922,-0.79773 -0.55618,-0.56078 -0.60416,0.60417 -0.0434,1.05416 0.19293,1.64479 0.52522,1.3125 0.33229,-0.3323 0.36781,-1.1948 0.0789,-1.91667 z m 119.99996,-3 c -0.3192,-0.79773 -0.5561,-0.56078 -0.6041,0.60417 -0.043,1.05416 0.1929,1.64479 0.5252,1.3125 0.3323,-0.3323 0.3678,-1.1948 0.079,-1.91667 z m -336.96531,-12.5625 c 5.39276,-3.69024 18.41154,-15.58105 21.22399,-19.38509 1.42091,-1.92188 1.91108,-3.41208 1.31756,-4.0056 -1.03718,-1.03718 -10.94373,6.24597 -23.03676,16.9363 -5.83257,5.15603 -7.04915,6.7084 -6.12755,7.81885 1.56419,1.88474 2.00822,1.79325 6.62276,-1.36446 z m -6.15485,-4.5 2.93709,-3.25 -3.25,2.93709 c -3.02946,2.73778 -3.70965,3.56291 -2.93709,3.56291 0.1721,0 1.6346,-1.4625 3.25,-3.25 z m 15.56465,0.5 c 1.24387,-1.58606 1.2085,-1.62143 -0.37756,-0.37756 -1.66575,1.30637 -2.19548,2.12756 -1.37244,2.12756 0.20765,0 0.99515,-0.7875 1.75,-1.75 z m -12.43896,-6.81766 c 4.14175,-3.61221 10.63116,-8.88805 14.42092,-11.7241 3.78977,-2.83605 6.87616,-5.61811 6.85865,-6.18235 -0.0175,-0.56424 -2.1856,-3.45273 -4.81799,-6.41887 l -4.78617,-5.39297 -6.93201,5.81395 c -3.8126,3.19768 -10.18784,8.69651 -14.16721,12.21963 l -7.2352,6.40568 4.02247,5.92335 c 2.21235,3.25783 4.26628,5.92334 4.56428,5.92334 0.298,0 3.93052,-2.95544 8.07226,-6.56766 z m 339.99447,1.38016 c -0.3192,-0.79773 -0.5561,-0.56078 -0.6041,0.60417 -0.043,1.05416 0.1929,1.64479 0.5252,1.3125 0.3323,-0.3323 0.3678,-1.1948 0.079,-1.91667 z m -355.18307,-10.8125 c 0.99549,-1.1 1.58498,-2 1.30998,-2 -0.27501,0 -1.31449,0.9 -2.30998,2 -0.99549,1.1 -1.58497,2 -1.30997,2 0.275,0 1.31448,-0.9 2.30997,-2 z m -35.5,-18.37756 c 0,-0.20765 -0.7875,-0.99515 -1.75,-1.75 -1.58606,-1.24387 -1.62143,-1.2085 -0.37756,0.37756 1.30637,1.66575 2.12756,2.19548 2.12756,1.37244 z m 68.75,-7.54593 c 0.1375,-0.0421 0.40131,0.036 0.58625,0.17349 0.18494,0.1375 2.99744,-2.18902 6.25,-5.17005 3.25256,-2.98103 7.37558,-6.28758 9.16226,-7.3479 1.78668,-1.06032 3.00439,-2.32285 2.70602,-2.80563 -0.46554,-0.75326 -2.90093,0.96148 -13.71596,9.6573 -0.96879,0.77895 -2.19046,1.41628 -2.71482,1.41628 -0.52436,0 -1.44179,0.9126 -2.03874,2.02801 -0.59695,1.1154 -1.48168,1.78306 -1.96608,1.48369 -0.48441,-0.29938 -1.13897,-0.12649 -1.45459,0.3842 -0.45184,0.7311 1.09956,0.81905 3.18566,0.18061 z m 168.25,-0.45407 c 0,-0.20765 -0.7875,-0.99515 -1.75,-1.75 -1.58606,-1.24387 -1.62143,-1.2085 -0.37756,0.37756 1.30637,1.66575 2.12756,2.19548 2.12756,1.37244 z m 6,-8.9066 c 0,-0.15629 -2.5875,-2.74379 -5.75,-5.75 l -5.75,-5.46584 5.46584,5.75 c 5.07794,5.34193 6.03416,6.20809 6.03416,5.46584 z m -18,-3.0934 c 0,-0.20765 -0.7875,-0.99515 -1.75,-1.75 -1.58606,-1.24387 -1.62143,-1.2085 -0.37756,0.37756 1.30637,1.66575 2.12756,2.19548 2.12756,1.37244 z m -133.66459,-3.96835 c 0.64052,0.36661 0.81407,0.28139 0.38565,-0.18938 -1.45408,-1.59779 -3.61618,-1.35496 -2.9683,0.33337 0.40143,1.04612 0.75354,1.18303 1.01617,0.39513 0.22104,-0.66312 0.92596,-0.90572 1.56648,-0.53912 z m 54.39376,-20.25826 c -0.3323,-0.33229 -1.1948,-0.36781 -1.91667,-0.0789 -0.79773,0.31922 -0.56078,0.55618 0.60417,0.60416 1.05416,0.0434 1.64479,-0.19293 1.3125,-0.52522 z m 14,0 c -0.3323,-0.33229 -1.1948,-0.36781 -1.91667,-0.0789 -0.79773,0.31922 -0.56078,0.55618 0.60417,0.60416 1.05416,0.0434 1.64479,-0.19293 1.3125,-0.52522 z m -142.60161,-4.14583 c 1.24387,-1.58606 1.2085,-1.62143 -0.37756,-0.37756 -0.9625,0.75485 -1.75,1.54235 -1.75,1.75 0,0.82304 0.82119,0.29331 2.12756,-1.37244 z m 9,-8 c 1.24387,-1.58606 1.2085,-1.62143 -0.37756,-0.37756 -0.9625,0.75485 -1.75,1.54235 -1.75,1.75 0,0.82304 0.82119,0.29331 2.12756,-1.37244 z m 139.12244,1.04427 c -1.2375,-0.23836 -3.2625,-0.23836 -4.5,0 -1.2375,0.23835 -0.225,0.43337 2.25,0.43337 2.475,0 3.4875,-0.19502 2.25,-0.43337 z m 155.75,-61.67183 c 0,-0.20765 -0.7875,-0.99515 -1.75,-1.75 -1.58606,-1.24387 -1.62143,-1.2085 -0.37756,0.37756 1.30637,1.66575 2.12756,2.19548 2.12756,1.37244 z m -263.87244,-6.37244 c 1.24387,-1.58606 1.2085,-1.62143 -0.37756,-0.37756 -0.9625,0.75485 -1.75,1.54235 -1.75,1.75 0,0.82304 0.82119,0.29331 2.12756,-1.37244 z m 111.12244,-45.91228 c -0.6875,-0.27741 -1.8125,-0.27741 -2.5,0 -0.6875,0.27741 -0.125,0.50438 1.25,0.50438 1.375,0 1.9375,-0.22697 1.25,-0.50438 z m 28,0 c -0.6875,-0.27741 -1.8125,-0.27741 -2.5,0 -0.6875,0.27741 -0.125,0.50438 1.25,0.50438 1.375,0 1.9375,-0.22697 1.25,-0.50438 z"
       id="path3107"
       inkscape:connector-curvature="0" />
    <path
       style="fill:#000000"
       d="m 434.40212,1051.5411 c -0.51882,-1.6689 -3.56024,-3.9667 -23.79796,-17.979 -23.50056,-16.2713 -71.721,-50.78101 -76.58389,-54.8085 -2.79821,-2.31747 -6.8351,-6.00714 -8.97089,-8.19925 -2.13579,-2.19211 -7.02424,-6.11081 -10.86322,-8.70823 -3.83899,-2.59743 -15.52891,-10.81997 -25.97759,-18.27232 l -18.99758,-13.54974 -3.86957,1.54152 c -6.37133,2.53811 -8.3492,1.47693 -47.11271,-25.27768 -32.97518,-22.75952 -32.49457,-22.37006 -34.14017,-27.66397 -1.22365,-3.93648 0.237,-7.17428 7.26664,-16.10785 l 5.53296,-7.03155 -6.45216,-4.76809 c -11.99605,-8.86502 -52.65335,-36.65277 -65.11747,-44.50539 -3.38673,-2.13369 -5.97512,-4.36764 -6.31041,-5.44627 -0.83031,-2.6711 0.79438,-6.00493 6.24799,-12.82065 2.66459,-3.3301 6.48525,-8.6939 8.49039,-11.91961 2.00512,-3.22569 4.13648,-6.01036 4.73635,-6.18814 1.61998,-0.48013 8.88846,4.06314 26.03886,16.27608 23.10347,16.45216 54.38131,36.34841 56.21263,35.75762 2.04392,-0.65937 17.61015,-25.56945 20.80253,-33.28953 4.01795,-9.71647 6.87465,-24.98885 6.48085,-34.64762 -0.39071,-9.58345 -5.63407,-28.58974 -10.47098,-37.95549 -4.48655,-8.68736 -11.50123,-17.65396 -19.05308,-24.35484 -7.24285,-6.42668 -23.21302,-15.38025 -32.07092,-17.98033 -15.49666,-4.54879 -34.24561,-3.91618 -53.74706,1.81349 -12.86981,3.78125 -20.34839,7.64092 -28.10642,14.50568 -6.919833,6.12307 -18.019933,19.1628 -24.291597,28.53633 l -4.53016,6.77068 -22.79336,31.81372 -3.72472,1.5919 -3.724705,1.59192 -5.992219,-3.24039 C 27.832519,750.70947 3.3039167,734.93505 2.5065628,733.22701 1.4979054,731.06626 4.1206615,726.27342 12.940377,714.1603 c 18.51475,-25.42843 22.92654,-37.30409 20.849617,-56.12296 -1.074788,-9.73861 -0.652899,-18.03268 1.15857,-22.77631 2.140899,-5.6063 26.218928,-32.49689 37.443833,-41.81766 14.449641,-11.99848 33.800343,-21.01554 59.636723,-27.7896 16.72925,-4.38627 26.21451,-5.89849 40.60524,-6.47363 22.56035,-0.90165 44.77882,2.84221 65.9547,11.11352 47.01977,18.36592 87.88669,60.26077 104.44329,107.07046 6.13597,17.34777 8.50371,33.03911 7.94221,52.63453 -0.71135,24.82758 -7.0662,48.48367 -19.41101,72.25793 -3.18533,6.13449 -6.09457,12.80746 -6.46497,14.82875 -0.8979,4.90018 -0.5084,14.72228 0.85032,21.44149 1.01929,5.04058 0.93746,5.67433 -1.08325,8.38908 -1.20219,1.61512 -3.66296,5.41159 -5.46834,8.43657 l -3.28251,5.49997 19.82632,13.37621 c 10.90446,7.3569 23.39822,15.8519 27.76388,18.87774 5.27655,3.65718 8.47293,5.34776 9.53449,5.04287 2.25329,-0.64721 2.24995,-0.64875 16.83518,7.76344 20.73435,11.95869 32.093,19.21839 67.3771,43.06324 18.13756,12.25726 33.31504,22.18583 33.72781,22.06351 2.92967,7.76832 -32.37347,72.80605 -56.77746,80.50165 z"
       id="path3267" />
    <path
       style="fill:#000000"
       d="m 444.44416,1036.992 c 14.85738,-15.4566 25.76741,-29.9801 34.29901,-45.65886 3.65333,-6.71383 6.92285,-13.48196 7.26549,-15.04027 l 0.62307,-2.8333 -24.78526,-16.75738 c -32.54147,-22.00139 -47.78955,-32.00764 -58.452,-38.35815 -7.67014,-4.5683 -8.89049,-5.04426 -9.93607,-3.8752 -0.99382,1.11123 -1.74575,1.07778 -4.52481,-0.20131 l -3.3329,-1.53405 2.92843,1.72634 c 1.61061,0.9495 3.05841,2.14461 3.21733,2.65583 0.74187,2.3866 -3.27696,1.37571 -11.32221,-2.84796 -4.83377,-2.53768 -9.13386,-4.51166 -9.55576,-4.38662 -0.42188,0.1251 -0.0891,0.50409 0.7398,0.84232 0.82878,0.33824 4.28725,2.18884 7.68548,4.11242 4.80703,2.72108 6.0308,3.76761 5.51275,4.71437 -0.51805,0.94675 -1.13127,1.10172 -2.76237,0.69807 -1.68035,-0.41585 -1.83568,-0.37403 -0.78254,0.21069 0.72269,0.40127 1.50975,1.35946 1.74907,2.1293 0.90125,2.89931 -2.67694,2.24091 -9.25271,-1.70252 -3.66649,-2.19877 -6.78871,-3.7741 -6.9383,-3.50074 -0.14957,0.27334 2.46742,2.09026 5.81552,4.03759 7.49135,4.35711 9.5807,5.99348 9.24292,7.23901 -0.55928,2.06206 -2.64256,1.42168 -9.72927,-2.99071 -4.04619,-2.51926 -7.45344,-4.40367 -7.57169,-4.18756 -0.11821,0.2161 3.42184,2.66761 7.86686,5.44781 7.68313,4.80552 9.71558,7.19019 6.45863,7.57785 -0.79767,0.095 -4.88691,-1.96061 -9.08719,-4.56791 -4.20028,-2.60728 -7.72254,-4.42464 -7.82725,-4.03856 -0.10471,0.38609 2.32508,2.29409 5.39952,4.24004 16.4972,10.44169 21.40931,13.85833 21.81903,15.17645 1.1094,3.56894 -2.95576,1.85971 -16.0082,-6.73082 -13.99074,-9.20806 -19.25897,-11.34423 -6.93195,-2.81079 3.7636,2.60539 6.72192,5.1833 6.57399,5.72868 -0.62634,2.30946 -3.38016,1.44345 -9.65564,-3.03646 -4.06965,-2.90522 -6.87363,-4.40009 -7.18524,-3.83062 -0.31161,0.56947 2.47195,2.73168 7.1329,5.54068 4.20416,2.53371 7.75239,4.95569 7.88495,5.38215 0.13258,0.42648 -0.28174,1.17249 -0.92069,1.65781 -1.15613,0.87814 -2.37144,0.3129 -12.88888,-5.99458 -6.32699,-3.79439 -5.38539,-1.90354 1.6656,3.34475 6.55186,4.87679 8.25717,7.19424 5.80986,7.89542 -1.12474,0.32222 -7.82052,-4.08605 -13.54703,-8.91893 -0.41384,-0.34927 -1.0753,-0.27745 -1.46988,0.15961 -0.4583,0.50762 1.53688,2.43128 5.52408,5.32599 5.96651,4.33172 7.52646,6.46406 5.66853,7.74854 -0.46829,0.32376 -3.80805,-1.60662 -7.42168,-4.28971 -3.61365,-2.6831 -6.8802,-4.79642 -7.25903,-4.69628 -1.24846,0.33001 0.72922,2.0306 13.40708,11.52869 6.89833,5.16816 12.72075,9.97031 12.9387,10.67144 0.22117,0.71153 -0.2403,1.46347 -1.04439,1.70179 -0.9528,0.28239 -5.96716,-2.97662 -14.80781,-9.62414 -7.35191,-5.52811 -13.67364,-9.96029 -14.04823,-9.84926 -2.05404,0.60878 -0.53314,2.7303 5.34721,7.45886 3.61062,2.90341 6.62714,5.86783 6.70338,6.58759 0.32174,3.03754 -1.99461,2.14765 -8.99412,-3.45527 -6.18945,-4.95446 -7.52775,-5.7071 -8.03865,-4.52068 -0.50106,1.16361 0.68366,2.45592 6.49168,7.08104 6.72245,5.35333 8.33983,7.70876 5.80845,8.45901 -0.61288,0.18165 -4.39262,-2.32871 -8.3994,-5.57859 -4.0068,-3.24988 -7.50484,-5.83789 -7.77343,-5.75113 -0.26869,0.0864 -0.88828,0.61068 -1.37709,1.16425 -0.68986,0.7813 2.27256,3.50032 13.23891,12.15122 13.07463,10.31404 15.84777,13.27885 13.16427,14.07418 -1.30505,0.38679 -3.10952,-0.8939 -16.73884,-11.88013 -7.27461,-5.86385 -13.52101,-10.57426 -13.88091,-10.46759 -0.86006,0.2549 6.72279,7.07871 13.84344,12.45774 6.98673,5.27786 47.97965,34.38095 67.09165,47.63205 7.78718,5.399 16.73673,11.6482 19.88785,13.8871 6.79713,4.8292 6.31258,4.9714 15.44597,-4.5306 z"
       id="path3265" />
    <path
       style="fill:#000000"
       d="m 331.77368,958.50382 c 5.8074,-5.98865 15.86781,-18.55428 21.31009,-26.61673 4.56115,-6.7571 16.98261,-28.5569 16.73165,-29.36423 -0.10054,-0.32324 -5.03241,-3.87251 -10.95987,-7.8873 -7.96768,-5.39667 -40.93036,-27.90461 -44.00862,-30.05045 -0.18152,-0.12651 -2.61138,3.48641 -5.39966,8.0288 -13.7703,22.43318 -23.76848,36.92629 -32.9951,47.82882 -2.53646,2.99716 -4.49839,5.814 -4.35987,6.25964 0.55374,1.78138 52.20875,37.74524 53.61501,37.32846 0.54541,-0.16166 3.27529,-2.64882 6.06637,-5.52701 z"
       id="path3263" />
    <path
       style="fill:#000000"
       d="m 343.98761,947.78472 c 0.6072,-1.52695 0.57048,-1.54611 -0.39194,-0.20448 -0.58405,0.81417 -1.02084,1.61242 -0.97066,1.7739 0.19896,0.64002 0.72488,0.0342 1.3626,-1.56942 z"
       id="path3261" />
    <path
       style="fill:#000000"
       d="m 406.699,917.65243 c -0.0458,-0.14756 -1.09696,-0.69593 -2.33573,-1.21859 l -2.25234,-0.9503 2.06099,1.30001 c 1.93677,1.2217 2.72051,1.49117 2.52708,0.86888 z"
       id="path3259" />
    <path
       style="fill:#000000"
       d="m 381.27832,922.6112 c -0.0502,-0.16148 -0.8677,-0.58797 -1.81668,-0.94778 -1.56376,-0.59292 -1.58338,-0.55705 -0.20941,0.38271 1.443,0.987 2.22503,1.20509 2.02609,0.56507 z"
       id="path3257" />
    <path
       style="fill:#000000"
       d="m 372.8311,923.41627 c -0.0502,-0.16148 -0.86769,-0.58797 -1.81666,-0.94778 -1.56377,-0.59291 -1.5834,-0.55706 -0.20941,0.38271 1.443,0.98699 2.22502,1.20508 2.02607,0.56507 z"
       id="path3255" />
    <path
       style="fill:#000000"
       d="m 379.29279,919.02173 c -0.0396,-0.12707 -2.02486,-1.16285 -4.41192,-2.30178 l -4.34012,-2.07077 4.17535,2.37188 c 3.88305,2.20584 4.75958,2.58899 4.57669,2.00067 z"
       id="path3253" />
    <path
       style="fill:#000000"
       d="m 388.8377,916.15202 c -0.0458,-0.14757 -1.09695,-0.69592 -2.33572,-1.21859 l -2.25232,-0.95027 2.06097,1.30003 c 1.93678,1.22169 2.72051,1.49116 2.52708,0.86886 z"
       id="path3251" />
    <path
       style="fill:#000000"
       d="m 391.5444,913.66767 c -0.0433,-0.13926 -1.32795,-0.80951 -2.85477,-1.48938 l -2.77602,-1.23609 2.59538,1.56627 c 2.4258,1.4639 3.225,1.76912 3.03542,1.15923 z"
       id="path3249" />
    <path
       style="fill:#000000"
       d="m 397.10649,911.97511 c -0.0502,-0.16148 -0.8677,-0.588 -1.81667,-0.9478 -1.56373,-0.59291 -1.58337,-0.55705 -0.20937,0.3827 1.44294,0.98701 2.22499,1.20511 2.02604,0.5651 z"
       id="path3247" />
    <path
       style="fill:#000000"
       d="m 377.38116,910.07401 c -3.68592,-1.94371 -6.94148,-3.46291 -7.23465,-3.37602 -0.58447,0.17323 12.94225,7.16507 13.55678,7.00737 0.20878,-0.0534 -2.63624,-1.68766 -6.32213,-3.63135 z"
       id="path3245" />
    <path
       style="fill:#000000"
       d="m 390.58824,910.59174 c -0.0373,-0.12034 -2.95705,-1.64356 -6.48809,-3.38497 l -6.42011,-3.16621 6.26409,3.45135 c 5.81878,3.20602 6.82273,3.6744 6.64411,3.09983 z"
       id="path3243" />
    <path
       style="fill:#000000"
       d="m 376.79839,902.60333 c -0.74469,-0.47995 -1.73698,-0.75909 -2.20506,-0.62036 -0.46809,0.1387 0.004,0.55983 1.0497,0.93577 2.4563,0.88332 2.84903,0.77611 1.15536,-0.31541 z"
       id="path3241" />
    <path
       style="fill:#000000"
       d="m 269.27727,922.72508 c 11.93924,-13.41393 28.91171,-38.17524 41.47684,-60.51093 3.38921,-6.02466 7.59135,-12.96661 9.33805,-15.42658 2.69076,-3.78949 3.05301,-4.86783 2.37165,-7.05979 -1.37271,-4.41599 -2.13977,-14.38688 -1.58743,-20.63485 0.44582,-5.04298 1.46598,-7.79073 6.55466,-17.65428 9.90113,-19.19178 14.25662,-32.02923 17.50774,-51.60263 3.25964,-19.62471 2.96631,-37.09436 -0.94811,-56.46209 -4.00142,-19.79842 -16.62281,-44.376 -33.19693,-64.6442 -40.85423,-49.95996 -99.14572,-73.42502 -158.51717,-63.81061 -34.08895,5.52025 -64.869107,18.97125 -82.348182,35.98635 -8.523753,8.29747 -24.789331,26.13188 -28.317081,31.04826 -4.383666,6.10925 -5.363797,12.53738 -3.978382,26.09234 1.233636,12.0702 0.199626,19.85701 -4.019317,30.26815 -2.655936,6.55408 -6.64048,12.83139 -22.43812,35.3494 -2.627237,3.74488 -4.7882885,7.22292 -4.8023074,7.72897 -0.014364,0.50605 1.6756038,1.90578 3.7547394,3.11052 2.079121,1.20474 8.514575,5.18206 14.300992,8.8385 5.786432,3.65642 13.204258,8.0951 16.484078,9.86372 l 5.963321,3.21566 1.89485,-2.14727 c 1.042195,-1.18099 4.2085,-5.84327 7.036269,-10.36061 7.095792,-11.33551 29.885158,-43.63282 37.109591,-52.59208 5.108196,-6.33486 14.604799,-15.12918 20.856699,-19.31432 8.28019,-5.54292 13.39644,-7.84825 24.79398,-11.1719 9.47687,-2.76358 12.45135,-3.29574 19.67837,-3.52063 21.05286,-0.65516 42.71944,6.01379 60.35133,18.5761 17.01343,12.12164 28.26215,28.51886 35.42236,51.63502 4.20985,13.59122 4.83564,18.44796 3.92888,30.4931 -0.55567,7.38144 -3.26013,17.10127 -7.12638,25.61219 -3.90274,8.59127 -30.02747,46.85928 -48.51437,71.06477 -16.92431,22.15957 -17.13648,22.66269 -11.49356,27.256 4.49264,3.65698 28.96683,20.72971 49.00904,34.18775 14.32151,9.61667 21.31638,13.4451 23.50123,12.86271 0.26385,-0.0705 2.94261,-2.89488 5.95267,-6.27674 z"
       id="path3239" />
    <path
       style="fill:#000000"
       d="m 293.75394,783.67661 c -13.30451,-8.90936 -24.25052,-16.39342 -24.32444,-16.63122 -0.074,-0.2378 0.30238,-2.2106 0.83624,-4.38398 0.53385,-2.17338 1.15431,-7.19465 1.37877,-11.15836 2.39863,-42.35336 -18.36995,-78.94062 -55.2793,-97.38363 -9.95748,-4.9756 -17.56063,-7.30753 -29.5329,-9.05793 -18.52251,-2.70807 -36.1395,-0.92182 -54.0727,5.48256 -19.29419,6.89044 -23.18984,7.86441 -27.62794,6.90743 -2.30051,-0.49607 -5.543861,-2.15435 -7.852787,-4.01503 -2.16345,-1.74345 -11.731065,-8.45268 -21.261335,-14.90941 -9.530285,-6.45671 -17.592878,-12.08423 -17.916864,-12.50559 -1.044509,-1.3584 -0.07095,-2.72656 6.705848,-9.4233 22.490963,-22.22547 44.902758,-36.07978 70.765148,-43.74492 31.86749,-9.44494 64.95579,-8.06942 100.44909,4.1758 16.79631,5.79476 31.17297,13.94771 46.21532,26.20859 38.24438,31.17262 58.87136,76.19818 57.68108,125.9092 -0.54034,22.56629 -5.53362,42.938 -14.78483,60.31932 -2.87848,5.40815 -5.67344,9.96268 -6.21099,10.12118 -0.53756,0.15849 -11.8629,-7.00132 -25.16741,-15.91071 z"
       id="path3237" />
    <path
       style="fill:#000000"
       d="m 329.7471,768.41047 c 7.67148,-24.77687 8.45504,-52.23055 2.28709,-80.13327 -7.52409,-34.03766 -29.94502,-66.56699 -61.31471,-88.95825 -26.91966,-19.21488 -64.53683,-30.10924 -99.0125,-28.67513 -14.31561,0.59549 -21.66268,1.82765 -35.41094,5.93868 -24.40495,7.29764 -46.173721,20.5852 -66.730219,40.73199 l -7.187461,7.0442 1.982253,1.3924 c 1.090228,0.76585 7.982502,5.47935 15.316142,10.4745 7.333654,4.99514 15.977486,11.04363 19.208513,13.44107 7.463302,5.53779 9.278242,5.6704 20.077482,1.46696 13.38008,-5.20799 28.3633,-9.16101 38.83219,-10.2451 10.38528,-1.07541 24.34647,-0.79244 32.99608,0.66881 24.71272,4.17492 48.98648,19.02999 64.12262,39.24179 15.58355,20.80926 23.65787,52.24895 19.94994,77.68082 -0.69364,4.75737 -0.66753,7.08851 0.0852,7.61813 0.59658,0.41974 10.45381,7.09548 21.90494,14.83498 l 20.82022,14.07183 4.6714,-8.88809 c 2.56926,-4.88845 5.90005,-12.85629 7.40172,-17.70632 z"
       id="path3235" />
    <path
       style="fill:#000000"
       d="m 304.39708,736.83942 c -9.02936,0.88338 -17.13888,-4.77229 -19.98877,-13.94035 -2.44835,-7.8764 -0.8773,-15.48283 4.33545,-20.99041 8.34105,-8.81285 21.88093,-7.9233 29.29435,1.92457 9.50553,12.62698 1.70347,31.50499 -13.64103,33.00619 z"
       id="path3233" />
    <path
       style="fill:#000000"
       d="m 312.20349,729.75371 c 1.24107,-1.10155 2.65121,-2.81967 3.13366,-3.81805 0.83319,-1.72425 0.18901,-2.11565 -12.85142,-7.80836 -7.55071,-3.29623 -14.07712,-6.01116 -14.5031,-6.0332 -0.42599,-0.022 -0.74855,2.1136 -0.7168,4.74586 0.048,3.97237 0.40794,5.35515 2.11782,8.1346 5.2232,8.4905 16.07734,10.76367 22.81984,4.77915 z"
       id="path3231" />
    <path
       style="fill:#000000"
       d="m 318.33271,717.76608 c 0.48269,-3.52719 -2.00911,-10.45603 -4.75901,-13.23323 -4.55639,-4.60159 -9.45633,-5.88001 -15.53451,-4.05303 -3.20146,0.96226 -8.61671,5.50706 -8.33809,6.99779 0.12711,0.68053 26.94127,12.86699 27.8452,12.65507 0.26286,-0.0616 0.61672,-1.12658 0.78641,-2.3666 z"
       id="path3229" />
    <path
       style="fill:#000000"
       d="m 144.14611,629.83404 c -9.38831,-0.20462 -17.3524,-5.54654 -19.76626,-13.25821 -2.28434,-7.29787 1.40099,-16.74883 8.2529,-21.16454 4.79271,-3.08864 7.65211,-3.95079 13.21152,-3.9835 6.249,-0.0367 12.73703,3.05669 15.9836,7.62075 3.04701,4.28352 3.46554,5.44986 3.7055,10.32602 0.2231,4.53322 -2.50916,10.83174 -6.20851,14.31213 -3.01947,2.84079 -11.3879,6.22995 -15.17876,6.14731 z"
       id="path3227" />
    <path
       style="fill:#000000"
       d="m 155.347,622.09194 c 2.46052,-1.81188 5.88393,-7.80611 6.20091,-10.85748 0.35333,-3.40143 -0.82378,-7.51641 -2.90749,-10.164 -1.72932,-2.19733 -7.6335,-5.64858 -8.98033,-5.2494 -0.69172,0.20501 -6.23634,28.87308 -5.83438,30.16621 0.34299,1.10339 8.45979,-1.64089 11.52129,-3.89533 z"
       id="path3225" />
    <path
       style="fill:#000000"
       d="m 144.64859,595.05874 c -0.047,-0.15116 -2.07427,0.31461 -4.50506,1.03505 -9.09183,2.69466 -14.30901,11.18741 -11.81038,19.22548 1.32513,4.26301 2.68322,5.7598 7.76056,8.55326 l 3.80787,2.09501 2.41623,-15.31697 c 1.32892,-8.42436 2.37777,-15.44068 2.33078,-15.59183 z"
       id="path3223" />
    <path
       style="fill:#000000"
       d="m 162.82776,604.03661 c -0.4371,-0.69676 -0.48169,-0.21309 -0.0991,1.07479 0.3826,1.2879 0.74024,1.85796 0.79473,1.26683 0.0545,-0.59113 -0.25856,-1.64486 -0.69561,-2.34163 z"
       id="path3221" />
    <path
       style="fill:#000000"
       d="m 157.32577,596.66956 c -0.0434,-0.13926 -1.32795,-0.80951 -2.85477,-1.48938 l -2.77607,-1.2361 2.59541,1.56625 c 2.4258,1.4639 3.22499,1.7691 3.03543,1.15923 z"
       id="path3219" />
    <path
       style="fill:#000000"
       d="m 140.52849,593.69574 c -0.82732,0.0316 -2.08161,0.40335 -2.78732,0.82611 -0.70572,0.42278 -0.0289,0.39694 1.5042,-0.0575 1.53303,-0.45436 2.11043,-0.80026 1.28312,-0.76868 z"
       id="path3217" />
    <path
       style="fill:#000000"
       d="m 209.21113,838.85963 c 4.97661,-6.82655 8.9951,-12.62337 8.93002,-12.8818 -0.0651,-0.25843 -4.99245,-3.38409 -10.94971,-6.94589 -14.81422,-8.85736 -26.15665,-16.32937 -43.03956,-28.35297 -7.87327,-5.60716 -16.62803,-11.68496 -19.45504,-13.50626 l -5.14002,-3.31143 -1.27125,2.54362 c -0.69919,1.39899 -4.40378,6.71125 -8.23244,11.80501 -3.82864,5.09378 -6.99902,9.77581 -7.04527,10.40453 -0.0463,0.62872 7.00347,5.86386 15.66606,11.63366 20.81059,13.86105 49.96591,33.948 55.66671,38.35233 2.50694,1.93682 4.84249,3.33013 5.19011,3.09629 0.34763,-0.23385 4.70381,-6.01054 9.68039,-12.83709 z"
       id="path3215" />
    <path
       style="fill:#000000"
       d="m 212.73711,819.69576 c -0.0502,-0.16147 -0.86769,-0.58797 -1.81667,-0.94778 -1.56377,-0.5929 -1.58339,-0.55705 -0.20942,0.38271 1.44301,0.98699 2.22503,1.20509 2.02609,0.56507 z"
       id="path3213" />
    <path
       style="fill:#000000"
       d="m 204.19059,814.5854 c -0.0502,-0.16147 -0.8677,-0.58798 -1.81667,-0.94779 -1.56377,-0.5929 -1.58339,-0.55705 -0.20941,0.38272 1.44301,0.98699 2.22503,1.20508 2.02608,0.56507 z"
       id="path3211" />
    <path
       style="fill:#000000"
       d="m 253.23638,763.62803 c 1.41643,-7.62904 1.2938,-19.20793 -0.28788,-27.17977 -3.31502,-16.70802 -15.12379,-38.47853 -26.79943,-49.4071 -9.54096,-8.93047 -24.05459,-17.38143 -37.14732,-21.63003 -7.98494,-2.59111 -21.3813,-4.57947 -29.95451,-4.446 -8.34288,0.12988 -23.26996,3.73689 -31.3477,7.57493 -6.44201,3.06084 -17.86291,10.545 -20.41258,13.37645 -1.14416,1.27062 -1.1961,1.51224 -0.17778,0.82706 7.18452,-4.83402 11.75441,-6.80542 24.541,-10.58678 14.74043,-4.35909 22.92357,-5.58525 35.07803,-5.25589 14.28151,0.387 24.46296,3.1163 36.84691,9.87745 17.00746,9.28536 26.69585,18.68568 36.21994,35.14302 3.84558,6.64504 10.94113,28.61724 11.59829,35.91548 0.53511,5.94296 0.45604,17.46775 -0.14573,21.24025 -0.40475,2.53738 -0.38041,2.58663 0.38083,0.771 0.44727,-1.06676 1.17082,-3.86578 1.60793,-6.22007 z"
       id="path3109" />
    <path
       sodipodi:nodetypes="cssssscsssscsssssssssssssssscsssscccsssssssssssssssscssssscccsccsscscsssssssssssssssssssssssscssssssscssscsssssssssssssscssssssscccsssssssssssssssscsssssssssssscsssscssssscssssccssscssscssssssssssssssssssssssssscssssssssssssscsssssssssssssssssscssssssscsssssssssscsssssssssscssssssssssccssssssssssssscssssssccsssssssssscsscccccsscssssssccsccccccccccccssssccccccccccssssssssccccccccccsssssssssssssssssssssssssssssssscssscsssssssssssssssssssssssssssssssssssssssssssssssssssssssssssccccccccccssssssscssssssssscscsscssscccccsssssssssccsssssssscsssssscsssssscssscccccccccccssssssssssssssssssssssssssss"
       style="fill:#000000"
       d="m 483.5714,501.62301 c 0,-2.14629 -2.6757,-5.91325 -20.93624,-29.47512 -21.20465,-27.36063 -64.3128,-84.82364 -68.46454,-91.26301 -2.38901,-3.70534 -5.71179,-9.4587 -7.38396,-12.78523 -1.67218,-3.32653 -5.89218,-9.64675 -9.37778,-14.04493 -3.4856,-4.39819 -13.98745,-18.15974 -23.33745,-30.58122 l -17,-22.58451 -5,0.46468 c -8.23265,0.7651 -10.12745,-1.17468 -45.13409,-46.20578 -29.77931,-38.30687 -29.36591,-37.68058 -29.36591,-44.48837 0,-5.06219 2.83659,-8.36491 14.11185,-16.43083 l 8.87468,-6.34863 -5.71432,-7.86608 C 264.2194,165.3891 227.40461,118.48057 215.8804,104.88443 c -3.13134,-3.69432 -5.30897,-7.22808 -5.30897,-8.61515 0,-3.43496 3.05952,-6.79349 11.76582,-12.91569 4.2538,-2.99124 10.56369,-7.97371 14.02198,-11.07216 3.45829,-3.09845 6.90409,-5.63354 7.65733,-5.63354 2.0342,0 8.76742,7.88625 24.12136,28.25206 20.68345,27.43497 49.53455,61.77807 51.85128,61.72152 2.58567,-0.0631 29.38601,-23.962 35.81566,-31.93819 8.09236,-10.03882 16.83525,-27.02489 19.83454,-38.53539 2.9759,-11.42073 3.74015,-35.63025 1.5262,-48.3463 -2.05359,-11.79499 -6.91412,-24.80107 -13.20205,-35.32674 -6.03064,-10.095 -21.1925,-26.21107 -30.4477,-32.36391 -16.19172,-10.76424 -37.97462,-16.56245 -62.44442,-16.62158 -16.14861,-0.039 -26.12665,1.89579 -37.5,7.27151 -10.14455,4.79492 -27.56742,16.27524 -38.12845,25.12372 l -7.62845,6.39143 6.36353,7.93593 c 9.32727,11.63201 9.19124,12.57677 -3.61255,25.09002 -11.8744,11.60496 -17.11794,15.34592 -21.5097,15.34592 -4.25232,0 -6.95939,-2.28409 -13.42967,-11.33126 l -5.38878,-7.53494 -4.85148,0.57458 -4.85148,0.57459 -5.73149,-5.90671 C 123.63114,5.51084 101.0669,-21.62345 100.7606,-23.91291 c -0.38748,-2.89626 4.34104,-7.62446 18.81083,-18.80953 30.3757,-23.48026 39.69258,-35.92403 44.0305,-58.80783 2.24483,-11.84217 5.69422,-21.46109 9.47236,-26.41448 4.46522,-5.8542 41.75992,-29.11462 57.99714,-36.17237 20.9019,-9.08533 46.37328,-12.94969 78.5,-11.90953 20.8023,0.6735 32.24854,2.20311 49,6.54804 26.26126,6.81156 50.46912,18.97383 71.86016,36.10326 47.49748,38.03485 79.51141,101.62744 81.81771,162.52324 0.8548,22.56812 -2.031,41.87078 -9.68,64.74816 -9.6913,28.98591 -25.45256,54.62287 -48.14308,78.30859 -5.85486,6.11166 -11.5847,12.95368 -12.73298,15.20448 -2.78371,5.45653 -5.84629,17.15785 -6.68555,25.5438 -0.62959,6.29094 -0.95018,7.00861 -4.24375,9.5 -1.95949,1.48223 -6.14563,5.09374 -9.30252,8.02557 l -5.73981,5.3306 18.01485,22.6694 c 9.90818,12.46817 21.23689,26.83103 25.17492,31.91748 4.75969,6.14773 7.83054,9.25385 9.16005,9.26531 2.82206,0.0243 2.81876,0.0213 16.58177,15.0166 19.5655,21.31717 30.0306,33.82938 62.0767,74.22001 16.4731,20.7625 30.3751,37.75 30.8934,37.75 0.592,10.16952 -63.24271,74.4303 -94.0519,74.97512 z m 16.7458,-13.62678 c 22.6067,-13.01508 40.3413,-26.30877 55.7542,-41.79291 6.6,-6.63049 12.7781,-13.45886 13.729,-15.17417 l 1.729,-3.11874 -22.508,-28.38126 c -29.5516,-37.26286 -43.507,-54.36646 -53.4966,-65.56512 -7.1861,-8.05587 -8.4191,-9.04221 -10.0391,-8.03055 -1.5398,0.96164 -2.3924,0.65982 -5.1305,-1.81614 l -3.28377,-2.96945 2.75,3.05472 c 1.51247,1.68009 2.74997,3.59259 2.74997,4.25 0,3.0691 -4.2594,0.47627 -11.99997,-7.30472 -4.65071,-4.675 -8.88929,-8.5 -9.41905,-8.5 -0.52977,0 -0.28247,0.5625 0.54954,1.25 0.83202,0.6875 4.14702,4.0735 7.36668,7.52445 4.55442,4.8816 5.58742,6.54096 4.65342,7.47496 -0.93401,0.93401 -1.69444,0.90247 -3.42555,-0.14206 -1.78337,-1.07607 -1.97691,-1.08103 -0.97504,-0.025 0.6875,0.72468 1.25,2.12761 1.25,3.11761 0,3.72842 -3.87875,1.70444 -10.02993,-5.23376 -3.42974,-3.86856 -6.45653,-6.81311 -6.7262,-6.54344 -0.26967,0.26967 2.08987,3.32236 5.24342,6.78375 7.05602,7.74482 8.87343,10.40078 8.03989,11.74947 -1.38,2.23288 -3.5464,0.7518 -10.11743,-6.91687 -3.75176,-4.37847 -6.99581,-7.78642 -7.209,-7.57323 -0.21319,0.21319 2.98089,4.33526 7.09795,9.16016 7.11626,8.33973 8.60082,11.85695 4.71754,11.17679 -0.95106,-0.16658 -4.91804,-4.01406 -8.81551,-8.54995 -3.89747,-4.53589 -7.29771,-7.90502 -7.55609,-7.48696 -0.25838,0.41807 1.85338,3.51269 4.69279,6.87695 15.23595,18.05221 19.66257,23.78953 19.66257,25.48458 0,4.58955 -4.06307,1.15827 -16,-13.51208 -12.79503,-15.72494 -18.08876,-20.07879 -6.96551,-5.72881 3.39609,4.38126 5.87609,8.44912 5.51109,9.03968 -1.54555,2.50077 -4.40228,0.52001 -10.01646,-6.94509 -3.64079,-4.84111 -6.33043,-7.57984 -6.89223,-7.01804 -0.5618,0.5618 1.86585,4.07919 6.22088,9.01336 3.92823,4.4506 7.14223,8.54073 7.14223,9.08915 0,0.54843 -0.74299,1.28226 -1.65108,1.63073 -1.64311,0.63052 -2.83841,-0.45917 -12.67666,-11.55657 -5.9184,-6.67587 -5.51159,-4.12082 0.71961,4.51966 5.79013,8.02887 6.92256,11.35276 3.85813,11.32432 -1.40834,-0.0131 -7.53137,-7.54052 -12.3882,-15.22963 -0.351,-0.5557 -1.13718,-0.70197 -1.74706,-0.32504 -0.70836,0.43779 0.89811,3.39914 4.44785,8.1991 5.31191,7.18277 6.34336,10.23798 3.74811,11.10204 -0.65412,0.21779 -3.80412,-3.22073 -7,-7.64114 -3.19589,-4.42042 -6.19634,-8.04881 -6.66769,-8.0631 -1.55336,-0.0471 0.11269,2.64549 11.29456,18.25376 6.08434,8.49286 11.06243,16.17927 11.06243,17.08091 0,0.91498 -0.79933,1.63934 -1.80901,1.63934 -1.19642,0 -5.79696,-5.58738 -13.58576,-16.5 -6.47721,-9.075 -12.1616,-16.5 -12.63197,-16.5 -2.57924,0 -1.5888,3.02884 3.4822,10.64881 3.11366,4.67878 5.52246,9.22206 5.35287,10.09617 -0.71568,3.68894 -3.06089,1.83275 -9.10618,-7.20734 -5.34564,-7.99385 -6.61539,-9.34711 -7.62681,-8.12842 -0.99199,1.19527 -0.0917,3.13041 4.9331,10.60333 5.81593,8.64953 6.83369,11.98745 3.65508,11.98745 -0.76959,0 -4.21818,-4.275 -7.66352,-9.5 -3.44534,-5.225 -6.5423,-9.49311 -6.88213,-9.48469 -0.33983,0.008 -1.23957,0.40907 -1.99942,0.89032 -1.07241,0.67921 1.36188,4.91467 10.87872,18.92807 11.34646,16.7075 13.47527,21.1663 10.10564,21.1663 -1.63874,0 -3.25573,-2.13773 -14.99971,-19.83031 -6.2683,-9.44333 -11.76667,-17.16969 -12.2186,-17.16969 -1.07994,0 5.19968,10.68125 11.46426,19.5 6.14675,8.65287 42.87733,57.22729 60.11563,79.5 7.02374,9.075 15.08009,19.55667 17.90298,23.29261 6.0891,8.05837 5.4812,8.05662 19.3784,0.0557 z M 398.82487,356.257 c 8.81748,-5.02486 24.8755,-16.30979 34.01435,-23.90392 7.65924,-6.36462 29.73221,-27.69869 29.73221,-28.73691 0,-0.41565 -4.40203,-6.31605 -9.7823,-13.11201 -7.23215,-9.13512 -37.08698,-47.14141 -39.85932,-50.74238 -0.16349,-0.21236 -4.24851,3.19387 -9.07782,7.5694 -23.85019,21.60914 -40.52557,35.18535 -55.03056,44.80298 -3.9875,2.64394 -7.25,5.27604 -7.25,5.84911 0,2.29081 46.53739,62.66462 48.3032,62.66462 0.68487,0 4.71249,-1.9759 8.95024,-4.39089 z m 17.87412,-8.35911 c 1.24387,-1.58606 1.2085,-1.62143 -0.37756,-0.37756 -0.9625,0.75485 -1.75,1.54235 -1.75,1.75 0,0.82304 0.82119,0.29331 2.12756,-1.37244 z m 82.87241,-13.59501 c 0,-0.18976 -1.0125,-1.20226 -2.25,-2.25 l -2.25,-1.90499 1.905,2.25 c 1.7902,2.11444 2.595,2.70524 2.595,1.90499 z m -30.99997,-3.03255 c 0,-0.20765 -0.7875,-0.99515 -1.75,-1.75 -1.58606,-1.24387 -1.62143,-1.2085 -0.37756,0.37756 1.30637,1.66575 2.12756,2.19548 2.12756,1.37244 z m -10,-2 c 0,-0.20765 -0.7875,-0.99515 -1.75,-1.75 -1.58606,-1.24387 -1.62143,-1.2085 -0.37756,0.37756 1.30637,1.66575 2.12756,2.19548 2.12756,1.37244 z m 9,-2.91949 c 0,-0.16338 -1.9125,-2.07588 -4.25,-4.25 l -4.25,-3.95295 3.95295,4.25 c 3.6762,3.95246 4.54705,4.70953 4.54705,3.95295 z m 12,-0.048 c 0,-0.18976 -1.0125,-1.20226 -2.25,-2.25 l -2.25,-1.90495 1.90499,2.25 c 1.79022,2.11444 2.59501,2.70524 2.59501,1.90499 z m 3.99997,-1.98068 c 0,-0.17912 -1.2375,-1.41662 -2.75,-2.75 l -2.74997,-2.42427 2.42427,2.75 c 2.2659,2.57029 3.0757,3.20859 3.0757,2.42431 z m 7,-0.0519 c 0,-0.20765 -0.7875,-0.99515 -1.75,-1.75 -1.586,-1.24387 -1.6214,-1.2085 -0.3775,0.37756 1.3063,1.66575 2.1275,2.19548 2.1275,1.37244 z m -21.99997,-9.12237 c -3.54322,-3.575 -6.7434,-6.5 -7.11151,-6.5 -0.73391,0 12.31969,12.95342 13.08262,12.98222 0.25911,0.01 -2.42789,-2.90722 -5.97111,-6.48222 z m 14.99997,5.2187 c 0,-0.15472 -2.8125,-2.96722 -6.24997,-6.25 l -6.25,-5.9687 5.9687,6.25 c 5.54437,5.80572 6.53127,6.7076 6.53127,5.9687 z m -12.99997,-14.2187 c -0.68469,-0.825 -1.7258,-1.5 -2.31357,-1.5 -0.58778,0 -0.19518,0.66069 0.87244,1.4682 2.50847,1.89731 2.99833,1.90812 1.44113,0.0318 z M 339.7563,292.31767 c 18.52143,-11.62811 46.88544,-34.86106 69.31513,-56.776 6.05,-5.91116 13.3625,-12.61874 16.25,-14.90573 4.4481,-3.52305 5.25,-4.66636 5.25,-7.48515 0,-5.67883 2.68168,-17.6871 5.54976,-24.85125 2.31495,-5.78245 4.46995,-8.66186 13.84595,-18.5002 18.2431,-19.1427 27.83899,-32.73862 38.57256,-54.65145 10.7617,-21.97026 16.6681,-42.64291 19.0895,-66.81424 2.4753,-24.7088 -3.2522,-58.05326 -15.0646,-87.70293 -29.11686,-73.08471 -87.7517,-121.0574 -159.45088,-130.45634 -41.16709,-5.39653 -81.36431,-0.29999 -107.54229,13.63511 -12.76581,6.79552 -37.84136,22.11884 -43.65455,26.67668 -7.22362,5.66371 -10.64795,12.89069 -13.89963,29.33499 -2.8955,14.643 -6.86738,23.45102 -15.43911,34.23763 -5.39613,6.79046 -12.22092,12.79137 -38.43239,33.79288 -4.35913,3.49267 -8.08686,6.83384 -8.28385,7.42481 -0.19699,0.59098 1.24541,2.8288 3.20534,4.97295 1.95992,2.14415 7.93766,9.07328 13.28385,15.39805 5.34619,6.32478 12.28854,14.13998 15.42744,17.36711 l 5.70711,5.86751 2.94607,-1.86711 c 1.62035,-1.0269 6.92715,-5.41167 11.7929,-9.74392 12.20981,-10.87108 49.95522,-40.94757 61.46364,-48.97576 8.13729,-5.67652 22.19921,-12.71753 30.88318,-15.46366 11.50128,-3.63705 18.20767,-4.56604 32.5,-4.50203 11.88383,0.0532 15.49397,0.46467 23.88369,2.72198 24.4399,6.5757 46.9678,21.98964 62.75049,42.93485 15.22908,20.21051 22.30204,43.44366 22.27283,73.16144 -0.0172,17.47264 -1.0335,23.4098 -6.381,37.27634 -3.27703,8.49763 -9.86039,18.99877 -17.34746,27.67101 -7.55774,8.7541 -51.27197,44.69701 -81.17855,66.747 -27.37876,20.18624 -27.80251,20.70461 -22.95617,28.08247 3.85845,5.87392 25.8961,34.51796 44.12994,57.35908 13.02929,16.32149 19.70344,23.27054 22.42364,23.34725 0.32857,0.009 4.41793,-2.38175 9.08746,-5.31337 z m 77.8384,-155.1857 c -12.1128,-15.13375 -22.02327,-27.76612 -22.02327,-28.07193 0,-0.3058 1.13774,-2.49741 2.52831,-4.87024 1.39057,-2.37283 3.89854,-8.06876 5.57327,-12.65764 17.89499,-49.03342 7.09243,-99.36237 -28.75295,-133.95961 -9.67045,-9.33371 -17.57882,-14.73292 -30.71847,-20.97214 -20.32859,-9.65279 -41.22233,-13.69761 -64.13016,-12.41495 -24.64636,1.38 -29.47352,1.16731 -34.23425,-1.50836 -2.46773,-1.38695 -5.60414,-4.47143 -7.59384,-7.46814 -1.86434,-2.80791 -10.46692,-14.0469 -19.11682,-24.97553 -8.64991,-10.92864 -15.90868,-20.36869 -16.1306,-20.97789 -0.71544,-1.96403 0.89297,-3.23523 11.07803,-8.75558 33.80264,-18.32117 64.52238,-26.81303 96.99748,-26.81303 40.01562,0 77.56765,13.16701 114,39.97223 17.24071,12.68491 30.85655,27.30216 43.7696,46.98873 32.83077,50.0521 40.45467,110.26762 21.31937,168.38627 -8.6865,26.38294 -21.70844,48.62778 -38.55723,65.86551 -5.24245,5.36347 -10.08377,9.75097 -10.75847,9.75 -0.67471,-9.8e-4 -11.13721,-12.38394 -23.25,-27.5177 z m 46.83967,-5.41458 C 482.11,105.22018 492.8229,73.1673 495.7037,38.15968 499.2179,-4.545 485.0652,-50.67243 457.00021,-87.9854 c -24.08374,-32.01983 -63.44085,-57.97566 -103.59218,-68.31853 -16.67236,-4.29475 -25.56011,-5.40793 -42.8366,-5.36519 -30.66804,0.0759 -60.44592,8.12485 -91.28146,24.67349 l -10.78147,5.78613 1.78147,2.33132 c 0.9798,1.28223 7.21964,9.23764 13.86631,17.6787 6.64667,8.44105 14.42327,18.57963 17.28135,22.53016 6.6018,9.12526 8.64115,9.91479 22.56,8.73408 17.24524,-1.46288 35.88517,-0.88859 48.30934,1.48841 12.32495,2.35801 28.27585,7.56348 37.69857,12.30266 26.92162,13.54031 49.5214,39.50313 59.70063,68.58457 10.48011,29.94106 8.52707,69.77869 -4.82555,98.43036 -2.49779,5.35967 -3.30095,8.11367 -2.62471,9 0.53591,0.70242 9.48345,12.00304 19.8834,25.11249 l 18.909,23.83536 8.5476,-8.83536 c 4.70117,-4.85945 11.37848,-13.07908 14.83846,-18.26586 z M 446.57143,85.69611 c -10.69732,-2.11096 -18,-11.60054 -18,-23.39037 0,-10.1288 4.5249,-18.537 12.48673,-23.20294 12.73992,-7.46609 27.98963,-1.69343 32.99365,12.48949 6.41619,18.18537 -9.30134,37.69118 -27.48038,34.10382 z m 11.50796,-5.61902 c 1.82061,-0.86394 4.056,-2.39488 4.96752,-3.4021 1.57423,-1.73951 0.97346,-2.42518 -11.98534,-13.6792 -7.50345,-6.51635 -14.03692,-11.99077 -14.51883,-12.16538 -0.48191,-0.17462 -1.61605,2.2275 -2.52031,5.33803 -1.36462,4.69415 -1.44492,6.44798 -0.47235,10.31748 2.97092,11.82027 14.63815,18.28483 24.52931,13.59117 z m -19.50796,-0.80676 c 0,-0.20765 -0.7875,-0.99515 -1.75,-1.75 -1.58606,-1.24387 -1.62143,-1.2085 -0.37756,0.37756 1.30637,1.66575 2.12756,2.19548 2.12756,1.37244 z m 30.83948,-11.16949 c 1.81559,-3.98478 1.427,-13.013 -0.74216,-17.24279 -3.59413,-7.00842 -8.77098,-10.22375 -16.41242,-10.19371 -4.02481,0.0158 -11.87537,3.47739 -12.08783,5.32993 -0.097,0.84571 26.37736,24.55283 27.49241,24.61876 0.32422,0.0192 1.11172,-1.11131 1.75,-2.51219 z m -12.83948,-3.83051 c 0,-0.20765 -0.7875,-0.99515 -1.75,-1.75 -1.58606,-1.24387 -1.62143,-1.2085 -0.37756,0.37756 1.30637,1.66575 2.12756,2.19548 2.12756,1.37244 z m -7,-6 c 0,-0.20765 -0.7875,-0.99515 -1.75,-1.75 -1.58606,-1.24387 -1.62143,-1.2085 -0.37756,0.37756 1.30637,1.66575 2.12756,2.19548 2.12756,1.37244 z m 19,-13 c 0,-0.20765 -0.7875,-0.99515 -1.75,-1.75 -1.58606,-1.24387 -1.62143,-1.2085 -0.37756,0.37756 1.30637,1.66575 2.12756,2.19548 2.12756,1.37244 z M 300.56496,-96.22658 c -10.72118,-3.51734 -17.96876,-12.58672 -17.98795,-22.50951 -0.0182,-9.39034 7.59684,-19.2326 17.05308,-22.0408 6.61436,-1.96425 10.21012,-1.98154 16.61379,-0.0799 7.19798,2.13757 13.55208,8.04424 15.65365,14.55138 1.97239,6.10714 2.03676,7.62656 0.56992,13.45191 -1.36367,5.41565 -6.75622,11.87857 -12.25347,14.68567 -4.48699,2.29122 -15.31997,3.36146 -19.64902,1.9412 z m 15.64538,-5.20726 c 3.47659,-1.27479 9.55503,-7.13819 11.01005,-10.62053 1.62192,-3.88182 1.73921,-9.13794 0.28971,-12.98264 -1.20299,-3.19083 -6.75791,-9.3151 -8.4491,-9.3151 -0.86858,0 -17.48957,31.82128 -17.48957,33.48419 0,1.41892 10.3132,1.02022 14.63891,-0.56592 z m -2.63891,-35.56484 c 0,-0.19438 -2.49735,-0.35343 -5.54966,-0.35343 -11.41651,0 -20.45034,8.17938 -20.45034,18.51608 0,5.48209 1.02651,7.7185 5.86586,12.77967 l 3.62938,3.79575 8.25238,-17.19231 c 4.53881,-9.45578 8.25238,-17.35137 8.25238,-17.54576 z m 17.69299,16.9156 c -0.25354,-0.97297 -0.47766,-0.41903 -0.49804,1.23097 -0.0204,1.65 0.18706,2.44606 0.46099,1.76903 0.27392,-0.67703 0.29059,-2.02703 0.0371,-3 z m -3.69299,-10.59472 c 0,-0.17912 -1.2375,-1.41662 -2.75,-2.75 l -2.75,-2.42431 2.42431,2.75 c 2.26589,2.57029 3.07569,3.20859 3.07569,2.42431 z m -18.25,-9.36364 c -0.9625,-0.25152 -2.5375,-0.25152 -3.5,0 -0.9625,0.25153 -0.175,0.45733 1.75,0.45733 1.925,0 2.7125,-0.2058 1.75,-0.45733 z M 414.25454,53.46039 c -0.31922,-0.79773 -0.55618,-0.56078 -0.60416,0.60417 -0.0434,1.05416 0.19293,1.64479 0.52522,1.3125 0.33229,-0.33229 0.36781,-1.1948 0.0789,-1.91667 z m 83.99996,-16 c -0.3192,-0.79773 -0.5561,-0.56078 -0.6041,0.60417 -0.043,1.05416 0.1929,1.64479 0.5252,1.3125 0.3323,-0.3323 0.3678,-1.1948 0.079,-1.91667 z m 0,-25 c -0.3192,-0.79773 -0.5561,-0.56078 -0.6041,0.60417 -0.043,1.05416 0.1929,1.64479 0.5252,1.3125 0.3323,-0.3323 0.3678,-1.1948 0.079,-1.91667 z M 385.57143,-35.72967 c 0,-0.20765 -0.7875,-0.99515 -1.75,-1.75 -1.58606,-1.24387 -1.62143,-1.2085 -0.37756,0.37756 1.30637,1.66575 2.12756,2.19548 2.12756,1.37244 z M 263.3006,-76.95628 c -0.3323,-0.33229 -1.1948,-0.36781 -1.91667,-0.0789 -0.79773,0.31922 -0.56078,0.55618 0.60417,0.60416 1.05416,0.0434 1.64479,-0.19292 1.3125,-0.52522 z m 23.99853,-2.12563 c -2.07477,-0.21647 -5.22477,-0.21284 -7,0.008 -1.77524,0.22091 -0.0777,0.39803 3.7723,0.39359 3.85,-0.004 5.30246,-0.18518 3.2277,-0.40166 z m 159.2723,-25.64776 c 0,-0.20765 -0.7875,-0.99515 -1.75,-1.75 -1.58606,-1.24387 -1.62143,-1.2085 -0.37756,0.37756 1.30637,1.66575 2.12756,2.19548 2.12756,1.37244 z m -6,-6 c 0,-0.20765 -0.7875,-0.99515 -1.75,-1.75 -1.58606,-1.24387 -1.62143,-1.2085 -0.37756,0.37756 1.30637,1.66575 2.12756,2.19548 2.12756,1.37244 z M 301.3006,-163.95628 c -0.3323,-0.33229 -1.1948,-0.36782 -1.91667,-0.079 -0.79773,0.31923 -0.56078,0.55619 0.60417,0.60417 1.05416,0.0434 1.64479,-0.19293 1.3125,-0.52522 z m 22,0 c -0.33229,-0.33229 -1.1948,-0.36782 -1.91667,-0.079 -0.79773,0.31923 -0.56078,0.55619 0.60417,0.60417 1.05416,0.0434 1.64479,-0.19293 1.3125,-0.52522 z m 58.39839,427.85417 c 1.24387,-1.58606 1.2085,-1.62143 -0.37756,-0.37756 -0.9625,0.75485 -1.75,1.54235 -1.75,1.75 0,0.82304 0.82119,0.29331 2.12756,-1.37244 z m 7,-6 c 1.24387,-1.58606 1.2085,-1.62143 -0.37756,-0.37756 -1.66575,1.30637 -2.19548,2.12756 -1.37244,2.12756 0.20765,0 0.99515,-0.7875 1.75,-1.75 z m 8.37244,-7.25 c 0.99549,-1.1 1.58498,-2 1.30998,-2 -0.275,0 -1.31449,0.9 -2.30998,2 -0.99549,1.1 -1.58498,2 -1.30998,2 0.275,0 1.31449,-0.9 2.30998,-2 z m 12.5,-11.5 c 1.29175,-1.375 2.12363,-2.5 1.84863,-2.5 -0.275,0 -1.55688,1.125 -2.84863,2.5 -1.29175,1.375 -2.12363,2.5 -1.84863,2.5 0.275,0 1.55688,-1.125 2.84863,-2.5 z m 6.12756,-6.25 c 1.24387,-1.58606 1.2085,-1.62143 -0.37756,-0.37756 -1.66575,1.30637 -2.19548,2.12756 -1.37244,2.12756 0.20765,0 0.99515,-0.7875 1.75,-1.75 z m 15,-13 c 1.24387,-1.58606 1.2085,-1.62143 -0.37756,-0.37756 -1.66575,1.30637 -2.19548,2.12756 -1.37244,2.12756 0.20765,0 0.99515,-0.7875 1.75,-1.75 z m -167.12756,-15.75 c 1.29175,-1.375 2.12363,-2.5 1.84863,-2.5 -0.275,0 -1.55688,1.125 -2.84863,2.5 -1.29175,1.375 -2.12363,2.5 -1.84863,2.5 0.275,0 1.55688,-1.125 2.84863,-2.5 z M 300.66822,172.605 c 8.16171,-6.30141 14.85381,-11.72467 14.87134,-12.05169 0.0175,-0.32702 -4.53065,-5.72702 -10.10707,-12 -13.86718,-15.59937 -24.23777,-28.35589 -39.35183,-48.40542 -7.04837,-9.35 -14.94205,-19.56183 -17.5415,-22.69296 l -4.72627,-5.69296 -2.37073,2.55144 c -1.3039,1.40329 -7.46191,6.36555 -13.68446,11.02724 -6.22255,4.66169 -11.54109,9.06831 -11.81898,9.79248 -0.27789,0.72417 5.95657,9.34874 13.85436,19.16572 18.97323,23.58378 45.31579,57.4107 50.29624,64.58623 2.19016,3.15545 4.37751,5.61115 4.86077,5.45711 0.48327,-0.15404 7.55643,-5.43578 15.71813,-11.73719 z m 148.90321,1.54289 c 2.98742,-3.025 5.20668,-5.5 4.93168,-5.5 -0.275,0 -2.94426,2.475 -5.93168,5.5 -2.98742,3.025 -5.20668,5.5 -4.93168,5.5 0.275,0 2.94426,-2.475 5.93168,-5.5 z m -138,-22.87756 c 0,-0.20765 -0.7875,-0.99515 -1.75,-1.75 -1.58606,-1.24387 -1.62143,-1.2085 -0.37756,0.37756 1.30637,1.66575 2.12756,2.19548 2.12756,1.37244 z m -8,-9 c 0,-0.20765 -0.7875,-0.99515 -1.75,-1.75 -1.58606,-1.24387 -1.62143,-1.2085 -0.37756,0.37756 1.30637,1.66575 2.12756,2.19548 2.12756,1.37244 z m 45.5,-5.62244 c 0.99549,-1.1 1.58498,-2 1.30998,-2 -0.275,0 -1.31449,0.9 -2.30998,2 -0.99549,1.1 -1.58498,2 -1.30998,2 0.275,0 1.31449,-0.9 2.30998,-2 z m 9.5,-8.5 c 0.69443,-0.83674 0.80272,-1.5 0.24489,-1.5 -0.55,0 -1.5602,0.675 -2.24489,1.5 -0.69443,0.83674 -0.80272,1.5 -0.24489,1.5 0.55,0 1.5602,-0.675 2.24489,-1.5 z m 19.60315,-28.76291 c 4.35519,-8.48878 8.35249,-22.16556 9.38308,-32.10427 2.16,-20.83037 -3.63646,-50.58595 -13.15477,-67.52881 -7.77808,-13.84519 -21.4449,-28.86112 -34.97994,-38.43295 -8.25472,-5.83764 -22.94669,-12.85405 -32.85152,-15.68881 -9.63875,-2.75862 -28.09047,-3.72074 -38.74966,-2.02052 -8.50071,1.35593 -24.30687,6.18271 -28.25034,8.62689 -1.76964,1.09684 -1.91571,1.36322 -0.5,0.91182 9.98816,-3.1847 15.94703,-3.91118 32,-3.90133 18.50591,0.0114 28.35281,1.42343 42.20981,6.05297 16.28201,5.43973 27.0128,12.20664 38.83494,24.4896 16.23591,16.86876 24.01555,31.31862 29.08412,54.02069 2.04656,9.16651 2.35185,37.51472 0.49902,46.33763 -1.50876,7.1845 -5.71864,20.72718 -7.75883,24.95926 -1.37223,2.84648 -1.36186,2.91297 0.1623,1.04074 0.8955,-1.1 2.7278,-4.14331 4.07179,-6.76291 z M 216.07143,91.64789 c 0.99549,-1.1 1.58498,-2 1.30998,-2 -0.275,0 -1.31449,0.9 -2.30998,2 -0.99549,1.1 -1.58498,2 -1.30998,2 0.275,0 1.31449,-0.9 2.30998,-2 z m 23.62756,-18.75 c 1.24387,-1.58606 1.2085,-1.62143 -0.37756,-0.37756 -1.66575,1.30637 -2.19548,2.12756 -1.37244,2.12756 0.20765,0 0.99515,-0.7875 1.75,-1.75 z m 141.60091,-18 c -0.21575,-2.0625 -0.39226,-0.375 -0.39226,3.75 0,4.125 0.17651,5.8125 0.39226,3.75 0.21574,-2.0625 0.21574,-5.4375 0,-7.5 z m 8.95464,-5.4375 c -0.31922,-0.79773 -0.55618,-0.56078 -0.60416,0.60417 -0.0434,1.05416 0.19293,1.64479 0.52522,1.3125 0.33229,-0.3323 0.36781,-1.1948 0.0789,-1.91667 z m 119.99996,-3 c -0.3192,-0.79773 -0.5561,-0.56078 -0.6041,0.60417 -0.043,1.05416 0.1929,1.64479 0.5252,1.3125 0.3323,-0.3323 0.3678,-1.1948 0.079,-1.91667 z M 173.28919,33.89789 c 5.39276,-3.69024 18.41154,-15.58105 21.22399,-19.38509 1.42091,-1.92188 1.91108,-3.41208 1.31756,-4.0056 -1.03718,-1.03718 -10.94373,6.24597 -23.03676,16.9363 -5.83257,5.15603 -7.04915,6.7084 -6.12755,7.81885 1.56419,1.88474 2.00822,1.79325 6.62276,-1.36446 z m -6.15485,-4.5 2.93709,-3.25 -3.25,2.93709 c -3.02946,2.73778 -3.70965,3.56291 -2.93709,3.56291 0.1721,0 1.6346,-1.4625 3.25,-3.25 z m 15.56465,0.5 c 1.24387,-1.58606 1.2085,-1.62143 -0.37756,-0.37756 -1.66575,1.30637 -2.19548,2.12756 -1.37244,2.12756 0.20765,0 0.99515,-0.7875 1.75,-1.75 z m -12.43896,-6.81766 c 4.14175,-3.61221 10.63116,-8.88805 14.42092,-11.7241 3.78977,-2.83605 6.87616,-5.61811 6.85865,-6.18235 -0.0175,-0.56424 -2.1856,-3.45273 -4.81799,-6.41887 l -4.78617,-5.39297 -6.93201,5.81395 c -3.8126,3.19768 -10.18784,8.69651 -14.16721,12.21963 l -7.2352,6.40568 4.02247,5.92335 c 2.21235,3.25783 4.26628,5.92334 4.56428,5.92334 0.298,0 3.93052,-2.95544 8.07226,-6.56766 z m 339.99447,1.38016 c -0.3192,-0.79773 -0.5561,-0.56078 -0.6041,0.60417 -0.043,1.05416 0.1929,1.64479 0.5252,1.3125 0.3323,-0.3323 0.3678,-1.1948 0.079,-1.91667 z M 155.07143,13.64789 c 0.99549,-1.1 1.58498,-2 1.30998,-2 -0.27501,0 -1.31449,0.9 -2.30998,2 -0.99549,1.1 -1.58497,2 -1.30997,2 0.275,0 1.31448,-0.9 2.30997,-2 z m -35.5,-18.37756 c 0,-0.20765 -0.7875,-0.99515 -1.75,-1.75 -1.58606,-1.24387 -1.62143,-1.2085 -0.37756,0.37756 1.30637,1.66575 2.12756,2.19548 2.12756,1.37244 z m 68.75,-7.54593 c 0.1375,-0.0421 0.40131,0.036 0.58625,0.17349 0.18494,0.1375 2.99744,-2.18902 6.25,-5.17005 3.25256,-2.98103 7.37558,-6.28758 9.16226,-7.3479 1.78668,-1.06032 3.00439,-2.32285 2.70602,-2.80563 -0.46554,-0.75326 -2.90093,0.96148 -13.71596,9.6573 -0.96879,0.77895 -2.19046,1.41628 -2.71482,1.41628 -0.52436,0 -1.44179,0.9126 -2.03874,2.02801 -0.59695,1.1154 -1.48168,1.78306 -1.96608,1.48369 -0.48441,-0.29938 -1.13897,-0.12649 -1.45459,0.3842 -0.45184,0.7311 1.09956,0.81905 3.18566,0.18061 z m 168.25,-0.45407 c 0,-0.20765 -0.7875,-0.99515 -1.75,-1.75 -1.58606,-1.24387 -1.62143,-1.2085 -0.37756,0.37756 1.30637,1.66575 2.12756,2.19548 2.12756,1.37244 z m 6,-8.9066 c 0,-0.15629 -2.5875,-2.74379 -5.75,-5.75 l -5.75,-5.46584 5.46584,5.75 c 5.07794,5.34193 6.03416,6.20809 6.03416,5.46584 z m -18,-3.0934 c 0,-0.20765 -0.7875,-0.99515 -1.75,-1.75 -1.58606,-1.24387 -1.62143,-1.2085 -0.37756,0.37756 1.30637,1.66575 2.12756,2.19548 2.12756,1.37244 z m -133.66459,-3.96835 c 0.64052,0.36661 0.81407,0.28139 0.38565,-0.18938 -1.45408,-1.59779 -3.61618,-1.35496 -2.9683,0.33337 0.40143,1.04612 0.75354,1.18303 1.01617,0.39513 0.22104,-0.66312 0.92596,-0.90572 1.56648,-0.53912 z m 54.39376,-20.25826 c -0.3323,-0.33229 -1.1948,-0.36781 -1.91667,-0.0789 -0.79773,0.31922 -0.56078,0.55618 0.60417,0.60416 1.05416,0.0434 1.64479,-0.19293 1.3125,-0.52522 z m 14,0 c -0.3323,-0.33229 -1.1948,-0.36781 -1.91667,-0.0789 -0.79773,0.31922 -0.56078,0.55618 0.60417,0.60416 1.05416,0.0434 1.64479,-0.19293 1.3125,-0.52522 z m -142.60161,-4.14583 c 1.24387,-1.58606 1.2085,-1.62143 -0.37756,-0.37756 -0.9625,0.75485 -1.75,1.54235 -1.75,1.75 0,0.82304 0.82119,0.29331 2.12756,-1.37244 z m 9,-8 c 1.24387,-1.58606 1.2085,-1.62143 -0.37756,-0.37756 -0.9625,0.75485 -1.75,1.54235 -1.75,1.75 0,0.82304 0.82119,0.29331 2.12756,-1.37244 z m 139.12244,1.04427 c -1.2375,-0.23836 -3.2625,-0.23836 -4.5,0 -1.2375,0.23835 -0.225,0.43337 2.25,0.43337 2.475,0 3.4875,-0.19502 2.25,-0.43337 z m 155.75,-61.67183 c 0,-0.20765 -0.7875,-0.99515 -1.75,-1.75 -1.58606,-1.24387 -1.62143,-1.2085 -0.37756,0.37756 1.30637,1.66575 2.12756,2.19548 2.12756,1.37244 z m -263.87244,-6.37244 c 1.24387,-1.58606 1.2085,-1.62143 -0.37756,-0.37756 -0.9625,0.75485 -1.75,1.54235 -1.75,1.75 0,0.82304 0.82119,0.29331 2.12756,-1.37244 z m 111.12244,-45.91228 c -0.6875,-0.27741 -1.8125,-0.27741 -2.5,0 -0.6875,0.27741 -0.125,0.50438 1.25,0.50438 1.375,0 1.9375,-0.22697 1.25,-0.50438 z m 28,0 c -0.6875,-0.27741 -1.8125,-0.27741 -2.5,0 -0.6875,0.27741 -0.125,0.50438 1.25,0.50438 1.375,0 1.9375,-0.22697 1.25,-0.50438 z"
       id="path3111"
       inkscape:connector-curvature="0" />
  </g>
</svg>
