<?xml version="1.0" encoding="UTF-8" standalone="no"?>
<!-- Created with Inkscape (http://www.inkscape.org/) -->

<svg
   width="500"
   height="500"
   id="svg2"
   version="1.1"
   inkscape:version="1.4.2 (1:1.4.2+202505120737+ebf0e940d0)"
   inkscape:export-filename="/home/brian/src/cytoflow/cytoflowgui/view_plugins/images/kde_1d.png"
   inkscape:export-xdpi="5.8299999"
   inkscape:export-ydpi="5.8299999"
   sodipodi:docname="register.svg"
   xmlns:inkscape="http://www.inkscape.org/namespaces/inkscape"
   xmlns:sodipodi="http://sodipodi.sourceforge.net/DTD/sodipodi-0.dtd"
   xmlns="http://www.w3.org/2000/svg"
   xmlns:svg="http://www.w3.org/2000/svg"
   xmlns:rdf="http://www.w3.org/1999/02/22-rdf-syntax-ns#"
   xmlns:cc="http://creativecommons.org/ns#"
   xmlns:dc="http://purl.org/dc/elements/1.1/">
  <defs
     id="defs4" />
  <sodipodi:namedview
     id="base"
     pagecolor="#ffffff"
     bordercolor="#666666"
     borderopacity="1.0"
     inkscape:pageopacity="0.0"
     inkscape:pageshadow="2"
     inkscape:zoom="0.93277918"
     inkscape:cx="-52.53119"
     inkscape:cy="240.67861"
     inkscape:document-units="px"
     inkscape:current-layer="layer1"
     showgrid="false"
     inkscape:window-width="1854"
     inkscape:window-height="1131"
     inkscape:window-x="66"
     inkscape:window-y="32"
     inkscape:window-maximized="1"
     showguides="true"
     inkscape:guide-bbox="true"
     inkscape:showpageshadow="2"
     inkscape:pagecheckerboard="0"
     inkscape:deskcolor="#d1d1d1" />
  <metadata
     id="metadata7">
    <rdf:RDF>
      <cc:Work
         rdf:about="">
        <dc:format>image/svg+xml</dc:format>
        <dc:type
           rdf:resource="http://purl.org/dc/dcmitype/StillImage" />
      </cc:Work>
    </rdf:RDF>
  </metadata>
  <g
     inkscape:label="Layer 1"
     inkscape:groupmode="layer"
     id="layer1"
     transform="translate(0,-552.36218)">
    <path
       style="fill:none;fill-opacity:0.502591;stroke:#4c72b0;stroke-width:42.6667;stroke-linecap:round;stroke-linejoin:miter;stroke-miterlimit:0;stroke-dasharray:none;stroke-opacity:1"
       d="M -38.908897,1032.918 C 65.942803,944.43767 47.30665,893.06183 78.953595,859.40257 c 31.646925,-33.65927 90.988945,3.67766 111.739755,58.32789 11.7407,30.92085 25.98847,54.02888 47.92444,71.47521 40.90993,19.44933 88.68886,-96.14384 120.33581,-129.8031 31.64692,-33.65927 90.98894,3.67766 111.73975,58.32789 11.7407,30.92085 55.98847,95.48004 77.45112,113.21404"
       id="path2997"
       inkscape:connector-curvature="0"
       sodipodi:nodetypes="czsczsc"
       inkscape:export-xdpi="5.8299999"
       inkscape:export-ydpi="5.8299999" />
    <path
       style="fill:none;fill-opacity:0.502135;stroke:#4c72b0;stroke-width:42.667;stroke-linecap:round;stroke-linejoin:miter;stroke-miterlimit:0;stroke-dasharray:none;stroke-opacity:1"
       d="M -38.908897,792.918 C 65.9428,704.43767 47.306671,633.06185 78.9536,599.40257 c 15.82346,-16.82964 38.57069,-20.91022 60.09718,-14.22261 21.52649,6.68761 49.56203,96.35095 52.77269,90.38655 15.74437,-34.9816 43.79103,-92.9343 70.737,-92.89476 26.94597,0.0396 52.79125,18.07134 64.13288,55.05871 9.69629,31.62159 43.10545,137.41249 77.45112,153.21404"
       id="path8794"
       inkscape:connector-curvature="0"
       sodipodi:nodetypes="csscssc"
       inkscape:export-xdpi="5.8299999"
       inkscape:export-ydpi="5.8299999" />
    <g
       id="path5427"
       style="fill:#000000;fill-opacity:1;stroke-width:1.45605"
       transform="matrix(0.75722057,0,0,0.62291667,62.220193,303.59807)">
      <g
         id="g7219"
         style="fill:#000000;fill-opacity:1;stroke-width:2.22285"
         transform="matrix(0.65503323,0,0,0.65503323,-234.30707,160.22735)">
        <path
           d="M 871.57409,956.97814 775.6678,1148.7907 a 29.866689,29.866689 0 0 1 -53.42716,0 L 626.33435,956.97814 a 36.917258,36.917258 0 0 1 33.0198,-53.42716 h 179.20014 a 36.917258,36.917258 0 0 1 33.0198,53.42716 z"
           style="fill:#000000;fill-opacity:1;fill-rule:evenodd;stroke-width:66.3893"
           id="path7221" />
      </g>
    </g>
    <path
       style="fill:none;fill-opacity:1;stroke-width:10.6667;stroke-linecap:round"
       d="m 311,765.46625 c -37.47195,-13.58864 -58.25971,-22.54198 -74.75272,-32.19618 -7.77027,-4.54834 -12.19008,-8.16002 -21.79109,-17.80674 -18.09051,-18.17663 -28.46531,-34.62715 -41.46577,-65.74907 -3.13561,-7.50636 -7.81835,-16.83271 -10.40609,-20.72523 -16.49266,-24.8085 -46.93237,-33.34984 -65.19737,-18.29429 -6.499,5.35703 -11.56353,13.51593 -23.38154,37.66744 -17.42161,35.60311 -29.548,52.76949 -57.486769,81.37946 -15.202668,15.5679 -40.296754,38.37039 -41.692302,37.88496 C -26.279855,767.24181 -51,737.87656 -51,736.94728 c 0,-0.4313 5.269028,-5.46438 11.70895,-11.18464 C -23.446144,711.68842 -6.128996,694.24783 3.895141,682.26861 17.149646,666.42898 25.500097,653.06862 37.197836,628.98572 49.7535,603.13656 54.70074,595.07094 63.8795,585.48588 c 15.2048,-15.87784 33.47404,-23.7363 55.12206,-23.7106 17.0323,0.0202 33.31676,4.89563 47.707,14.28301 21.4003,13.96036 33.62951,29.94559 45.75189,59.80389 5.21306,12.84015 11.76742,25.48491 17.88201,34.49821 6.36304,9.37951 19.61654,22.49777 27.31454,27.03579 13.49642,7.95625 42.90396,20.45847 70.37661,29.91969 7.44348,2.56344 14.07612,4.99609 14.73919,5.40589 1.61808,1.00003 -10.80156,38.538 -12.85887,38.86551 -0.77766,0.1238 -9.28893,-2.63065 -18.91393,-6.12102 z"
       id="path1" />
  </g>
</svg>
