<?xml version="1.0" encoding="UTF-8" standalone="no"?>
<!-- Created with Inkscape (http://www.inkscape.org/) -->

<svg
   width="500"
   height="500"
   id="svg2"
   version="1.1"
   inkscape:version="1.2.2 (b0a8486541, 2022-12-01)"
   inkscape:export-filename="/home/brian/src/cytoflow/cytoflowgui/view_plugins/images/bar_chart.png"
   inkscape:export-xdpi="5.8299999"
   inkscape:export-ydpi="5.8299999"
   sodipodi:docname="som.svg"
   xml:space="preserve"
   xmlns:inkscape="http://www.inkscape.org/namespaces/inkscape"
   xmlns:sodipodi="http://sodipodi.sourceforge.net/DTD/sodipodi-0.dtd"
   xmlns="http://www.w3.org/2000/svg"
   xmlns:svg="http://www.w3.org/2000/svg"
   xmlns:rdf="http://www.w3.org/1999/02/22-rdf-syntax-ns#"
   xmlns:cc="http://creativecommons.org/ns#"
   xmlns:dc="http://purl.org/dc/elements/1.1/"><defs
     id="defs4" /><sodipodi:namedview
     id="base"
     pagecolor="#ffffff"
     bordercolor="#666666"
     borderopacity="1.0"
     inkscape:pageopacity="0.0"
     inkscape:pageshadow="2"
     inkscape:zoom="1.979899"
     inkscape:cx="237.13331"
     inkscape:cy="272.48865"
     inkscape:document-units="px"
     inkscape:current-layer="layer1"
     showgrid="false"
     inkscape:window-width="2494"
     inkscape:window-height="1371"
     inkscape:window-x="66"
     inkscape:window-y="32"
     inkscape:window-maximized="1"
     showguides="true"
     inkscape:guide-bbox="true"
     inkscape:showpageshadow="2"
     inkscape:pagecheckerboard="0"
     inkscape:deskcolor="#d1d1d1" /><metadata
     id="metadata7"><rdf:RDF><cc:Work
         rdf:about=""><dc:format>image/svg+xml</dc:format><dc:type
           rdf:resource="http://purl.org/dc/dcmitype/StillImage" /></cc:Work></rdf:RDF></metadata><g
     inkscape:label="Layer 1"
     inkscape:groupmode="layer"
     id="layer1"
     transform="translate(0,-552.36218)"><path
       style="fill:none;stroke:#000000;stroke-width:30;stroke-linecap:round;stroke-dasharray:none;stroke-opacity:1"
       d="M 119.87425,666.07834 382.4815,930.24847"
       id="path14539"
       sodipodi:nodetypes="cc" /><path
       style="fill:none;stroke:#000000;stroke-width:30;stroke-linecap:round;stroke-dasharray:none;stroke-opacity:1"
       d="M 119.51055,931.36919 382.4815,930.24847"
       id="path14537"
       sodipodi:nodetypes="cc" /><path
       style="fill:none;stroke:#000000;stroke-width:30;stroke-linecap:round;stroke-dasharray:none;stroke-opacity:1"
       d="M 119.51055,671.36919 382.4815,670.24847"
       id="path6440"
       sodipodi:nodetypes="cc" /><path
       style="fill:none;stroke:#000000;stroke-width:30;stroke-linecap:round;stroke-dasharray:none;stroke-opacity:1"
       d="M 119.51055,671.36919 382.4815,670.24847"
       id="path6442"
       sodipodi:nodetypes="cc" /><path
       style="fill:none;stroke:#000000;stroke-width:30;stroke-linecap:round;stroke-dasharray:none;stroke-opacity:1"
       d="M 119.51055,671.36919 119.09739,942.285"
       id="path6338"
       sodipodi:nodetypes="cc" /><path
       style="fill:none;stroke:#000000;stroke-width:30;stroke-linecap:round;stroke-dasharray:none;stroke-opacity:1"
       d="M 383.51055,671.36919 383.09739,942.285"
       id="path6436"
       sodipodi:nodetypes="cc" /><path
       style="fill:#dd8452;stroke-width:0.443739;fill-opacity:1"
       d="m 110.78652,1037.5343 c -4.2209,-0.4129 -9.88116,-1.1748 -11.31535,-1.523 -0.8542,-0.2073 -2.75119,-0.6156 -4.21553,-0.9073 -1.46434,-0.2917 -3.86053,-0.9092 -5.32487,-1.3722 -1.46434,-0.4631 -3.36133,-1.052 -4.21553,-1.3087 -2.34724,-0.7055 -10.690904,-4.0171 -12.202831,-4.8433 -0.73217,-0.4002 -2.629156,-1.4043 -4.215525,-2.2313 -3.543481,-1.8474 -12.744973,-7.9042 -15.75145,-10.3682 -6.555359,-5.3726 -8.914624,-7.6626 -13.758151,-13.3545 -5.680864,-6.67598 -10.720821,-14.29565 -14.381804,-21.74328 -1.559603,-3.17274 -3.031802,-6.26782 -3.27155,-6.87796 -0.239748,-0.61015 -0.595769,-1.50872 -0.791151,-1.99683 -0.418669,-1.0459 -1.686259,-4.96811 -3.011616,-9.31853 -3.874369,-12.71745 -4.821664,-32.55382 -2.214468,-46.37077 0.771676,-4.08952 1.356028,-6.82244 1.707851,-7.98731 0.184276,-0.61014 0.782903,-2.60697 1.330273,-4.43739 1.447425,-4.84021 4.228646,-11.97596 5.707399,-14.64341 0.202949,-0.36608 1.280535,-2.38143 2.39464,-4.47854 5.758625,-10.83966 15.975455,-23.14972 25.621667,-30.87106 4.26376,-3.41294 11.654746,-8.34116 16.196491,-10.79962 1.952453,-1.05687 3.84944,-2.08504 4.215525,-2.28484 1.476006,-0.80553 6.706966,-3.03971 7.11696,-3.03971 0.24126,0 0.78539,-0.19026 1.20918,-0.42279 1.56647,-0.85951 11.20431,-3.73701 14.97018,-4.46953 1.46434,-0.28484 3.56101,-0.69154 4.65927,-0.90378 9.42678,-1.82175 25.25407,-1.78087 35.05541,0.0906 6.41893,1.2256 8.40142,1.71141 14.64341,3.58833 7.80057,2.34558 17.49475,7.08117 25.73688,12.57243 12.16632,8.10573 24.89094,21.54305 31.5447,33.31153 1.77929,3.14701 5.50561,10.56582 6.32278,12.58816 0.44378,1.09825 0.99102,2.44611 1.2161,2.99524 1.03183,2.51737 1.26556,3.19859 2.16947,6.32329 0.5295,1.83042 1.12742,3.82725 1.32871,4.43739 0.20129,0.61014 0.60326,2.30745 0.89326,3.77179 0.29,1.46434 0.70232,3.46116 0.91626,4.43739 1.53804,7.01812 2.04515,24.21552 0.92902,31.5055 -2.76529,18.06144 -7.46145,30.58332 -16.75878,44.68571 -5.92365,8.98509 -12.78614,16.55759 -20.79608,22.94769 -9.59414,7.654 -16.65768,11.8052 -28.17745,16.5598 -1.95989,0.8089 -2.82002,1.1017 -6.21235,2.1149 -1.83043,0.5466 -3.82726,1.1614 -4.4374,1.3661 -1.35814,0.4557 -6.91126,1.5869 -11.98096,2.4406 -3.64604,0.614 -19.2328,1.1715 -22.85259,0.8174 z"
       id="path186"
       sodipodi:nodetypes="sssscscssssssssssssssssssssssssssssssssssss" /><path
       style="fill:#55a868;stroke-width:0.443739;fill-opacity:1"
       d="m 370.81785,1036.6493 c -3.87206,-0.3778 -14.15991,-2.2797 -16.8621,-3.1173 -16.67692,-5.1693 -27.68748,-10.9299 -39.49281,-20.6622 -7.56871,-6.2396 -13.75281,-13.0967 -19.57025,-21.70007 -9.08142,-13.43047 -14.29315,-27.24659 -16.80973,-44.56213 -1.18338,-8.14226 -0.74335,-25.31093 0.82538,-32.2048 0.11108,-0.48811 0.44237,-2.08558 0.73621,-3.54992 2.17267,-10.82745 7.74451,-24.06962 14.37668,-34.16793 10.19782,-15.52749 23.1508,-27.25687 39.30063,-35.58812 8.28579,-4.2744 16.51784,-7.31434 24.40567,-9.01254 1.34232,-0.28899 3.2393,-0.70058 4.21553,-0.91465 7.76376,-1.70243 26.05576,-2.08219 33.94607,-0.70476 8.53367,1.48974 9.59894,1.74099 17.81128,4.20092 6.8078,2.03921 17.79971,7.41088 25.00957,12.22202 16.39955,10.9434 30.23366,27.64962 37.90277,45.77175 3.66764,8.66656 7.03304,21.96133 7.86297,31.06176 1.80784,19.82332 -2.49355,40.91417 -11.92608,58.47731 -8.08613,15.05611 -19.4384,27.62896 -33.43298,37.02756 -13.38948,8.9922 -26.15373,13.949 -43.22753,16.7867 -4.99169,0.8297 -19.35417,1.1942 -25.07128,0.6364 z"
       id="path182" /><path
       style="fill:none;stroke:#000000;stroke-width:30;stroke-linecap:round;stroke-dasharray:none;stroke-opacity:1"
       d="M 119.51055,671.36919 382.4815,670.24847"
       id="path6438"
       sodipodi:nodetypes="cc" /><path
       style="fill:#c44e52;fill-opacity:1;stroke-width:0.443739"
       d="m 372.92472,775.09555 c -0.97622,-0.21526 -2.73486,-0.40289 -3.90809,-0.41696 -1.17322,-0.0141 -2.97037,-0.20881 -3.99365,-0.43277 -1.02329,-0.22396 -3.05862,-0.63822 -4.52296,-0.92058 -8.78613,-1.69416 -18.2781,-5.02927 -26.73759,-9.39457 -4.6336,-2.39105 -15.59073,-9.41194 -17.64339,-11.30519 -0.49198,-0.45377 -2.01859,-1.77109 -3.39247,-2.92738 -7.8399,-6.59824 -16.9858,-17.71957 -21.93604,-26.67403 -2.27925,-4.12292 -4.90832,-9.59708 -6.85169,-14.26636 -1.12865,-2.71177 -3.78202,-11.74329 -4.43245,-15.08714 -0.28484,-1.46434 -0.69256,-3.56101 -0.90604,-4.65926 -1.96193,-10.09333 -1.92454,-25.39148 0.0878,-35.9429 0.25601,-1.34231 0.65522,-3.43898 0.88714,-4.65927 0.52979,-2.7876 3.30424,-12.09833 4.36351,-14.6434 1.94337,-4.66927 4.57244,-10.14343 6.85169,-14.26635 4.97908,-9.00663 14.6165,-20.73377 22.0075,-26.77947 1.34231,-1.09799 2.93977,-2.45214 3.54991,-3.00923 2.25828,-2.06192 12.36164,-8.52769 17.30584,-11.07509 5.03666,-2.59503 12.53045,-5.69075 16.41836,-6.78249 1.09825,-0.30839 2.8954,-0.84812 3.99365,-1.19939 1.09826,-0.35127 3.09509,-0.84017 4.4374,-1.08644 1.34231,-0.24627 3.33914,-0.63427 4.4374,-0.86223 8.67942,-1.80152 26.89643,-2.01407 34.3898,-0.40125 0.97623,0.21011 2.97306,0.61415 4.4374,0.89785 4.16174,0.8063 6.44089,1.36368 9.31853,2.27891 1.46434,0.46572 3.36132,1.05526 4.21552,1.31009 0.8542,0.25482 2.00238,0.6498 2.5515,0.87773 0.54913,0.22792 1.4477,0.59373 1.99683,0.8129 6.03041,2.40691 13.57299,6.36213 18.96986,9.94752 7.28486,4.83966 16.98627,13.47325 21.52759,19.15806 0.9728,1.21776 2.13979,2.61554 2.5933,3.10618 0.4535,0.49064 2.42768,3.27317 4.38706,6.18339 9.54512,14.1772 14.22807,26.39117 17.28143,45.07311 0.70628,4.32134 0.70153,22.23194 -0.007,26.62437 -0.90935,5.63693 -2.02437,11.07292 -2.73056,13.31218 -0.19242,0.61015 -0.60148,2.00793 -0.90903,3.10618 -0.90179,3.22028 -1.61889,5.38624 -2.6444,7.98731 -1.83058,4.64298 -2.63346,6.34051 -5.99736,12.68014 -1.55088,2.92279 -8.04205,12.72596 -9.38009,14.1661 -0.45351,0.48811 -1.72314,1.98165 -2.82139,3.31897 -5.89977,7.184 -17.35121,16.89465 -25.29315,21.4482 -7.3514,4.21497 -15.93172,8.05893 -21.9651,9.84029 -1.46434,0.43235 -3.56101,1.07612 -4.65927,1.43061 -1.09825,0.35448 -3.09508,0.84601 -4.43739,1.09228 -1.34231,0.24627 -3.33914,0.63797 -4.4374,0.87044 -5.66136,1.19836 -22.95356,2.02945 -26.4025,1.26894 z"
       id="path6336" /><path
       style="fill:#4c72b0;fill-opacity:1;stroke-width:0.443739"
       d="m 110.40686,775.09555 c -0.97622,-0.21526 -2.73486,-0.40289 -3.90809,-0.41696 -1.17322,-0.0141 -2.97037,-0.20881 -3.99365,-0.43277 -1.02329,-0.22396 -3.058618,-0.63822 -4.522958,-0.92058 -8.78613,-1.69416 -18.2781,-5.02927 -26.73759,-9.39457 -4.6336,-2.39105 -15.59073,-9.41194 -17.64339,-11.30519 -0.49198,-0.45377 -2.01859,-1.77109 -3.39247,-2.92738 -7.8399,-6.59824 -16.9858,-17.71957 -21.93604,-26.67403 -2.27925,-4.12292 -4.90832,-9.59708 -6.85169,-14.26636 -1.12865,-2.71177 -3.78202,-11.74329 -4.43245,-15.08714 -0.28484,-1.46434 -0.69256,-3.56101 -0.90604,-4.65926 -1.96193,-10.09333 -1.92454,-25.39148 0.0878,-35.9429 0.25601,-1.34231 0.65522,-3.43898 0.88714,-4.65927 0.52979,-2.7876 3.30424,-12.09833 4.36351,-14.6434 1.94337,-4.66927 4.57244,-10.14343 6.85169,-14.26635 4.97908,-9.00663 14.6165,-20.73377 22.0075,-26.77947 1.34231,-1.09799 2.93977,-2.45214 3.54991,-3.00923 2.25828,-2.06192 12.36164,-8.52769 17.30584,-11.07509 5.03666,-2.59503 12.53045,-5.69075 16.41836,-6.78249 1.09825,-0.30839 2.8954,-0.84812 3.99365,-1.19939 1.09826,-0.35127 3.09509,-0.84017 4.4374,-1.08644 1.34231,-0.24627 3.33914,-0.63427 4.437398,-0.86223 8.67942,-1.80152 26.89643,-2.01407 34.3898,-0.40125 0.97623,0.21011 2.97306,0.61415 4.4374,0.89785 4.16174,0.8063 6.44089,1.36368 9.31853,2.27891 1.46434,0.46572 3.36132,1.05526 4.21552,1.31009 0.8542,0.25482 2.00238,0.6498 2.5515,0.87773 0.54913,0.22792 1.4477,0.59373 1.99683,0.8129 6.03041,2.40691 13.57299,6.36213 18.96986,9.94752 7.28486,4.83966 16.98627,13.47325 21.52759,19.15806 0.9728,1.21776 2.13979,2.61554 2.5933,3.10618 0.4535,0.49064 2.42768,3.27317 4.38706,6.18339 9.54512,14.1772 14.22807,26.39117 17.28143,45.07311 0.70628,4.32134 0.70153,22.23194 -0.007,26.62437 -0.90935,5.63693 -2.02437,11.07292 -2.73056,13.31218 -0.19242,0.61015 -0.60148,2.00793 -0.90903,3.10618 -0.90179,3.22028 -1.61889,5.38624 -2.6444,7.98731 -1.83058,4.64298 -2.63346,6.34051 -5.99736,12.68014 -1.55088,2.92279 -8.04205,12.72596 -9.38009,14.1661 -0.45351,0.48811 -1.72314,1.98165 -2.82139,3.31897 -5.89977,7.184 -17.35121,16.89465 -25.29315,21.4482 -7.3514,4.21497 -15.93172,8.05893 -21.9651,9.84029 -1.46434,0.43235 -3.56101,1.07612 -4.65927,1.43061 -1.09825,0.35448 -3.09508,0.84601 -4.43739,1.09228 -1.34231,0.24627 -3.33914,0.63797 -4.4374,0.87044 -5.66136,1.19836 -22.95356,2.02945 -26.4025,1.26894 z"
       id="path188" /></g></svg>
