<?xml version="1.0" encoding="UTF-8" standalone="no"?>
<!-- Created with Inkscape (http://www.inkscape.org/) -->

<svg
   xmlns:dc="http://purl.org/dc/elements/1.1/"
   xmlns:cc="http://creativecommons.org/ns#"
   xmlns:rdf="http://www.w3.org/1999/02/22-rdf-syntax-ns#"
   xmlns:svg="http://www.w3.org/2000/svg"
   xmlns="http://www.w3.org/2000/svg"
   xmlns:sodipodi="http://sodipodi.sourceforge.net/DTD/sodipodi-0.dtd"
   xmlns:inkscape="http://www.inkscape.org/namespaces/inkscape"
   width="500"
   height="500"
   id="svg2"
   version="1.1"
   inkscape:version="0.48.4 r9939"
   inkscape:export-filename="/home/brian/src/cytoflow/cytoflowgui/op_plugins/images/channel_stat.png"
   inkscape:export-xdpi="5.8299999"
   inkscape:export-ydpi="5.8299999"
   sodipodi:docname="channel_stat.svg">
  <defs
     id="defs4" />
  <sodipodi:namedview
     id="base"
     pagecolor="#ffffff"
     bordercolor="#666666"
     borderopacity="1.0"
     inkscape:pageopacity="0.0"
     inkscape:pageshadow="2"
     inkscape:zoom="0.7"
     inkscape:cx="97.553313"
     inkscape:cy="312.60849"
     inkscape:document-units="px"
     inkscape:current-layer="layer1"
     showgrid="false"
     inkscape:window-width="1217"
     inkscape:window-height="848"
     inkscape:window-x="1772"
     inkscape:window-y="32"
     inkscape:window-maximized="0"
     showguides="true"
     inkscape:guide-bbox="true" />
  <metadata
     id="metadata7">
    <rdf:RDF>
      <cc:Work
         rdf:about="">
        <dc:format>image/svg+xml</dc:format>
        <dc:type
           rdf:resource="http://purl.org/dc/dcmitype/StillImage" />
        <dc:title></dc:title>
      </cc:Work>
    </rdf:RDF>
  </metadata>
  <g
     inkscape:label="Layer 1"
     inkscape:groupmode="layer"
     id="layer1"
     transform="translate(0,-552.36218)">
    <path
       style="fill:#020202"
       d="m 229.87366,1012.0456 c -33.79224,32.0385 -83.79429,41.4019 -127.1719,23.8144 -45.522464,-18.4573 -75.130495,-63.30814 -74.294047,-112.5421 0.419627,-24.69821 8.346844,-48.26434 23.093909,-68.65372 2.833595,-3.91777 18.914801,-22.61487 48.922538,-56.88074 43.84188,-50.06312 44.80309,-51.1238 49.98823,-55.16134 10.61662,-8.26706 19.53003,-13.56595 30.24732,-17.98182 31.42894,-12.94985 67.93815,-11.79691 97.89441,3.0914 12.38916,6.15746 24.19763,14.48741 29.23333,20.6219 8.33682,10.1559 9.20056,24.1042 2.18083,35.21892 -7.75581,12.28012 -24.3461,17.03848 -37.60664,10.78606 -1.23614,-0.58288 -4.92296,-3.04214 -8.19291,-5.46514 -10.44135,-7.7368 -18.81981,-11.3457 -29.93474,-12.8942 -15.10544,-2.10433 -30.93927,1.92579 -43.62239,11.10291 -3.75436,2.71652 -6.48065,5.75499 -48.51161,54.0688 -42.031,48.31372 -44.662843,51.43442 -46.833615,55.52862 -10.818982,20.40564 -9.333677,44.37291 3.9328,63.46147 2.377735,3.42117 4.332105,5.47031 9.530775,9.99291 5.19878,4.52281 7.49882,6.17479 11.21609,8.05599 20.37538,10.31159 43.37971,8.78445 62.42919,-4.14455 3.88509,-2.63666 5.35468,-4.19868 28.90426,-30.71596 18.67559,-21.02934 25.34397,-28.25818 26.96611,-29.23264 10.39218,-6.24382 22.56373,-6.22522 32.49903,0.0496 13.02824,8.22826 17.3586,25.70807 9.75811,39.38887 -1.56763,2.82179 -6.50032,8.7287 -24.38322,29.19927 -12.32973,14.11414 -24.14061,27.29489 -26.24586,29.29109 z m 138.4217,-158.71429 c -34.12245,31.95981 -80.14378,41.8423 -123.73254,26.57004 -14.97732,-5.24761 -34.11701,-17.21934 -41.06905,-25.68829 -8.33692,-10.15599 -9.20059,-24.10431 -2.18091,-35.21901 7.7558,-12.28012 24.34609,-17.03848 37.60655,-10.78614 1.23619,0.58287 4.92304,3.04223 8.19309,5.46529 10.44124,7.73673 18.81972,11.34563 29.93463,12.89414 15.10545,2.10433 30.93937,-1.9257 43.62248,-11.10282 3.75428,-2.71662 6.48057,-5.75509 48.51154,-54.0689 42.031,-48.31372 44.66284,-51.43442 46.8337,-55.52853 10.81894,-20.40574 9.33359,-44.37298 -3.93289,-63.46156 -2.37765,-3.42107 -4.3321,-5.47032 -9.53085,-9.993 -5.19861,-4.52262 -7.49864,-6.17462 -11.21601,-8.05588 -20.37537,-10.31155 -43.37969,-8.78434 -62.4292,4.14453 -3.88498,2.6368 -5.35469,4.19864 -28.90419,30.71606 -18.67569,21.02914 -25.34403,28.25809 -26.96609,29.23261 -10.39227,6.24375 -22.56383,6.22515 -32.49912,-0.0497 -13.02816,-8.22818 -17.35859,-25.70798 -9.75813,-39.38891 2.41806,-4.35248 42.27958,-50.46563 49.89306,-57.71788 34.48226,-32.84629 84.04121,-42.37261 127.90793,-24.58671 38.61877,15.65808 66.37505,50.72162 72.8692,92.05311 4.90595,31.22363 -2.64647,62.65687 -21.30405,88.66776 -3.53693,4.93104 -87.90844,102.21286 -91.84915,105.9038 z"
       id="path3095"
       inkscape:connector-curvature="0" />
  </g>
</svg>
