<?xml version="1.0" encoding="UTF-8" standalone="no"?>
<!-- Created with Inkscape (http://www.inkscape.org/) -->

<svg
   xmlns:dc="http://purl.org/dc/elements/1.1/"
   xmlns:cc="http://creativecommons.org/ns#"
   xmlns:rdf="http://www.w3.org/1999/02/22-rdf-syntax-ns#"
   xmlns:svg="http://www.w3.org/2000/svg"
   xmlns="http://www.w3.org/2000/svg"
   xmlns:sodipodi="http://sodipodi.sourceforge.net/DTD/sodipodi-0.dtd"
   xmlns:inkscape="http://www.inkscape.org/namespaces/inkscape"
   width="360"
   height="360"
   id="svg2"
   version="1.1"
   inkscape:version="0.48.4 r9939"
   sodipodi:docname="hexbin.svg"
   inkscape:export-filename="/home/brian/src/cytoflow/cytoflowgui/view_plugins/images/hexbin.png"
   inkscape:export-xdpi="8"
   inkscape:export-ydpi="8">
  <sodipodi:namedview
     id="base"
     pagecolor="#ffffff"
     bordercolor="#666666"
     borderopacity="1.0"
     inkscape:pageopacity="0.0"
     inkscape:pageshadow="2"
     inkscape:zoom="1.4142136"
     inkscape:cx="97.400021"
     inkscape:cy="185.16356"
     inkscape:document-units="px"
     inkscape:current-layer="g3066"
     showgrid="false"
     inkscape:window-width="1453"
     inkscape:window-height="1192"
     inkscape:window-x="2087"
     inkscape:window-y="282"
     inkscape:window-maximized="0"
     units="in" />
  <defs
     id="defs4">
    <clipPath
       id="clipPath4783"
       clipPathUnits="userSpaceOnUse">
      <rect
         transform="matrix(0.91033914,0.41386308,-0.41386308,0.91033914,0,0)"
         style="fill:#9c9491;fill-opacity:0.50225226;stroke:#000000;stroke-width:0.77179277;stroke-opacity:1"
         id="rect4785"
         width="231.53784"
         height="231.53784"
         x="403.0271"
         y="127.12328" />
    </clipPath>
    <clipPath
       id="clipPath5246"
       clipPathUnits="userSpaceOnUse">
      <rect
         transform="matrix(0.93748362,0.34802939,-0.35652697,0.93428503,0,0)"
         inkscape:export-ydpi="7.4099998"
         inkscape:export-xdpi="7.4099998"
         inkscape:export-filename="/home/brian/src/cytoflow/cytoflowgui/op_plugins/images/range2d.png"
         y="20.526688"
         x="317.68744"
         height="268.52582"
         width="289.41272"
         id="rect5248"
         style="fill:#d4d0ce;fill-opacity:0.43693698;stroke:none" />
    </clipPath>
    <mask
       id="mask5289"
       maskUnits="userSpaceOnUse">
      <rect
         transform="matrix(0.93748362,0.34802939,-0.35652697,0.93428503,0,0)"
         y="-5.690537"
         x="284.59265"
         height="305.87366"
         width="389.19885"
         id="rect5291"
         style="fill:#b3adab;fill-opacity:1;stroke:none" />
    </mask>
    <clipPath
       clipPathUnits="userSpaceOnUse"
       id="clipPath4223">
      <rect
         style="fill:none;stroke:#000000;stroke-width:7.28700113;stroke-miterlimit:4;stroke-opacity:1;stroke-dasharray:none"
         id="rect4225"
         width="363.28952"
         height="222.76634"
         x="159.47777"
         y="644.79181" />
    </clipPath>
  </defs>
  <metadata
     id="metadata7">
    <rdf:RDF>
      <cc:Work
         rdf:about="">
        <dc:format>image/svg+xml</dc:format>
        <dc:type
           rdf:resource="http://purl.org/dc/dcmitype/StillImage" />
        <dc:title></dc:title>
      </cc:Work>
    </rdf:RDF>
  </metadata>
  <g
     transform="translate(0,-692.35975)"
     id="layer1"
     inkscape:groupmode="layer"
     inkscape:label="Layer 1">
    <g
       transform="translate(-22.857143,208.57143)"
       id="g3050">
      <g
         id="g3066"
         transform="translate(-17.677669,19.798989)">
        <g
           transform="matrix(0.98682488,0,0,1.6093236,-116.84181,-572.89962)"
           id="g3370"
           inkscape:export-filename="/home/brian/src/cytoflow/cytoflowgui/view_plugins/images/hexbin.png"
           inkscape:export-xdpi="8"
           inkscape:export-ydpi="8"
           clip-path="url(#clipPath4223)">
          <path
             inkscape:connector-curvature="0"
             id="path3384"
             d="m 35.193752,685.39639 0,-187.5 249.999998,0 250,0 0,187.5 0,187.5 -250,0 -249.999998,0 0,-187.5 z"
             style="fill:#5f5f5f" />
          <path
             inkscape:connector-curvature="0"
             id="path3382"
             d="m 35.193752,685.39639 0,-187.5 249.999998,0 250,0 0,187.5 0,187.5 -250,0 -249.999998,0 0,-187.5 z m 193.999998,168.20476 16.5,-7.255 0.27232,-17.53853 0.27231,-17.53854 -17.44749,-7.64681 -17.44749,-7.64681 -17.32483,7.58509 c -9.52865,4.1718 -17.88732,8.03411 -18.57482,8.58291 -0.90773,0.7246 -1.25,5.44468 -1.25,17.23792 l 0,16.2401 17.25,7.60581 c 9.4875,4.18319 18.15,7.61099 19.25,7.61733 1.1,0.006 9.425,-3.25323 18.5,-7.24347 z m 107.19066,-48.82478 c 8.97014,-3.91602 16.87184,-7.57112 17.55934,-8.12245 0.89162,-0.71502 1.25,-4.97461 1.25,-14.85692 0,-16.37802 -2.01366,-13.94045 19,-22.99986 7.975,-3.43818 15.05207,-6.66882 15.72683,-7.17921 0.86478,-0.65411 1.30744,-5.95723 1.5,-17.96982 l 0.27317,-17.04184 17.27387,-7.54316 17.27387,-7.54316 -0.27387,-15.89065 -0.27387,-15.89065 -16,-7.02081 c -8.8,-3.86144 -16.55157,-7.47199 -17.22572,-8.02342 -0.85301,-0.69774 -1.30912,-5.89381 -1.5,-17.08797 l -0.27428,-16.08536 -16.5,-7.28199 c -9.075,-4.00509 -17.48589,-7.29564 -18.69086,-7.31234 -1.20497,-0.0167 -9.35008,3.11963 -18.10024,6.96963 -8.75016,3.85 -16.84772,7 -17.99457,7 -1.14685,0 -9.78984,-3.38644 -19.20665,-7.52542 l -17.12147,-7.52541 -18.4431,8.12927 -18.44311,8.12927 0,15.7737 c 0,11.94499 -0.32447,16.04298 -1.33676,16.88311 -1.82702,1.5163 -32.75274,15.13548 -34.36884,15.13548 -0.71294,0 -9.03006,-3.39924 -18.48248,-7.55388 l -17.18622,-7.55387 -17.56285,7.65223 c -9.65957,4.20873 -18.12535,8.36898 -18.81285,9.24501 -0.85735,1.09245 -1.25,5.76608 -1.25,14.87859 0,15.68558 -2.03888,13.28068 19,22.41079 7.975,3.46085 15.20364,6.87777 16.06365,7.59314 0.90034,0.74892 1.96086,0.93147 2.5,0.43034 0.51499,-0.47869 8.48149,-4.13713 17.70332,-8.12987 12.98956,-5.62403 16.87709,-7.73409 17.25578,-9.366 0.26884,-1.15856 0.59871,-7.94443 0.73303,-15.0797 l 0.24422,-12.97323 17.5,-7.76608 c 9.625,-4.27134 18.23422,-7.77089 19.13159,-7.77677 0.89738,-0.006 9.3392,3.38163 18.7596,7.52782 l 17.12801,7.53852 17.1552,-7.53852 c 9.43536,-4.14619 17.89623,-7.53852 18.80194,-7.53852 0.90571,0 9.04405,3.27847 18.0852,7.28548 l 16.43846,7.28548 0.27527,15.0711 c 0.20648,11.3044 -0.0434,15.31608 -1,16.05131 -0.7014,0.53912 -8.68867,4.22787 -17.7495,8.19722 -9.06083,3.96936 -16.81644,7.7553 -17.23469,8.41321 -0.41825,0.65791 -0.76735,8.04955 -0.77577,16.42588 l -0.0153,15.22967 -3.75,1.8837 c -2.0625,1.03603 -9.68018,4.46487 -16.92817,7.61964 l -13.17817,5.73594 -17.53384,-7.72088 c -12.1797,-5.36322 -18.07983,-7.48382 -19.32183,-6.94456 -1.65202,0.71729 -1.65801,0.80756 -0.0787,1.18704 0.94009,0.2259 9.04009,3.65903 18,7.62917 l 16.29075,7.21845 0.5,14.88479 c 0.28753,8.5597 0.92494,15.03249 1.5,15.23237 0.55,0.19117 8.425,3.67753 17.5,7.74747 9.075,4.06994 17.2608,7.43761 18.19066,7.4837 0.92986,0.0461 9.02986,-3.12019 18,-7.0362 z"
             style="fill:#5f5f5f" />
          <path
             inkscape:connector-curvature="0"
             id="path3380"
             d="m 35.193752,685.39639 0,-187.5 249.999998,0 250,0 0,187.5 0,187.5 -250,0 -249.999998,0 0,-187.5 z m 194.403418,168 c 9.41995,-4.125 17.49599,-7.5 17.94676,-7.5 0.45077,0 8.57379,3.39996 18.05116,7.55546 l 17.23159,7.55546 17.43239,-7.63955 c 9.58782,-4.20175 17.98393,-8.09728 18.65804,-8.65674 0.84362,-0.70015 1.31151,-5.69545 1.50114,-16.0266 l 0.2755,-15.00941 16.81454,-7.38931 c 9.24799,-4.06412 17.43387,-7.38931 18.19085,-7.38931 0.75698,0 8.55386,3.15806 17.32642,7.01791 l 15.95009,7.01791 18.60905,-8.17449 18.60905,-8.17449 0.0153,-14.59342 c 0.008,-8.02638 0.35126,-15.12158 0.76186,-15.76711 0.4106,-0.64553 8.39121,-4.5333 17.73469,-8.63949 l 16.98814,-7.46579 0.27357,-16.47686 c 0.23517,-14.16374 0.51594,-16.68095 2,-17.93061 0.94954,-0.79956 8.81393,-4.5448 17.47643,-8.32274 l 15.75,-6.869 0,-15.13034 0,-15.13033 -16.25,-7.13309 -16.25,-7.13308 -0.27437,-17.2244 c -0.15091,-9.47341 -0.70181,-17.73941 -1.22423,-18.36889 -0.52241,-0.62947 -8.61144,-4.47654 -17.97562,-8.54905 l -17.02577,-7.40455 0,-13.74836 0,-13.74837 -3.25,-1.68493 c -10.61758,-5.50457 -32.50722,-14.38806 -34.33123,-13.93266 -1.14467,0.28579 -9.18455,3.6801 -17.86639,7.54292 -8.68183,3.86282 -16.45933,7.02331 -17.28332,7.02331 -0.82399,0 -9.77162,-3.64674 -19.88361,-8.10385 l -18.38545,-8.10386 0,-15.7737 c 0,-11.40496 -0.3462,-16.05794 -1.25,-16.79996 -2.15964,-1.77308 -30.91649,-14.21863 -32.85374,-14.21863 -1.0152,0 -9.29281,3.25749 -18.39467,7.23887 l -16.54884,7.23888 0.27362,15.8729 0.27363,15.8729 16.5,7.24641 16.5,7.24641 0.27467,15.4989 c 0.20636,11.64483 -0.0423,15.74358 -1,16.48289 -0.70107,0.54119 -8.80902,4.27663 -18.01767,8.30096 l -16.743,7.31697 -17.38189,-7.63112 -17.38189,-7.63111 -18.62511,8.18438 -18.62511,8.18438 -0.0153,15.03869 c -0.008,8.27128 -0.40381,15.65188 -0.87863,16.40133 -0.47483,0.74945 -8.68044,4.80964 -18.23469,9.02265 l -17.37138,7.66001 -0.5,16.30049 -0.5,16.30048 -16,7.01196 c -8.8,3.85657 -16.5625,7.47876 -17.25,8.04931 -0.9039,0.75013 -1.25,5.43109 -1.25,16.90643 0,14.03178 -0.20261,15.9952 -1.75,16.95838 -0.962498,0.59911 -8.724998,4.15295 -17.249998,7.89743 l -15.5,6.80814 -0.249465,14.36104 -0.249466,14.36104 17.249466,7.51688 17.249463,7.51687 0.27415,16.7259 c 0.26301,16.04627 0.36459,16.78427 2.5,18.1628 3.36417,2.17177 32.30452,14.57755 34.00668,14.57755 0.81751,0 8.56614,-3.15 17.21917,-7 8.65303,-3.85 16.50807,-7 17.45566,-7 0.94759,0 9.33271,3.36196 18.63361,7.47101 9.3009,4.10906 17.76038,7.48406 18.79885,7.5 1.03847,0.016 9.59535,-3.34601 19.0153,-7.47101 z m -34.90342,-93.53371 c -7.15,-3.21117 -15.1375,-6.8039 -17.75,-7.98385 l -4.75,-2.14536 0,-15.82933 0,-15.82934 4.25,-2.03108 c 2.3375,-1.11709 10.52138,-4.76611 18.18639,-8.10893 7.66502,-3.34282 14.19002,-6.32976 14.5,-6.63764 0.30999,-0.30788 0.78861,-7.14997 1.06361,-15.20465 l 0.5,-14.64486 17.5,-7.76493 c 9.625,-4.27071 18.23422,-7.76974 19.13159,-7.77562 0.89738,-0.006 9.3392,3.38163 18.7596,7.52782 l 17.12801,7.53852 17.1552,-7.53852 c 9.43536,-4.14619 17.89623,-7.53852 18.80194,-7.53852 0.90571,0 9.04405,3.27847 18.0852,7.28548 l 16.43846,7.28548 0.27527,15.0711 c 0.20648,11.3044 -0.0434,15.31608 -1,16.05131 -0.7014,0.53912 -8.68867,4.22787 -17.7495,8.19722 -9.06083,3.96936 -16.81644,7.7553 -17.23469,8.41321 -0.41825,0.65791 -0.76735,8.04955 -0.77577,16.42588 l -0.0153,15.22967 -3.75,1.8837 c -2.0625,1.03603 -9.68018,4.46487 -16.92817,7.61964 l -13.17817,5.73594 -17.49993,-7.70595 -17.49994,-7.70595 -5.69424,2.69381 c -14.49174,6.85569 -30.72098,13.51042 -32.73258,13.42185 -1.21933,-0.0537 -8.06697,-2.72494 -15.21697,-5.9361 z"
             style="fill:#797979" />
          <path
             inkscape:connector-curvature="0"
             id="path3378"
             d="m 35.193752,812.89639 c 0,-33 0.3375,-59.99736 0.75,-59.99414 0.4125,0.003 7.05,2.81873 14.75,6.25667 l 14,6.25079 0.274735,15.61376 0.274735,15.61376 17.725265,7.87958 17.725263,7.87958 0.5,16.8878 0.5,16.8878 18,7.95345 18,7.95346 4,-1.50664 c 2.2,-0.82865 10.66949,-4.4241 18.82109,-7.9899 l 14.82109,-6.48327 14.67891,6.43693 c 8.0734,3.54032 16.30821,7.23446 18.29958,8.20921 l 3.62068,1.77227 16.68865,-7.31056 c 9.17875,-4.0208 17.36715,-7.31055 18.19644,-7.31055 0.82928,0 8.67876,3.15 17.44327,7 8.76452,3.85 16.7615,7 17.77109,7 1.00958,0 9.57196,-3.375 19.02751,-7.5 9.45555,-4.125 17.85378,-7.5 18.66273,-7.5 0.80895,0 9.16061,3.3799 18.55925,7.5109 l 17.08843,7.51089 17.66064,-7.78234 17.66064,-7.78234 0.27428,-16.12626 c 0.19117,-11.23944 0.64572,-16.42446 1.5,-17.1103 0.67415,-0.54122 8.20072,-4.0241 16.72572,-7.73972 8.525,-3.71563 16.0625,-7.19894 16.75,-7.7407 0.8962,-0.70622 1.25,-5.04793 1.25,-15.33952 0,-16.93571 -1.97789,-14.43554 18.49441,-23.37801 20.57107,-8.98561 18.50559,-6.15414 18.50559,-25.36848 l 0,-16.29978 16.75,-7.2815 c 9.2125,-4.00483 17.2,-7.7054 17.75,-8.22349 0.55,-0.51809 1.225,-7.75628 1.5,-16.08488 l 0.5,-15.1429 16.5,-7.28042 c 9.075,-4.00423 16.8375,-7.29408 17.25,-7.31078 0.4125,-0.0167 0.75,48.79463 0.75,108.46963 l 0,108.5 -250,0 -249.999998,0 0,-60 z M 192.32211,758.52745 c -9.00441,-3.98381 -16.99191,-8.09155 -17.75,-9.12831 -1.86462,-2.55 -1.97317,-29.36544 -0.12836,-31.70723 0.6875,-0.87271 8.79514,-4.8483 18.01697,-8.83465 12.99532,-5.61753 16.87692,-7.72175 17.25578,-9.35439 0.26884,-1.15856 0.59871,-7.94443 0.73303,-15.0797 l 0.24422,-12.97323 17.5,-7.76608 c 9.625,-4.27134 18.23422,-7.77089 19.13159,-7.77677 0.89738,-0.006 9.3392,3.38163 18.7596,7.52782 l 17.12801,7.53852 17.1552,-7.53852 c 9.43536,-4.14619 17.89623,-7.53852 18.80194,-7.53852 0.90571,0 9.04405,3.27847 18.0852,7.28548 l 16.43846,7.28548 0.27527,15.0711 c 0.20648,11.3044 -0.0434,15.31608 -1,16.05131 -0.7014,0.53912 -8.68867,4.22787 -17.7495,8.19722 -9.06083,3.96936 -16.81644,7.7553 -17.23469,8.41321 -0.41825,0.65791 -0.76735,8.04955 -0.77577,16.42588 l -0.0153,15.22967 -3.75,1.8837 c -2.0625,1.03603 -9.68018,4.46487 -16.92817,7.61964 l -13.17817,5.73594 -17.49993,-7.70595 -17.49994,-7.70595 -5.69424,2.69381 c -13.0586,6.17771 -30.63388,13.51513 -32.23258,13.45664 -0.94433,-0.0346 -9.08421,-3.3223 -18.08861,-7.30612 z m -157.128358,-72.52377 0,-28.82995 2.25,0.46422 c 1.2375,0.25532 7.875,3.01851 14.75,6.14042 l 12.5,5.67621 0,16.335 0,16.335 -13,5.69138 c -7.15,3.13026 -13.7875,5.9898 -14.75,6.35452 -1.641534,0.62204 -1.75,-1.12376 -1.75,-28.1668 z m 47.668347,-71.79889 -16.831653,-7.52122 -13.994264,6.10641 c -7.696845,3.35853 -14.635101,6.10641 -15.418347,6.10641 -1.216418,0 -1.424083,-8.82231 -1.424083,-60.5 l 0,-60.5 249.999998,0 250,0 0,61.5 c 0,33.825 -0.11703,61.5 -0.26007,61.5 -1.49117,0 -34.23826,-15.16145 -34.90394,-16.16004 -0.49128,-0.73698 -0.79592,-8.30814 -0.67698,-16.82481 l 0.21625,-15.48485 -15.93763,-7.19197 c -8.83176,-3.98539 -17.41658,-7.22459 -19.25475,-7.26515 -2.04878,-0.0452 -9.41022,2.60335 -19.25259,6.92682 -8.76452,3.85 -16.54913,7 -17.29914,7 -0.75001,0 -8.49094,-3.15 -17.20208,-7 -8.71113,-3.85 -16.30882,-6.99795 -16.88374,-6.99544 -0.57493,0.003 -9.09936,3.6025 -18.94317,8 -9.84381,4.39749 -18.53651,7.99544 -19.31711,7.99544 -1.63376,0 -33.16559,-13.69068 -35.01077,-15.20118 -0.85297,-0.69827 -1.30913,-5.8954 -1.5,-17.08999 l -0.27428,-16.08658 -17.86508,-7.84087 -17.86507,-7.84088 -18.36173,8.12688 -18.36173,8.12688 -0.27319,17.12547 -0.2732,17.12546 -17.36802,7.69543 c -9.55241,4.23248 -17.75154,8.07894 -18.22029,8.54769 -0.46874,0.46874 -0.97813,7.09276 -1.13197,14.72003 l -0.27972,13.86777 -16.80932,7.36194 c -9.24513,4.04907 -17.57013,7.36998 -18.5,7.3798 -0.92988,0.01 -8.9877,-3.20074 -17.90628,-7.13458 l -16.2156,-7.15244 -18.44516,8.13459 c -10.14484,4.47402 -19.04782,8.09624 -19.7844,8.04939 -0.73658,-0.0469 -8.913482,-3.46974 -18.170891,-7.60641 z"
             style="fill:#959595" />
          <path
             inkscape:connector-curvature="0"
             id="path3376"
             d="m 35.193752,812.89639 c 0,-33 0.3375,-59.99736 0.75,-59.99414 0.4125,0.003 7.05,2.81873 14.75,6.25667 l 14,6.25079 0.274735,15.61376 0.274735,15.61376 17.725265,7.87958 17.725263,7.87958 0.5,16.8878 0.5,16.8878 18,7.95345 18,7.95346 4,-1.50664 c 2.2,-0.82865 10.66949,-4.4241 18.82109,-7.9899 l 14.82109,-6.48327 14.67891,6.43693 c 8.0734,3.54032 16.30821,7.23446 18.29958,8.20921 l 3.62068,1.77227 16.68865,-7.31056 c 9.17875,-4.0208 17.36715,-7.31055 18.19644,-7.31055 0.82928,0 8.67876,3.15 17.44327,7 8.76452,3.85 16.7615,7 17.77109,7 1.00958,0 9.57196,-3.375 19.02751,-7.5 9.45555,-4.125 17.85378,-7.5 18.66273,-7.5 0.80895,0 9.16061,3.3799 18.55925,7.5109 l 17.08843,7.51089 17.66064,-7.78234 17.66064,-7.78234 0.27428,-16.12626 c 0.19117,-11.23944 0.64572,-16.42446 1.5,-17.1103 0.67415,-0.54122 8.20072,-4.0241 16.72572,-7.73972 8.525,-3.71563 16.0625,-7.19894 16.75,-7.7407 0.8962,-0.70622 1.25,-5.04793 1.25,-15.33952 0,-16.93571 -1.97789,-14.43554 18.49441,-23.37801 20.57107,-8.98561 18.50559,-6.15414 18.50559,-25.36848 l 0,-16.29978 16.75,-7.2815 c 9.2125,-4.00483 17.2,-7.7054 17.75,-8.22349 0.55,-0.51809 1.225,-7.75628 1.5,-16.08488 l 0.5,-15.1429 16.5,-7.28042 c 9.075,-4.00423 16.8375,-7.29408 17.25,-7.31078 0.4125,-0.0167 0.75,48.79463 0.75,108.46963 l 0,108.5 -250,0 -249.999998,0 0,-60 z M 192.32211,758.52745 c -9.00441,-3.98381 -16.99191,-8.09155 -17.75,-9.12831 -1.01834,-1.39266 -1.37436,-5.55708 -1.36305,-15.94388 0.0156,-14.30121 0.30599,-15.8714 3.01511,-16.30228 0.84173,-0.13388 8.66442,-3.39638 17.38375,-7.25 8.71933,-3.85363 16.44938,-7.00659 17.17788,-7.00659 1.72099,0 31.53516,12.96669 33.11591,14.40267 0.83923,0.76237 1.24963,6.12145 1.34448,17.55628 l 0.13653,16.45895 -16.34449,7.2406 c -8.98946,3.98233 -17.24448,7.23503 -18.34448,7.22823 -1.1,-0.007 -9.36724,-3.27185 -18.37164,-7.25567 z m -157.128358,-72.52377 0,-28.82995 2.25,0.46422 c 1.2375,0.25532 7.875,3.01851 14.75,6.14042 l 12.5,5.67621 0,16.335 0,16.335 -13,5.69138 c -7.15,3.13026 -13.7875,5.9898 -14.75,6.35452 -1.641534,0.62204 -1.75,-1.12376 -1.75,-28.1668 z m 47.668347,-71.79889 -16.831653,-7.52122 -13.994264,6.10641 c -7.696845,3.35853 -14.635101,6.10641 -15.418347,6.10641 -1.216418,0 -1.424083,-8.82231 -1.424083,-60.5 l 0,-60.5 249.999998,0 250,0 0,61.5 c 0,33.825 -0.11703,61.5 -0.26007,61.5 -1.49117,0 -34.23826,-15.16145 -34.90394,-16.16004 -0.49128,-0.73698 -0.79592,-8.30814 -0.67698,-16.82481 l 0.21625,-15.48485 -15.93763,-7.19197 c -8.83176,-3.98539 -17.41658,-7.22459 -19.25475,-7.26515 -2.04878,-0.0452 -9.41022,2.60335 -19.25259,6.92682 -8.76452,3.85 -16.54913,7 -17.29914,7 -0.75001,0 -8.49094,-3.15 -17.20208,-7 -8.71113,-3.85 -16.30882,-6.99795 -16.88374,-6.99544 -0.57493,0.003 -9.09936,3.6025 -18.94317,8 -9.84381,4.39749 -18.53651,7.99544 -19.31711,7.99544 -1.63376,0 -33.16559,-13.69068 -35.01077,-15.20118 -0.85297,-0.69827 -1.30913,-5.8954 -1.5,-17.08999 l -0.27428,-16.08658 -17.86508,-7.84087 -17.86507,-7.84088 -18.36173,8.12688 -18.36173,8.12688 -0.27319,17.12547 -0.2732,17.12546 -17.36802,7.69543 c -9.55241,4.23248 -17.75154,8.07894 -18.22029,8.54769 -0.46874,0.46874 -0.97813,7.09276 -1.13197,14.72003 l -0.27972,13.86777 -16.80932,7.36194 c -9.24513,4.04907 -17.57013,7.36998 -18.5,7.3798 -0.92988,0.01 -8.9877,-3.20074 -17.90628,-7.13458 l -16.2156,-7.15244 -18.44516,8.13459 c -10.14484,4.47402 -19.04782,8.09624 -19.7844,8.04939 -0.73658,-0.0469 -8.913482,-3.46974 -18.170891,-7.60641 z"
             style="fill:#aaaaaa" />
          <path
             inkscape:connector-curvature="0"
             id="path3374"
             d="m 35.193752,860.41098 0,-12.48541 4.75,1.88352 c 7.52342,2.98326 22.464499,9.69605 25.75,11.56907 2.997644,1.70891 3.012551,1.70468 18.983242,-5.38576 8.790783,-3.90281 16.589436,-7.09601 17.330346,-7.09601 0.74091,0 8.53766,3.15 17.3261,7 8.78845,3.85 16.39232,7 16.8975,7 0.50518,0 9.53967,-3.76655 20.07663,-8.37012 l 19.15812,-8.37011 14.61403,6.44407 c 8.03772,3.54423 16.13159,7.08583 17.98639,7.87021 2.84384,1.20264 3.17603,1.66272 2.11962,2.93562 -0.77613,0.93517 -1.04912,3.02767 -0.71752,5.4999 l 0.53523,3.99043 -87.40484,0 -87.404848,0 0,-12.48541 z m 247.785878,7.23541 c 0.27077,-2.8875 0.92196,-5.52767 1.4471,-5.86704 0.52514,-0.33938 8.54312,-3.89657 17.81772,-7.90487 l 16.86293,-7.28783 17.45831,7.65487 c 9.60207,4.21018 18.10243,7.65487 18.8897,7.65487 0.78726,0 9.03796,-3.36866 18.33488,-7.48592 9.29691,-4.11725 17.63861,-7.49225 18.53709,-7.5 0.89849,-0.008 8.77349,3.16831 17.5,7.0579 18.51619,8.25306 14.96143,8.42629 37.86639,-1.84531 l 15,-6.72667 0.2757,-15.81126 0.27571,-15.81126 2.72429,-1.54373 c 1.49837,-0.84905 9.4743,-4.53399 17.7243,-8.18874 l 15,-6.64501 0.27481,-15.63443 0.2748,-15.63444 17.2252,-7.6164 c 9.47385,-4.18902 17.56269,-7.61603 17.97519,-7.61557 0.4125,4.6e-4 0.75,27.45084 0.75,61.00084 l 0,61 -126.35321,0 -126.3532,0 0.49229,-5.25 z m -247.785878,-86.22525 0,-28.47525 2.25,0.89157 c 6.575035,2.60539 23.532405,10.34156 25.513367,11.63954 2.240041,1.46773 2.282478,1.81994 2.012464,16.70277 l -0.275831,15.20342 -14,6.25074 c -7.7,3.4379 -14.3375,6.25337 -14.75,6.2566 -0.4125,0.003 -0.75,-12.808 -0.75,-28.46939 z M 192.32211,758.52745 c -9.00441,-3.98381 -16.99191,-8.09155 -17.75,-9.12831 -1.01834,-1.39266 -1.37436,-5.55708 -1.36305,-15.94388 0.0156,-14.30121 0.30599,-15.8714 3.01511,-16.30228 0.84173,-0.13388 8.66442,-3.39638 17.38375,-7.25 8.71933,-3.85363 16.44938,-7.00659 17.17788,-7.00659 1.72099,0 31.53516,12.96669 33.11591,14.40267 0.83923,0.76237 1.24963,6.12145 1.34448,17.55628 l 0.13653,16.45895 -16.34449,7.2406 c -8.98946,3.98233 -17.24448,7.23503 -18.34448,7.22823 -1.1,-0.007 -9.36724,-3.27185 -18.37164,-7.25567 z m 338.87164,-31.13106 c 0,-1.68345 0.8627,-1.87336 2.83385,-0.62385 1.06402,0.67448 0.9969,0.97482 -0.33179,1.48469 -2.32679,0.89287 -2.50206,0.83256 -2.50206,-0.86084 z M 35.193752,685.81306 c 0,-15.44584 0.3375,-27.92772 0.75,-27.73753 3.673825,1.69391 12.24109,5.53694 19.25,8.63501 l 8.5,3.75715 0,15.42346 0,15.42346 -13.953636,6.29089 c -7.6745,3.45999 -14.087,6.29089 -14.25,6.29089 -0.163,0 -0.296364,-12.6375 -0.296364,-28.08333 z m 0,-127.50082 0,-60.41585 123.499998,0 123.5,0 0,5.83949 c 0,5.39029 -0.21154,5.93892 -2.75,7.13218 -1.5125,0.71099 -8.825,3.9637 -16.25,7.22825 -20.02812,8.80577 -18,5.96788 -18,25.187 l 0,16.34081 -16.75,7.31237 c -9.2125,4.0218 -17.4287,7.26923 -18.25821,7.2165 -0.82952,-0.0527 -8.74963,-3.28204 -17.60024,-7.17624 -8.85062,-3.8942 -17.00614,-7.08036 -18.12339,-7.08036 -1.11724,0 -9.75455,3.3992 -19.19403,7.55378 l -17.16269,7.55379 -17.11616,-7.55379 c -9.41389,-4.15458 -17.8979,-7.55378 -18.85336,-7.55378 -1.78167,0 -33.441909,13.55902 -35.691918,15.28565 -0.897139,0.68846 -1.25,5.00121 -1.25,15.27778 0,10.36147 -0.345449,14.53963 -1.25,15.11858 -0.6875,0.44002 -7.4375,3.57871 -15,6.97487 l -13.75,6.17483 0,-60.41586 z m 496.515708,14.60957 c -0.78841,-1.27567 0.84908,-2.03604 2.36588,-1.0986 1.00461,0.62088 0.94645,0.92519 -0.26572,1.39034 -0.8535,0.32752 -1.79857,0.19624 -2.10016,-0.29174 z M 519.19375,519.061 c -21.82868,-9.57535 -20,-8.18558 -20,-15.19979 l 0,-5.96482 18,0 18,0 0,14 c 0,7.7 -0.1125,13.99186 -0.25,13.98191 -0.1375,-0.01 -7.225,-3.07773 -15.75,-6.8173 z m -147,-1.67874 -16.5,-7.34402 -0.29772,-6.07092 -0.29771,-6.07093 35.87999,0 35.87999,0 -0.44039,5.75 c -0.24221,3.1625 -0.95424,6.24618 -1.58227,6.85263 -1.99711,1.92846 -31.52109,14.40095 -33.87907,14.31231 -1.24455,-0.0468 -9.68782,-3.38986 -18.76282,-7.42907 z m -39.36163,-17.98587 c 0.72125,-1.87954 1.00201,-1.87954 1.72326,0 0.3471,0.90455 0.005,1.5 -0.86163,1.5 -0.8667,0 -1.20873,-0.59545 -0.86163,-1.5 z"
             style="fill:#c3c3c3" />
          <path
             inkscape:connector-curvature="0"
             id="path3372"
             d="m 207.19375,860.89639 c -0.825,-0.53316 -1.05,-0.96937 -0.5,-0.96937 0.55,0 1.675,0.43621 2.5,0.96937 0.825,0.53316 1.05,0.96937 0.5,0.96937 -0.55,0 -1.675,-0.43621 -2.5,-0.96937 z m -7,-3 c -1.925,-1.05389 -3.05,-1.91617 -2.5,-1.91617 0.55,0 2.575,0.86228 4.5,1.91617 1.925,1.05389 3.05,1.91617 2.5,1.91617 -0.55,0 -2.575,-0.86228 -4.5,-1.91617 z m -8,-3.5 c -1.375,-0.78602 -2.05,-1.42913 -1.5,-1.42913 0.55,0 2.125,0.64311 3.5,1.42913 1.375,0.78602 2.05,1.42913 1.5,1.42913 -0.55,0 -2.125,-0.64311 -3.5,-1.42913 z m -8,-3.5 c -1.925,-1.05389 -3.05,-1.91617 -2.5,-1.91617 0.55,0 2.575,0.86228 4.5,1.91617 1.925,1.05389 3.05,1.91617 2.5,1.91617 -0.55,0 -2.575,-0.86228 -4.5,-1.91617 z m -7.55887,-3.55517 c -1.83031,-1.46637 -1.7984,-1.48719 0.55887,-0.36454 3.06103,1.45781 3.62834,1.91971 2.3578,1.91971 -0.53655,0 -1.84905,-0.69982 -2.91667,-1.55517 z m 15.68723,-88.81377 c -9.00441,-3.98381 -16.99191,-8.09155 -17.75,-9.12831 -1.01834,-1.39266 -1.37436,-5.55708 -1.36305,-15.94388 0.0156,-14.30121 0.30599,-15.8714 3.01511,-16.30228 0.84173,-0.13388 8.66442,-3.39638 17.38375,-7.25 8.71933,-3.85363 16.44938,-7.00659 17.17788,-7.00659 1.72099,0 31.53516,12.96669 33.11591,14.40267 0.83923,0.76237 1.24963,6.12145 1.34448,17.55628 l 0.13653,16.45895 -16.34449,7.2406 c -8.98946,3.98233 -17.24448,7.23503 -18.34448,7.22823 -1.1,-0.007 -9.36724,-3.27185 -18.37164,-7.25567 z"
             style="fill:#d5d5d5" />
        </g>
      </g>
    </g>
  </g>
</svg>
