<?xml version="1.0" encoding="UTF-8" standalone="no"?>
<!-- Created with Inkscape (http://www.inkscape.org/) -->

<svg
   xmlns:dc="http://purl.org/dc/elements/1.1/"
   xmlns:cc="http://creativecommons.org/ns#"
   xmlns:rdf="http://www.w3.org/1999/02/22-rdf-syntax-ns#"
   xmlns:svg="http://www.w3.org/2000/svg"
   xmlns="http://www.w3.org/2000/svg"
   xmlns:sodipodi="http://sodipodi.sourceforge.net/DTD/sodipodi-0.dtd"
   xmlns:inkscape="http://www.inkscape.org/namespaces/inkscape"
   width="500"
   height="500"
   id="svg2"
   version="1.1"
   inkscape:version="0.48.4 r9939"
   inkscape:export-filename="/home/brian/src/cytoflow/cytoflowgui/view_plugins/images/kde_2d.png"
   inkscape:export-xdpi="5.8299999"
   inkscape:export-ydpi="5.8299999"
   sodipodi:docname="kde_2d.svg">
  <defs
     id="defs4" />
  <sodipodi:namedview
     id="base"
     pagecolor="#ffffff"
     bordercolor="#666666"
     borderopacity="1.0"
     inkscape:pageopacity="0.0"
     inkscape:pageshadow="2"
     inkscape:zoom="0.98994949"
     inkscape:cx="207.56997"
     inkscape:cy="255.93554"
     inkscape:document-units="px"
     inkscape:current-layer="g3840"
     showgrid="false"
     inkscape:window-width="1217"
     inkscape:window-height="973"
     inkscape:window-x="1823"
     inkscape:window-y="138"
     inkscape:window-maximized="0"
     showguides="true"
     inkscape:guide-bbox="true" />
  <metadata
     id="metadata7">
    <rdf:RDF>
      <cc:Work
         rdf:about="">
        <dc:format>image/svg+xml</dc:format>
        <dc:type
           rdf:resource="http://purl.org/dc/dcmitype/StillImage" />
        <dc:title></dc:title>
      </cc:Work>
    </rdf:RDF>
  </metadata>
  <g
     inkscape:label="Layer 1"
     inkscape:groupmode="layer"
     id="layer1"
     transform="translate(0,-552.36218)">
    <g
       id="g3840">
      <path
         style="fill:#55a868;fill-opacity:1"
         d="m 479.8125,974.28125 c -46.76015,3.86631 -96.11546,6.94305 -137.42729,31.22085 -16.50075,9.8123 -14.92653,39.784 4.23979,45.7167 16.38203,5.6123 31.27588,-6.3311 46.06976,-10.9841 34.21721,-11.7627 72.23645,-7.4755 105.89899,-21.2347 14.78416,-11.0841 10.6848,-39.36232 -8.21875,-43.375 -3.37538,-1.14292 -6.99546,-1.47093 -10.5625,-1.34375 z"
         id="path3889"
         inkscape:connector-curvature="0" />
      <path
         style="fill:#4c72b0;fill-opacity:1"
         d="m 112,722.40625 c -32.263216,1.53087 -58.510927,23.54151 -80.569179,45.08665 -14.192389,12.96945 -31.633492,27.35078 -31.962071,48.22585 1.284166,19.27435 29.305917,27.98897 41.90625,13.75 24.192193,-15.9495 39.981904,-43.98756 68.5,-53.375 11.61231,-0.92546 19.27562,11.52651 18.91523,22.10383 3.52247,27.09384 -0.37254,54.57768 0.99102,81.83367 -0.13218,29.84685 0.98614,61.68078 -13.28125,88.71875 -11.49429,17.92436 -34.217716,24.5757 -54.5625,21.8125 -15.893776,-1.0118 -32.148193,-7.21519 -48.03125,-3.40625 -15.92194,7.21055 -18.635521,32.78745 -3.5625,42.21875 16.612284,13.7007 39.758016,13.2323 60.21875,14.5 39.55384,-0.3412 80.28164,-21.1148 97.45393,-57.76604 18.78297,-37.56099 14.85487,-80.99728 16.63471,-121.79564 0.80229,-33.30597 2.61677,-68.34251 -9.99489,-99.71957 C 163.28484,741.00073 139.42009,721.45581 112,722.40625 z"
         id="path3887"
         inkscape:connector-curvature="0" />
      <path
         style="fill:#55a868;fill-opacity:1"
         d="m 437.40625,570.125 c -50.77974,-1.18433 -98.64566,25.33859 -132.71875,61.53125 -44.09877,46.70677 -69.45383,114.10984 -57.50503,178.52798 6.24014,31.72621 26.53787,59.04872 50.75503,79.53452 50.2018,42.29797 120.83378,58.5063 184.84375,44.3125 15.63591,-6.30562 20.97163,-31.08464 6.3125,-41.21875 -16.17291,-11.54249 -37.17109,-5.34463 -55.625,-6.65625 -45.79342,-1.36869 -92.52608,-20.50294 -121.0625,-57.0625 -20.04393,-29.09368 -18.33272,-68.00444 -5.86595,-99.7482 16.40695,-44.62658 50.29337,-84.46662 95.86595,-100.53305 21.61337,-7.36644 45.22367,-7.60051 67.40625,-2.6875 10.77641,1.45368 22.30564,-3.89237 26.09375,-14.4375 4.93051,-11.38606 0.18924,-25.90743 -10.8125,-31.75 -13.68129,-9.83335 -31.46884,-10.00591 -47.6875,-9.8125 z"
         id="path3881"
         inkscape:connector-curvature="0" />
      <path
         style="fill:#55a868;fill-opacity:1"
         d="m 443.875,694.5 c -44.55346,1.21052 -79.05977,48.73037 -70.5625,91.78125 7.02566,37.37993 44.03129,66.2962 82.21875,62.78125 22.30714,-0.69471 46.29214,-10.3385 57.375,-30.65625 6.56923,-16.86434 -10.47749,-38.53789 -28.59375,-33.3125 -13.11691,3.53355 -25.4702,14.8513 -39.8125,10.09375 -15.47859,-3.29239 -24.10686,-23.42159 -15,-36.625 4.43801,-8.57551 16.82891,-15.00139 25.28125,-8.25 10.57204,8.34053 18.71986,22.71404 33.625,22.96875 16.19888,1.33566 31.85158,-16.3221 25.21875,-32.125 -6.12308,-17.98735 -22.82231,-29.37734 -38.1875,-39.0625 -9.65217,-4.98552 -20.57345,-8.03392 -31.5625,-7.59375 z"
         id="path3873"
         inkscape:connector-curvature="0" />
      <path
         style="fill:#4c72b0;fill-opacity:1"
         d="m 284.6875,553.8125 c -34.04138,8.62773 -66.56088,27.46273 -102.78122,24.10084 -46.86931,0.43038 -95.842839,-7.27031 -140.75003,9.52416 -20.545792,7.32026 -43.539442,17.48618 -52.25,38.875 -4.685482,18.50335 17.5392027,37.73357 34.84375,28.375 19.299,-9.64539 38.090647,-23.69128 60.494869,-23.53867 43.847471,-3.66094 88.103451,4.03886 131.755131,-2.71133 30.97407,-3.9884 62.66607,-12.74939 86.9375,-33.03125 12.00072,-13.49663 4.28524,-39.715 -14.625,-41.53125 -1.20362,-0.12343 -2.41556,-0.13009 -3.625,-0.0625 z"
         id="path3867"
         inkscape:connector-curvature="0" />
    </g>
  </g>
</svg>
