<?xml version="1.0" encoding="UTF-8" standalone="no"?>
<!-- Created with Inkscape (http://www.inkscape.org/) -->

<svg
   xmlns:dc="http://purl.org/dc/elements/1.1/"
   xmlns:cc="http://creativecommons.org/ns#"
   xmlns:rdf="http://www.w3.org/1999/02/22-rdf-syntax-ns#"
   xmlns:svg="http://www.w3.org/2000/svg"
   xmlns="http://www.w3.org/2000/svg"
   xmlns:sodipodi="http://sodipodi.sourceforge.net/DTD/sodipodi-0.dtd"
   xmlns:inkscape="http://www.inkscape.org/namespaces/inkscape"
   width="360"
   height="360"
   id="svg2"
   version="1.1"
   inkscape:version="0.91 r"
   sodipodi:docname="kernel2d.svg"
   inkscape:export-filename="/home/brian/src/cytoflow/cytoflowgui/view_plugins/images/kernel2d.png"
   inkscape:export-xdpi="8"
   inkscape:export-ydpi="8">
  <sodipodi:namedview
     id="base"
     pagecolor="#ffffff"
     bordercolor="#666666"
     borderopacity="1.0"
     inkscape:pageopacity="0.0"
     inkscape:pageshadow="2"
     inkscape:zoom="1"
     inkscape:cx="206.02401"
     inkscape:cy="54.022264"
     inkscape:document-units="px"
     inkscape:current-layer="g3066"
     showgrid="false"
     inkscape:window-width="1624"
     inkscape:window-height="965"
     inkscape:window-x="2065"
     inkscape:window-y="177"
     inkscape:window-maximized="0"
     units="in" />
  <defs
     id="defs4">
    <clipPath
       clipPathUnits="userSpaceOnUse"
       id="clipPath4783">
      <rect
         y="127.12328"
         x="403.0271"
         height="231.53784"
         width="231.53784"
         id="rect4785"
         style="fill:#9c9491;fill-opacity:0.50225226;stroke:#000000;stroke-width:0.77179277;stroke-opacity:1"
         transform="matrix(0.91033914,0.41386308,-0.41386308,0.91033914,0,0)" />
    </clipPath>
    <clipPath
       clipPathUnits="userSpaceOnUse"
       id="clipPath5246">
      <rect
         style="fill:#d4d0ce;fill-opacity:0.43693698;stroke:none"
         id="rect5248"
         width="289.41272"
         height="268.52582"
         x="317.68744"
         y="20.526688"
         inkscape:export-filename="/home/brian/src/cytoflow/cytoflowgui/op_plugins/images/range2d.png"
         inkscape:export-xdpi="7.4099998"
         inkscape:export-ydpi="7.4099998"
         transform="matrix(0.93748362,0.34802939,-0.35652697,0.93428503,0,0)" />
    </clipPath>
    <mask
       maskUnits="userSpaceOnUse"
       id="mask5289">
      <rect
         style="fill:#b3adab;fill-opacity:1;stroke:none"
         id="rect5291"
         width="389.19885"
         height="305.87366"
         x="284.59265"
         y="-5.690537"
         transform="matrix(0.93748362,0.34802939,-0.35652697,0.93428503,0,0)" />
    </mask>
  </defs>
  <metadata
     id="metadata7">
    <rdf:RDF>
      <cc:Work
         rdf:about="">
        <dc:format>image/svg+xml</dc:format>
        <dc:type
           rdf:resource="http://purl.org/dc/dcmitype/StillImage" />
        <dc:title />
      </cc:Work>
    </rdf:RDF>
  </metadata>
  <g
     inkscape:label="Layer 1"
     inkscape:groupmode="layer"
     id="layer1"
     transform="translate(0,-692.35975)">
    <g
       id="g3050"
       transform="translate(-22.857143,208.57143)">
      <g
         transform="translate(-17.677669,19.798989)"
         id="g3066">
        <path
           style="fill:none;stroke:#8982a2;stroke-width:25;stroke-miterlimit:4;stroke-dasharray:none;stroke-opacity:1"
           d="m 288.82706,476.49197 c 10.05425,1.94727 15.06792,12.18796 20.3705,19.66107 4.88972,9.12874 10.61093,20.94823 22.07894,23.42517 8.78113,0.13717 13.98979,-8.41926 19.11371,-14.05606 2.88734,-3.02497 6.2913,-8.29084 10.9642,-8.07274 8.53839,10.36005 2.02678,24.13619 2.2583,36.02657 -0.72742,13.9964 12.63712,23.75825 13.6807,37.51449 2.11312,26.98432 13.08807,65.41331 2.67812,90.24304 -6.10691,6.88225 -16.38693,0.8898 -23.92488,4.87531 -10.59068,4.5165 -16.08308,15.49265 -23.53625,23.55807 -8.52119,11.53833 -20.1973,21.26703 -24.51259,35.1994 -6.4159,16.21605 -7.78151,35.08859 -20.12556,48.43581 -10.21676,6.92929 -24.10349,0.6942 -34.46933,7.47583 -18.20952,8.36401 -54.03525,5.396 -71.44625,15.13638 -8.64831,4.70347 -16.10824,11.68678 -24.96184,15.7387 -4.99797,1.25917 -8.98402,-3.05532 -8.80218,-7.66872 -1.36225,-8.40667 -4.86395,-18.14697 -14.34077,-20.69096 -16.60472,-7.91744 -33.04412,-16.89074 -47.617051,-28.02284 -10.363654,-9.72625 -13.109426,-24.03931 -13.026122,-37.57781 -0.970704,-16.4741 -0.07261,-34.53827 -10.964201,-48.30978 -4.488126,-7.58731 -12.862803,-17.3011 -6.447603,-25.95941 12.818978,-15.03834 26.147355,-30.18235 40.845732,-43.62444 11.552485,-9.23113 29.192985,-7.89966 40.256615,-18.29819 15.58164,-13.20503 21.51602,-34.77727 39.71789,-45.53277 17.57223,-12.42484 35.1314,-24.99865 50.77766,-39.6267 15.28895,-10.46611 35.15224,-10.58152 51.67903,-18.20322 3.16144,-0.92901 6.42843,-1.72405 9.75323,-1.6462 z"
           id="path4932"
           inkscape:connector-curvature="0"
           sodipodi:nodetypes="ccccccccccccccccccccccccccc" />
        <path
           style="fill:none;stroke:#8172b2;stroke-width:25;stroke-miterlimit:4;stroke-dasharray:none;stroke-opacity:1"
           d="m 329.26307,584.42364 c 8.38379,7.45103 20.18482,18.81727 13.15463,30.38102 -9.46323,15.41691 -32.08909,19.62685 -37.98735,37.39198 -6.67068,14.36327 -11.01535,30.7421 -22.55081,42.19121 -10.99723,7.15972 -25.77014,5.10324 -38.11742,9.235 -20.74614,4.24615 -36.51802,19.34985 -45.63148,36.68147 -5.72754,8.27253 -12.42715,20.09108 -24.30702,20.47938 -17.94285,-2.98645 -25.01495,-21.27887 -39.24019,-30.04716 -5.90351,-4.64944 -13.45795,-7.19551 -19.95566,-10.51649 -5.27967,-9.2927 -2.83606,-20.61483 -4.57936,-30.75301 -0.46703,-12.55416 -3.83103,-26.29835 1.5368,-38.14676 9.40895,-7.82653 23.14997,-8.04869 33.28927,-14.98184 19.06035,-10.43309 28.30827,-30.40091 32.34965,-49.78645 5.68954,-15.1034 23.2602,-19.57561 35.92916,-28.04399 8.29251,-4.32908 43.37485,-35.40322 47.93151,-31.38299 22.30665,21.32059 47.25761,40.86232 68.17827,57.29863 z"
           id="path4924"
           inkscape:connector-curvature="0"
           sodipodi:nodetypes="cccccccccccccccc" />
        <path
           style="fill:none;stroke:#7357cd;stroke-width:25;stroke-miterlimit:4;stroke-dasharray:none;stroke-opacity:1"
           d="m 251.28125,591.0749 c 7.64998,0.13569 10.35647,9.24251 6.125,14.17527 -7.17894,14.39922 -2.41434,30.93085 -7.09375,45.66965 -7.29043,10.46944 -21.62976,14.06834 -33.40625,19.03137 -8.43695,2.88675 -15.96136,7.78754 -20.96875,14.56825 -1.78631,2.49956 -6.92662,3.31224 -6.5,-0.75788 -0.56489,-10.46777 9.27871,-18.67748 9.51883,-29.20952 3.04783,-15.58919 6.23347,-31.22741 11.38742,-46.2984 3.8392,-8.68187 16.07305,-7.51269 24.0625,-11.03144 5.99729,-1.35257 10.62702,-5.83437 16.875,-6.1473 z"
           id="path3072"
           inkscape:connector-curvature="0"
           sodipodi:nodetypes="cccccccccc" />
      </g>
    </g>
  </g>
</svg>
