<?xml version="1.0" encoding="UTF-8" standalone="no"?>
<!-- Created with Inkscape (http://www.inkscape.org/) -->

<svg
   xmlns:dc="http://purl.org/dc/elements/1.1/"
   xmlns:cc="http://creativecommons.org/ns#"
   xmlns:rdf="http://www.w3.org/1999/02/22-rdf-syntax-ns#"
   xmlns:svg="http://www.w3.org/2000/svg"
   xmlns="http://www.w3.org/2000/svg"
   xmlns:sodipodi="http://sodipodi.sourceforge.net/DTD/sodipodi-0.dtd"
   xmlns:inkscape="http://www.inkscape.org/namespaces/inkscape"
   width="360"
   height="360"
   id="svg2"
   version="1.1"
   inkscape:version="0.48.4 r9939"
   sodipodi:docname="kernel2d.svg"
   inkscape:export-filename="/home/brian/src/cytoflow/cytoflowgui/op_plugins/images/polygon.png"
   inkscape:export-xdpi="8"
   inkscape:export-ydpi="8">
  <sodipodi:namedview
     id="base"
     pagecolor="#ffffff"
     bordercolor="#666666"
     borderopacity="1.0"
     inkscape:pageopacity="0.0"
     inkscape:pageshadow="2"
     inkscape:zoom="1.4142136"
     inkscape:cx="141.94775"
     inkscape:cy="208.49808"
     inkscape:document-units="px"
     inkscape:current-layer="g3066"
     showgrid="false"
     inkscape:window-width="877"
     inkscape:window-height="833"
     inkscape:window-x="2065"
     inkscape:window-y="309"
     inkscape:window-maximized="0"
     units="in" />
  <defs
     id="defs4">
    <clipPath
       clipPathUnits="userSpaceOnUse"
       id="clipPath4783">
      <rect
         y="127.12328"
         x="403.0271"
         height="231.53784"
         width="231.53784"
         id="rect4785"
         style="fill:#9c9491;fill-opacity:0.50225226;stroke:#000000;stroke-width:0.77179277;stroke-opacity:1"
         transform="matrix(0.91033914,0.41386308,-0.41386308,0.91033914,0,0)" />
    </clipPath>
    <clipPath
       clipPathUnits="userSpaceOnUse"
       id="clipPath5246">
      <rect
         style="fill:#d4d0ce;fill-opacity:0.43693698;stroke:none"
         id="rect5248"
         width="289.41272"
         height="268.52582"
         x="317.68744"
         y="20.526688"
         inkscape:export-filename="/home/brian/src/cytoflow/cytoflowgui/op_plugins/images/range2d.png"
         inkscape:export-xdpi="7.4099998"
         inkscape:export-ydpi="7.4099998"
         transform="matrix(0.93748362,0.34802939,-0.35652697,0.93428503,0,0)" />
    </clipPath>
    <mask
       maskUnits="userSpaceOnUse"
       id="mask5289">
      <rect
         style="fill:#b3adab;fill-opacity:1;stroke:none"
         id="rect5291"
         width="389.19885"
         height="305.87366"
         x="284.59265"
         y="-5.690537"
         transform="matrix(0.93748362,0.34802939,-0.35652697,0.93428503,0,0)" />
    </mask>
  </defs>
  <metadata
     id="metadata7">
    <rdf:RDF>
      <cc:Work
         rdf:about="">
        <dc:format>image/svg+xml</dc:format>
        <dc:type
           rdf:resource="http://purl.org/dc/dcmitype/StillImage" />
        <dc:title />
      </cc:Work>
    </rdf:RDF>
  </metadata>
  <g
     inkscape:label="Layer 1"
     inkscape:groupmode="layer"
     id="layer1"
     transform="translate(0,-692.35975)">
    <g
       id="g3050"
       transform="translate(-22.857143,208.57143)">
      <g
         transform="translate(-17.677669,19.798989)"
         id="g3066">
        <path
           style="fill:#8fb3af"
           d="m 286.6875,465.3125 c -16.05232,3.4211 -31.37307,9.79842 -47.34375,13.28125 -13.05217,3.90041 -23.05819,13.63235 -32.5625,22.6875 -15.18488,13.30786 -32.53621,24.0975 -47.82921,37.09643 -9.61259,13.12955 -15.61689,31.02903 -31.29579,38.21607 -12.81041,4.87162 -27.7808,7.35023 -36.631369,19.0249 C 77.127515,610.17582 62.548839,624.81713 52.25,642.125 c -4.806943,12.96749 5.775585,24.73516 11.65625,35.03125 11.483365,23.40565 -0.01627,52.80088 15.78125,74.71875 8.803129,13.63274 24.28915,20.00221 37.4375,28.53125 7.18686,4.37526 15.41134,7.58277 22.125,12.34375 3.2806,6.4601 2.20805,14.82819 7.4375,20.46875 6.41953,7.92508 19.29423,8.68238 26.75,1.71875 14.34103,-10.83045 29.7976,-20.02565 46.19951,-27.29181 C 229.9873,783.09147 239.82383,776.58975 250.875,774 c 10.40479,-0.52866 22.9933,0.14911 30.09375,-8.96875 16.26145,-16.12467 13.42588,-41.66282 25.65625,-60.21875 8.36636,-12.91368 19.63795,-24.0565 28.25,-36.9375 4.79596,-6.58549 13.2061,-5.00791 20.24746,-5.25875 6.98336,0.25272 12.57788,-4.72276 15.03379,-10.99125 7.34412,-14.32413 10.06026,-30.66144 13.8125,-46.125 1.56883,-14.92554 1.18198,-30.10575 0.53125,-45 -5.82605,-10.72884 -14.09914,-22.02846 -11.6875,-34.9375 0.0727,-8.56744 2.47746,-17.57012 0.875,-25.90625 -4.0361,-5.45126 -7.6769,-14.52487 -16.03125,-13.1875 -11.12161,-0.90732 -18.18679,9.03681 -24,16.875 -1.46132,2.21326 -4.57381,5.73684 -6.53125,1.6875 -6.86197,-8.72079 -9.56042,-20.06828 -17.97975,-27.71359 -5.69809,-6.39109 -13.33486,-12.51266 -22.45775,-12.00516 z m 1.71875,11.53125 c 9.59992,1.9222 14.38705,12.03098 19.45001,19.40783 4.66876,9.01115 10.13144,20.67838 21.08124,23.12342 8.38433,0.1354 13.35761,-8.31081 18.25,-13.875 2.75686,-2.986 6.007,-8.18404 10.46875,-7.96875 8.15256,10.2266 1.93519,23.82528 2.15625,35.5625 -0.69455,13.8161 12.06608,23.45221 13.0625,37.03125 2.01763,26.63672 -4.12295,53.49011 -14.0625,78 -5.83094,6.79359 -15.64643,0.87833 -22.84375,4.8125 -10.11211,4.45832 -15.35633,15.29308 -22.4727,23.25461 -8.13614,11.38971 -19.28463,20.99308 -23.40492,34.74599 -6.12597,16.00717 -7.42988,34.63661 -19.21613,47.8119 -9.75509,6.84003 -23.0143,0.68524 -32.91173,7.37953 -17.38667,8.25628 -34.97392,16.4071 -51.59815,26.02201 -8.25751,4.64288 -15.38034,11.53623 -23.83387,15.53596 -4.77213,1.24294 -8.57805,-3.01597 -8.40443,-7.56994 -1.30069,-8.29838 -4.64415,-17.91322 -13.69274,-20.42443 C 124.57969,771.87768 108.88316,763.01996 94.96875,752.03125 85.073407,742.43029 82.45171,728.3016 82.53125,714.9375 81.60441,698.67561 82.461921,680.84412 72.0625,667.25 c -4.285318,-7.48956 -12.281561,-17.07823 -6.15625,-25.625 12.239714,-14.84464 24.96581,-29.79356 39,-43.0625 11.03045,-9.11223 27.87381,-7.79792 38.4375,-18.0625 14.87754,-13.03493 20.54376,-34.32927 37.92312,-44.94625 16.77818,-12.26478 33.54389,-24.67664 48.48313,-39.11625 14.59806,-10.33131 33.56378,-10.44522 49.34375,-17.96875 3.0186,-0.91704 6.13795,-1.70183 9.3125,-1.625 z m -35.5625,25.625 c -19.18035,0.0608 -32.28428,16.00154 -45.08008,28.05163 -17.73732,16.73608 -36.79094,32.77446 -49.92705,53.66074 -11.09638,14.29578 -29.20535,20.38132 -42.14912,32.47513 -8.83529,11.60156 -4.95396,27.27114 -5.84375,40.8125 0.001,12.06418 2.55652,25.06462 -3.8125,36.03125 -4.63031,10.02758 -6.248793,22.33653 0.0312,32.03125 11.3829,22.64745 37.88718,37.27045 63.1875,32.03125 18.37184,-2.18367 39.38497,-1.34089 53.6875,-15 7.73817,-5.92633 12.34813,-14.87803 19.46875,-21.375 4.26125,-3.96324 10.13082,-0.0203 14.78125,-3.21875 22.17492,-12.12394 36.98463,-33.8169 51.25002,-54.08129 7.20825,-12.84765 14.07026,-26.48012 25.31248,-36.13746 7.93815,-7.95416 14.41287,-20.9691 8.125,-31.78125 -8.48104,-14.79558 -22.36359,-25.60687 -31.21875,-40.125 -8.31305,-11.22992 -22.48279,-17.44538 -27.59375,-31.0625 -5.23494,-11.88576 -15.95212,-23.8926 -30.21875,-22.3125 z m 0.9375,11.21875 c 11.58862,-0.0398 16.31614,12.87761 20.75,21.4375 8.66783,14.06797 24.59009,21.79 32.55424,36.52943 7.97417,11.26066 20.69397,19.85738 24.72701,33.50182 0.0421,10.54615 -10.04707,17.01841 -16.03125,24.4375 -12.18277,13.60889 -17.42519,31.80769 -29.95646,45.19656 -10.17257,12.70008 -20.55544,26.66075 -35.79354,33.14719 -5.0608,-0.0688 -11.00559,-0.66867 -14.5625,3.75 -10.95159,9.17227 -17.17518,23.96228 -31.44795,29.08709 -12.69768,4.51502 -26.85545,3.81332 -40.11455,6.16291 -12.93704,1.76331 -25.71085,-2.99831 -35.15625,-11.8125 -9.63688,-8.20719 -18.64167,-22.2071 -12.0625,-34.875 4.03161,-8.36634 7.38918,-17.46304 5.98915,-26.90604 0.56766,-15.82854 -2.13465,-32.21265 2.01085,-47.65646 5.25507,-9.02345 16.66623,-11.47491 24.34375,-17.96875 18.98863,-12.22533 28.49266,-33.82464 45.28176,-48.41349 14.0024,-12.46447 27.23402,-25.84572 40.99949,-38.24276 5.22625,-4.34586 11.53428,-7.64867 18.46875,-7.375 z m -3.09375,18.75 c -18.87343,4.51574 -30.39692,21.95462 -46.71875,30.96875 -13.2501,5.42714 -24.20773,17.06335 -26.1875,31.625 -2.69625,11.2695 -9.88325,22.00542 -21.40625,25.625 -9.59788,3.67705 -22.41214,7.69793 -24.375,19.375 -1.93306,16.62286 0.61403,33.48715 2.9375,49.875 1.04272,6.52556 6.04841,11.98098 12.6875,12.875 15.20351,6.43203 21.43311,26.41701 38.90625,28.59375 13.97627,2.33723 25.75158,-8.9748 30.9375,-20.90625 6.29848,-12.05447 17.79402,-22.83589 32.0625,-23.65625 7.7831,-1.08518 16.7773,-0.56644 22.59375,-6.9375 13.22804,-10.21217 15.27144,-27.9967 23.1875,-41.625 8.81183,-8.41281 21.59177,-14.13489 25.21875,-26.75 4.30777,-11.84507 -4.5303,-22.8712 -12.6875,-30.375 -15.30805,-13.39356 -31.67314,-25.6543 -45.17008,-41.05658 -3.38207,-3.15559 -6.7323,-8.08075 -11.98617,-7.63092 z m 0.375,13.40625 c 14.64944,15.44156 31.04633,28.89438 47.1875,42.5 5.85543,5.57951 14.09754,14.09081 9.1875,22.75 -6.60934,11.54454 -22.41176,14.69705 -26.53125,28 -4.65895,10.75554 -7.69337,23.02038 -15.75,31.59375 -7.68072,5.36137 -17.99846,3.82142 -26.62209,6.91538 -14.48958,3.17962 -25.50502,14.48962 -31.87008,27.46795 -4.00024,6.19464 -8.6794,15.04466 -16.97658,15.33542 -12.5317,-2.23631 -17.47102,-15.93411 -27.40625,-22.5 -4.12315,-3.48161 -9.39935,-5.38817 -13.9375,-7.875 -3.68744,-6.95858 -1.98077,-15.43686 -3.19833,-23.02856 -0.32619,-9.40086 -2.67568,-19.69283 1.07333,-28.56519 6.57144,-5.86068 16.16848,-6.02704 23.25,-11.21875 13.31219,-7.81254 19.77115,-22.76489 22.59375,-37.28125 3.9737,-11.30977 16.24545,-14.65867 25.09375,-21 10.91192,-7.80044 20.3134,-18.4042 32.75,-24.1875 l 0.72647,0.6872 0.42978,0.40655 z m -3.28125,26.96875 c -10.82444,1.08015 -19.23006,9.89696 -30.09375,10.96875 -10.33862,2.39909 -20.51364,9.91265 -21.45504,21.25973 -4.70646,18.1582 -8.44927,36.68945 -11.70121,55.02152 -3.70886,10.37028 -11.85507,21.7266 -6.34375,33 4.58891,8.70807 18.91052,9.71339 23.52877,0.5299 6.4534,-8.98923 16.36416,-13.85372 26.54364,-17.21197 12.19699,-5.4124 25.98553,-12.30574 31.05259,-25.47418 4.32283,-16.00862 -1.0798,-33.77321 6.625,-49 3.26999,-7.97426 3.54441,-18.78887 -4.53125,-24.03125 -3.71895,-3.23456 -8.60841,-5.47885 -13.625,-5.0625 z m 1.5,10.25 c 7.64998,0.15107 10.35647,10.28964 6.125,15.78125 -7.17894,16.03056 -2.41434,34.43512 -7.09375,50.84375 -7.29043,11.65556 -21.62976,15.66219 -33.40625,21.1875 -8.43695,3.21381 -15.96136,8.66983 -20.96875,16.21875 -1.78631,2.78274 -6.92662,3.6875 -6.5,-0.84375 -0.56489,-11.65371 9.27871,-20.79352 9.51883,-32.51878 3.04783,-17.35535 6.23347,-34.76529 11.38742,-51.54372 3.8392,-9.66549 16.07305,-8.36384 24.0625,-12.28125 5.99729,-1.5058 10.62702,-6.49537 16.875,-6.84375 z"
           id="path3072"
           inkscape:connector-curvature="0" />
        <path
           style="fill:#79a89e"
           d="m 285.78125,465.6875 c -15.09375,2.19473 -28.73914,10.00202 -43.8125,12.28125 -18.73792,4.70079 -30.35766,20.88191 -45.28814,31.803 -12.32521,9.99779 -26.22175,18.20266 -37.80561,28.97825 -8.78512,12.26483 -14.68258,27.73765 -27.59375,36.375 -12.53815,6.61031 -29.4888,6.82284 -38.505556,19.13459 -13.742328,14.66007 -28.499837,28.67244 -39.525694,45.45916 -4.418725,10.74112 0.04982,22.50619 7.15625,30.875 7.378321,10.6416 9.483181,23.82796 9.482098,36.624 0.413883,18.03882 1.254657,38.74092 15.580402,51.5635 12.040726,11.18538 27.02704,18.60791 41.1875,26.8125 6.12695,2.55633 14.75776,5.38135 14.55692,13.57077 1.26558,8.90647 6.67793,19.44243 16.81808,19.74173 10.68326,1.79937 18.68201,-6.47775 26.625,-12.03125 19.38173,-12.95331 40.75905,-22.35257 62,-31.8125 10.87812,-2.41056 23.69072,-0.061 32.4375,-8.4375 14.77126,-12.44677 15.14843,-33.39013 21.96875,-50.15625 3.97824,-11.81491 11.93737,-21.42151 20.04593,-30.57486 6.48129,-7.89605 11.23578,-18.7001 20.95407,-22.89389 8.27157,-1.11252 19.85328,2.48517 24.8125,-6.625 10.07797,-15.29584 13.20318,-34.02757 16.63866,-51.76671 3.02592,-19.45356 4.3222,-41.51069 -7.35741,-58.48329 -6.84011,-10.36279 -1.97284,-23.12868 -2.53125,-34.65625 0.3406,-9.88644 -2.68906,-22.77648 -13.71875,-25.40625 -9.75178,-1.1329 -17.71721,6.22936 -22.875,13.75 -2.32957,2.29535 -4.96257,6.99992 -8.3125,6.8125 -6.96223,-6.79252 -9.52061,-16.88849 -15.57495,-24.44319 -6.21889,-9.03028 -15.78945,-17.01208 -27.36255,-16.49431 z m 2.125,11.03125 c 13.24084,2.62147 18.19251,17.50489 24.625,27.6875 4.03349,6.7792 10.04052,15.25591 18.78125,14.875 10.59123,-3.43629 14.6474,-15.23172 23.21875,-21.15625 5.28876,-2.66823 7.09336,5.33251 7.125,9.0625 0.32282,11.17456 -1.82732,22.44198 -1.09375,33.53125 2.94984,10.80087 14.09059,19.21971 12.27613,31.3421 1.50827,16.25535 -0.0569,32.70681 -5.10495,48.16069 -2.64058,10.52924 -4.28659,21.75095 -11.01493,30.55971 -9.24839,1.80065 -20.74312,-1.35523 -27.65625,6.9375 -11.54708,11.28049 -19.64749,25.59846 -30.53125,37.3125 -13.62692,17.99425 -12.6186,42.62037 -24.875,61.1875 -6.54311,7.64916 -17.04481,5.7014 -25.90625,6.9375 -13.65938,3.27161 -25.64099,11.54783 -38.57527,17.10276 -15.72077,7.35304 -30.80592,16.02825 -44.26848,26.95974 -3.78952,2.51744 -9.21908,0.78143 -10.03125,-4.03125 -2.57713,-8.18875 -3.40204,-19.43951 -12.96875,-22.625 -16.86684,-8.02549 -33.01432,-17.68471 -47.9375,-29.03125 C 79.301584,735.94892 82.82475,712.60548 81,692.8125 80.077498,679.99862 73.604184,668.87381 66.53125,658.53125 c -3.58577,-4.97089 -5.228426,-12.77288 0.167003,-17.31988 12.493619,-15.99458 25.390048,-31.65462 40.770497,-44.93012 12.01066,-7.05427 27.72597,-6.69952 37.60095,-17.59399 13.31331,-13.2684 19.79394,-32.43435 35.6178,-43.34351 14.99822,-11.83075 32.19315,-21.46114 44.8125,-35.78125 9.71165,-9.45951 23.3605,-11.75321 35.82644,-15.05782 8.86758,-2.76253 17.35397,-6.95463 26.57981,-7.78593 z m -36.15625,26.25 c -14.57401,0.19629 -26.1557,10.26073 -35.55145,20.2756 -15.01801,14.87811 -31.79647,27.88774 -45.4173,43.9744 -9.07931,13.10124 -19.20484,25.84362 -32.9375,34.375 -11.21666,7.08684 -26.44227,14.81566 -27.125,29.96875 -2.07611,18.8853 2.08965,38.24333 -1.75,56.875 -2.63789,7.36618 -7.94221,14.24188 -6.59375,22.625 2.24283,20.62207 19.43786,36.92107 38,44.125 13.16863,5.75095 27.38441,1.4431 41.11995,0.93084 15.64898,-1.41565 32.88579,-4.008 43.94364,-16.24998 7.05063,-6.0376 11.44696,-15.25243 19.15516,-20.52461 3.97554,-0.83116 8.19179,0.6835 12.03125,-1.53125 13.46614,-6.58135 23.48617,-18.5083 33.375,-29.5 12.38411,-14.17627 21.59348,-30.45456 30.94375,-46.70625 8.13704,-11.33958 22.85939,-20.31472 23.3375,-35.6375 -0.92045,-14.83826 -14.5995,-23.90981 -22.61738,-35.00541 -9.07708,-11.89841 -18.18107,-23.95675 -30.32012,-32.74459 -9.69739,-10.11342 -11.98033,-26.62025 -25.46875,-33.125 -4.27717,-2.57983 -9.31192,-2.14435 -14.125,-2.125 z m 1.3125,10.3125 c 11.02612,-0.35853 17.49169,11.04496 20.90625,20.125 7.94242,14.3824 24.17992,21.65297 31.96875,36.1875 8.4069,11.81678 20.69851,21.3251 26.53125,34.75 0.25975,11.37518 -10.95339,18.13668 -17.1875,26.25 -10.49083,12.79105 -16.21139,28.84518 -27.0601,41.50947 -10.30329,13.91054 -21.59984,28.68611 -37.65865,36.08428 -5.24964,-0.12778 -11.55174,-0.99021 -15.125,3.84375 -11.21448,10.50311 -19.18876,26.6806 -35.5,30.34375 -14.05151,3.74067 -28.75539,3.72805 -43.1875,4.875 -20.20002,-0.73329 -39.8212,-16.69528 -42.75,-37.0625 0.89414,-11.12297 9.80085,-20.30376 7.84375,-31.96875 0.3968,-17.19165 -1.68286,-34.79236 1.75,-51.71875 4.80892,-9.01274 16.07452,-11.8828 23.84375,-17.9375 16.62838,-10.07732 26.03181,-27.49754 38.375,-41.875 13.07912,-12.39282 26.85848,-23.9781 39.5125,-36.84625 7.94829,-6.95899 16.26564,-16.33993 27.7375,-16.56 z m -1.96875,19.84375 c -16.66441,3.8286 -28.16951,17.49941 -41.15625,27.53125 -9.25388,5.73014 -20.81395,9.52824 -25.875,19.96875 -6.76608,10.8725 -5.61832,26.23025 -16.625,34.1875 -9.91679,9.20699 -26.51213,8.33109 -33.4375,21.09375 -4.19699,8.87295 -0.86378,19.29282 -1.08132,28.74719 1.67932,9.75224 -0.28837,20.5271 4.33132,29.53406 3.17357,6.54573 10.63075,7.79321 16.1875,10.84375 10.89179,7.84631 17.10575,22.55373 31.125,25.71875 13.45213,3.61617 26.02998,-7.20443 31.13254,-18.73663 6.77984,-12.62771 17.87461,-24.99031 33.17996,-25.54462 10.4613,-0.9339 22.44397,-3.09959 28.46875,-12.6875 8.6065,-11.0113 10.3483,-25.86007 18.6875,-36.90625 9.56739,-8.95337 24.16896,-16.34764 25.125,-31 -0.35759,-15.45015 -14.84364,-24.73092 -25.03416,-34.05728 -14.56692,-11.30527 -27.23453,-24.7584 -40.55959,-37.38022 -1.27539,-0.9519 -2.86208,-1.47898 -4.46875,-1.3125 z m -0.4375,12.0625 c 10.11265,8.28395 18.24417,18.58721 28.65625,26.5 10.80215,9.42606 23.56836,17.64318 30.3125,30.53125 2.14615,10.01518 -8.39648,17.03023 -15.53125,21.96875 -13.80904,9.73015 -15.41057,28.01122 -24.03125,41.375 -4.75031,7.63132 -13.46792,10.01488 -21.875,10.4375 -14.12806,1.88001 -28.23115,8.33962 -35.78125,20.96875 -6.14407,8.7246 -10.09096,21.31025 -21.5,24.25 -13.52221,-1.14331 -19.12055,-15.62789 -28.59375,-23.125 -4.39876,-4.14686 -11.81453,-4.19403 -15.4375,-8.96875 -3.06695,-8.0398 -0.82219,-17.02215 -2.3125,-25.40625 -0.31438,-8.57785 -5.45409,-19.73495 2.3125,-26.375 9.68566,-6.81934 22.87058,-7.90846 30.875,-17.25 8.99457,-9.09886 10.76325,-22.37414 15.34375,-33.71875 4.14906,-8.59537 13.54508,-11.59895 21.21875,-15.90625 12.28448,-7.96956 21.34527,-20.97672 35.65625,-25.71875 l 0.6875,0.4375 z"
           id="path3070"
           inkscape:connector-curvature="0" />
        <path
           style="fill:#768f8f"
           d="m 286.84375,465.75 c -16.73616,2.60299 -32.31261,10.31397 -48.90625,13.4375 -17.81548,6.32382 -28.90404,22.89431 -44.49171,33.03105 -11.63359,9.10456 -24.41092,17.04343 -34.97704,27.3127 -9.94375,13.28384 -16.0392,32.04756 -32.84375,38.25 -11.99265,3.93585 -25.51613,6.67715 -33.729787,17.18432 -13.606627,14.18029 -27.543945,28.71032 -38.176463,45.15943 -4.463094,8.24024 -2.254659,18.52624 3.73419,25.46234 6.515987,9.24682 11.936492,19.52163 11.905119,31.1568 1.831008,19.44316 -0.8152,41.63256 12.454441,57.69336 9.778045,12.57398 25.05574,18.95688 38.24617,27.25638 6.12431,4.12056 13.78509,6.09074 19.28508,10.96237 4.11258,7.17012 2.3728,17.40175 9.78125,22.75 8.36491,6.62171 20.81405,3.69069 27.98467,-3.45755 16.07179,-13.02525 35.47521,-20.53325 53.62893,-30.1932 8.96233,-4.47965 18.31995,-8.4399 28.53854,-8.25229 10.29474,-0.16453 20.23164,-5.17665 25.81661,-13.81571 11.76655,-17.65959 10.54574,-40.79626 23.125,-58.25 6.47812,-9.3962 15.03073,-16.90201 20.93695,-26.80506 4.64375,-6.23073 10.49755,-13.85827 19.34411,-12.17534 7.63497,1.1106 16.61184,-0.70928 20.03144,-8.42585 C 377.37415,639.30312 379.27528,621.50931 383.5,605 c 4.0349,-21.02026 2.83698,-44.44 -9.375,-62.46875 -6.15562,-15.01082 4.72829,-32.22561 -3.53125,-46.84375 -2.98001,-6.83508 -10.76419,-11.71691 -18.125,-8.6875 -10.8888,2.34248 -14.34973,14.73973 -22.96875,20.40625 -7.42136,-4.71455 -8.67284,-14.63975 -14.125,-21.21875 -6.34134,-9.92756 -15.58342,-20.75391 -28.53125,-20.4375 z m 0.4375,10.78125 c 12.87746,2.16776 18.96562,15.85655 24.40625,26.125 3.64996,7.60365 10.07756,16.85921 19.53125,16.0625 11.78194,-2.82008 14.7703,-17.8229 25.5625,-21.625 7.37646,4.05707 4.22973,14.77652 4.94733,21.71852 0.36982,9.06988 -1.74977,18.75562 0.70892,27.46898 4.57936,7.95562 12.00855,15.16975 10.38128,25.3118 1.05436,16.61317 0.76173,33.54145 -4.81878,49.2507 -2.69961,10.60709 -4.86085,21.61585 -11.25,30.6875 -11.05534,-0.79365 -24.33278,-0.31361 -31.1875,9.8125 -9.10036,10.94375 -16.95629,22.7086 -26.46885,33.11707 -12.43372,16.6814 -13.18254,38.65444 -21.90615,56.78918 -3.63425,7.52721 -11.7163,12.20589 -20.125,11.0625 -18.39974,0.94362 -33.96641,12.22681 -50.42437,19.38732 -14.9978,7.31474 -29.46641,15.93825 -42.63813,26.14393 -4.54008,2.44796 -9.55261,-0.90299 -10.09375,-5.78125 -1.9581,-7.58067 -2.12634,-18.50193 -11.593,-20.91095 C 126.24551,772.93075 109.99154,763.94293 95.6875,753.125 82.018246,741.13361 81.955646,722.05251 81.482919,705.28242 81.431231,690.98545 78.693812,676.32398 70.082475,664.62871 65.767996,658.33684 59.027565,648.76484 65.875,641.9375 c 12.58482,-16.45648 26.194748,-32.29819 41.90625,-45.84375 12.60238,-7.43048 29.7017,-7.09202 39.1875,-19.5 12.79233,-14.43591 20.39755,-33.94556 37.40613,-44.26055 15.30286,-10.65311 31.01955,-21.52654 43.59387,-35.23945 14.54133,-11.41052 34.40734,-11.12004 50.79052,-18.66565 2.79414,-0.86295 5.58052,-1.83516 8.52198,-1.89685 z m -34.4375,26.9375 c -17.5912,-0.65087 -29.69244,14.32251 -41.55086,25.01961 -17.64222,17.09674 -37.5641,32.50541 -50.66789,53.63664 -10.27913,13.65392 -25.52124,21.28109 -39.15625,30.84375 -6.647,5.37001 -12.42401,13.2316 -10.65625,22.375 -0.28515,17.21173 1.0437,34.74736 -0.77332,51.7625 -6.47001,11.92105 -10.304168,27.45113 -2.17392,39.57783 10.20801,18.53701 30.98263,32.77181 52.85333,30.2354 16.32285,-0.57208 33.13079,-1.14967 48.65641,-6.51323 13.09156,-5.93979 22.26205,-17.66245 30.875,-28.59375 4.32286,-4.91565 11.5829,-1.56432 16.9375,-4.6875 20.31327,-11.39603 33.97106,-31.21356 48.00714,-49.37395 7.69867,-13.24545 14.31525,-27.41682 25.41302,-38.21202 7.43031,-7.74052 16.42598,-18.74783 11.54859,-30.13278 -6.56274,-15.08983 -20.38132,-24.8356 -28.96875,-38.5625 -7.25058,-10.04179 -16.77714,-17.92396 -25.65625,-26.40625 -6.60858,-9.12733 -9.72223,-21.17589 -19.8125,-27.375 -4.18426,-3.25856 -9.70734,-3.89488 -14.875,-3.59375 z m 4.21875,9.75 c 12.70701,2.90772 14.50827,17.77253 21.875,26.53125 8.82009,10.55908 21.28282,18.00848 28.09375,30.25 8.17688,11.46029 20.0619,20.60747 26.03125,33.40625 1.58121,9.75264 -7.9722,16.634 -13.53125,23.28125 -13.72388,15.27736 -20.79065,35.15814 -34.34375,50.5 -9.49235,12.0965 -19.9372,24.28747 -33.90625,31.09375 -6.89224,-0.0976 -14.2974,1.24039 -18.46875,7.1875 -10.10687,10.28574 -17.98567,25.81216 -33.9375,27.65625 -15.55495,2.8959 -31.6367,4.58927 -47.40625,4.21875 -17.67777,-3.01991 -33.62253,-17.29388 -37.8125,-34.65625 -1.49583,-11.54959 7.98291,-20.73716 7.53125,-32.25 1.62104,-17.6864 -1.21982,-35.69425 1.71875,-53.21875 2.6331,-8.59229 13.05237,-10.26473 19.125,-15.78125 14.44467,-9.43476 26.71796,-21.7481 36.22379,-36.18281 15.48349,-18.67305 34.8555,-33.5155 51.86996,-50.53594 6.43413,-6.81322 15.11354,-12.23349 24.90625,-11.53125 0.67351,0.0685 1.36754,-0.19703 2.03125,0.0312 z"
           id="path3068"
           inkscape:connector-curvature="0" />
      </g>
    </g>
  </g>
</svg>
