<?xml version="1.0" encoding="UTF-8" standalone="no"?>
<!-- Created with Inkscape (http://www.inkscape.org/) -->

<svg
   width="500"
   height="500"
   id="svg2"
   version="1.1"
   xml:space="preserve"
   xmlns="http://www.w3.org/2000/svg"
   xmlns:svg="http://www.w3.org/2000/svg"
   xmlns:rdf="http://www.w3.org/1999/02/22-rdf-syntax-ns#"
   xmlns:cc="http://creativecommons.org/ns#"
   xmlns:dc="http://purl.org/dc/elements/1.1/"><defs
     id="defs4" /><metadata
     id="metadata7"><rdf:RDF><cc:Work
         rdf:about=""><dc:format>image/svg+xml</dc:format><dc:type
           rdf:resource="http://purl.org/dc/dcmitype/StillImage" /></cc:Work></rdf:RDF></metadata><g
     id="layer1"
     transform="translate(0,-552.36218)"><path
       style="fill:none;fill-rule:evenodd;stroke:#000000;stroke-width:24.00000191;stroke-linecap:butt;stroke-linejoin:miter;stroke-miterlimit:4;stroke-dasharray:none;stroke-opacity:1"
       d="m 107.07618,558.39761 0,485.88339"
       id="path4146" /><path
       style="fill:none;fill-rule:evenodd;stroke:#000000;stroke-width:23.65955734;stroke-linecap:butt;stroke-linejoin:miter;stroke-miterlimit:4;stroke-dasharray:none;stroke-opacity:1"
       d="M 6.0609149,667.77833 H 493.9646"
       id="path4148" /><path
       style="fill:#000000;stroke-width:2.22268"
       d="m 268.48587,991.95597 -15.42679,-15.18137 22.1749,-24.43117 c 12.19622,-13.43712 22.17493,-26.15457 22.17493,-28.26099 0,-4.70929 -7.88292,-9.26101 -11.87804,-6.85858 -1.61064,0.96854 -12.27534,12.06188 -23.69935,24.65189 l -20.77093,22.89094 -15.16814,-15.05194 c -8.34249,-8.27856 -15.16817,-15.23258 -15.16817,-15.45338 0,-0.22071 10.25213,-9.60919 22.7825,-20.8631 12.53038,-11.25393 23.57493,-21.83908 24.54349,-23.52256 2.38087,-4.13841 -2.11446,-12.01051 -6.8586,-12.01051 -2.10642,0 -14.82387,9.97871 -28.26099,22.17493 l -24.43115,22.1749 -15.18151,-15.42679 c -9.58025,-9.73504 -14.90253,-16.87539 -14.42538,-19.35304 0.67391,-3.49934 22.42358,-21.48987 72.56468,-60.02281 l 16.28562,-12.51533 50.95053,50.91442 c 28.02281,28.00293 50.95056,51.43079 50.95056,52.06192 0,3.43051 -68.50577,87.8728 -71.80421,88.5078 -2.47881,0.4774 -9.61664,-4.8426 -19.35395,-14.42523 z M 321.28381,853.95282 C 294.70537,827.3538 272.9594,804.80023 272.9594,803.83379 c 0,-2.39914 17.83699,-10.32425 23.33817,-10.36933 14.40463,-0.11802 22.3557,4.98317 49.64064,31.84809 15.07759,14.84548 28.80184,29.63737 30.4983,32.87086 5.81307,11.07965 6.27659,22.69339 1.35024,33.83023 -2.50617,5.6656 -5.37158,10.30107 -6.36759,10.30107 -0.99603,0 -23.55693,-21.76284 -50.13535,-48.36189 z m 38.86255,-38.89811 -20.61316,-20.73078 35.06059,-34.58517 c 37.58028,-37.0707 42.2108,-39.88133 58.16568,-35.30554 10.18444,2.92088 15.38557,8.08499 18.02856,17.90031 4.43603,16.47422 1.91222,20.63966 -35.36557,58.36908 l -34.66294,35.08287 z"
       id="path241" /></g></svg>
