<?xml version="1.0" encoding="UTF-8" standalone="no"?>
<!-- Created with Inkscape (http://www.inkscape.org/) -->

<svg
   width="500"
   height="500"
   id="svg2"
   version="1.1"
   inkscape:version="1.2.2 (b0a8486541, 2022-12-01)"
   inkscape:export-filename="/home/brian/src/cytoflow/cytoflowgui/view_plugins/images/bar_chart.png"
   inkscape:export-xdpi="5.8299999"
   inkscape:export-ydpi="5.8299999"
   sodipodi:docname="matrix.svg"
   xml:space="preserve"
   xmlns:inkscape="http://www.inkscape.org/namespaces/inkscape"
   xmlns:sodipodi="http://sodipodi.sourceforge.net/DTD/sodipodi-0.dtd"
   xmlns="http://www.w3.org/2000/svg"
   xmlns:svg="http://www.w3.org/2000/svg"
   xmlns:rdf="http://www.w3.org/1999/02/22-rdf-syntax-ns#"
   xmlns:cc="http://creativecommons.org/ns#"
   xmlns:dc="http://purl.org/dc/elements/1.1/"><defs
     id="defs4" /><sodipodi:namedview
     id="base"
     pagecolor="#ffffff"
     bordercolor="#666666"
     borderopacity="1.0"
     inkscape:pageopacity="0.0"
     inkscape:pageshadow="2"
     inkscape:zoom="1.4"
     inkscape:cx="143.92857"
     inkscape:cy="232.5"
     inkscape:document-units="px"
     inkscape:current-layer="layer1"
     showgrid="false"
     inkscape:window-width="2494"
     inkscape:window-height="1371"
     inkscape:window-x="66"
     inkscape:window-y="32"
     inkscape:window-maximized="1"
     showguides="true"
     inkscape:guide-bbox="true"
     inkscape:showpageshadow="2"
     inkscape:pagecheckerboard="0"
     inkscape:deskcolor="#d1d1d1" /><metadata
     id="metadata7"><rdf:RDF><cc:Work
         rdf:about=""><dc:format>image/svg+xml</dc:format><dc:type
           rdf:resource="http://purl.org/dc/dcmitype/StillImage" /><dc:title /></cc:Work></rdf:RDF></metadata><g
     inkscape:label="Layer 1"
     inkscape:groupmode="layer"
     id="layer1"
     transform="translate(0,-552.36218)"><g
       id="g318"
       transform="matrix(0.29536236,0,0,0.29536236,145.04936,540.45995)"><path
         style="fill:#d98358"
         d="m 1113.0757,1378.2089 c -21.175,-5.3945 -62.8,-15.9636 -92.5,-23.4868 -29.69997,-7.5232 -64.34997,-16.3149 -76.99997,-19.5372 -12.65,-3.2223 -47.3,-11.99 -77,-19.4837 -74.60488,-18.8238 -73.35338,-18.4625 -67.99998,-19.6276 1.65,-0.3591 84.75538,-0.7061 184.67858,-0.7712 163.93017,-0.1067 181.83207,0.035 183.24997,1.4531 1.8963,1.8963 1.8904,0.5643 0.1063,23.9286 -1.6629,21.7764 -2.5544,28.7253 -6.0944,47.5 -3.4067,18.0674 -4.0703,20.0202 -6.7681,19.9166 -1.1948,-0.046 -19.4974,-4.4972 -40.6724,-9.8918 z M 752.57575,704.45609 c -10.6894,-1.03424 -22.8566,-2.81332 -31,-4.53279 -67.9221,-14.34166 -126.5436,-58.70968 -158.9344,-120.29053 -3.8546,-7.32823 -4.4522,-9.13475 -3.3748,-10.20203 0.7201,-0.71331 21.1092,-10.26823 45.3092,-21.23317 24.2,-10.96493 68.075,-30.84509 97.5,-44.17813 29.425,-13.33305 56.9479,-25.75833 61.162,-27.61174 l 7.662,-3.36984 h 116.11938 c 106.5204,0 116.17117,0.13506 116.74627,1.63377 0.792,2.06391 -1.251,25.13685 -3.2201,36.36623 -3.86777,22.05775 -10.34857,41.8119 -20.57207,62.70594 -34.0319,69.55172 -100.1133,117.81236 -176.39748,128.82676 -10.5052,1.51681 -42.5617,2.70198 -51,1.88553 z M 309.42949,478.95683 c 0,-13.20685 -40.875,-1.26085 -61.5,-1.85639 -89.63421,-2.58814 -81.23785,-3.88967 25.73095,-3.98846 l 80.23095,-0.0741 0.61319,2.44316 c 1.27954,5.09811 -45.07509,51.02702 -45.07509,3.47581 z"
         id="path322"
         sodipodi:nodetypes="sssssssssssssssssscssssssssscsss" /><path
         style="fill:#4e70aa"
         d="m -94.57051,1705.6746 c -17.54688,-1.7017 -27.65583,-3.1523 -42.5,-6.0989 -95.04827,-18.8669 -179.46099,-69.3365 -240.66539,-143.8916 -33.0599,-40.2714 -59.15022,-88.6739 -74.65534,-138.5 -13.09253,-42.0731 -18.67545,-78.846 -18.67408,-123 0.002,-47.4131 6.757,-89.3389 21.36846,-132.6157 7.10362,-21.0398 11.3021,-31.2689 20.58325,-50.1486 20.80905,-42.3299 45.31412,-76.5467 79.00232,-110.3121 69.0824,-69.24057 157.31553,-110.53887 256.54078,-120.07617 16.57239,-1.5929 57.4041,-1.5733 73,0.035 54.19792,5.5891 101.36286,19.0188 147.60882,42.0299 40.91249,20.3572 74.04298,44.2796 107.45033,77.58607 20.86159,20.7986 35.3603,38.2148 50.36664,60.5016 39.59773,58.8089 61.87984,120.279 69.59754,192 1.39723,12.9846 2.18625,34.6023 1.32308,36.25 -0.8686,1.658 -11.74204,1.75 -206.91298,1.75 -186.11196,0 -206.05425,0.1513 -206.5976,1.5672 -0.33077,0.862 -0.0692,2.0995 0.58129,2.75 0.8993,0.8994 50.4710402,1.3052 206.88279,1.6935 113.13505,0.2809 205.88301,0.6184 206.10658,0.75 0.82276,0.4844 -0.90376,33.1126 -2.3702,44.7924 -9.87814,78.6771 -39.64298,149.0336 -89.24112,210.9432 -53.20513,66.4119 -128.64985,115.9115 -211.1447,138.5329 -38.35537,10.5176 -72.68064,15.0376 -112.65047,14.834 -12.1,-0.062 -27.85,-0.6793 -35,-1.3727 z m 830.14626,-16.0253 c -67.4128,-6.1615 -130.5398,-28.1976 -185.5,-64.7536 -36.6911,-24.4046 -72.2103,-57.8645 -98.0717,-92.386 -75.9682,-101.4072 -99.3009,-232.3069 -62.9797,-353.3256 28.3902,-94.5932 90.5931,-174.8979 175.0612,-226.00587 80.6352,-48.7889 176.0225,-67.3575 268.9902,-52.3631 156.30768,25.2102 282.92185,140.75407 322.02475,293.86897 6.4842,25.3902 10.1802,49.3532 12.0098,77.8658 0.7566,11.7918 0.7231,16.2212 -0.1307,17.25 -0.9713,1.1704 -31.6207,1.3842 -198.40387,1.3842 -204.96038,0 -201.01908,-0.076 -198.60558,3.8291 0.429,0.6941 4.1157,2.1083 8.1928,3.1425 4.077,1.0342 24.2878,6.1589 44.9128,11.3881 20.625,5.2293 53.69998,13.6174 73.49998,18.6403 19.8,5.0229 52.7625,13.3777 73.25,18.5663 20.4875,5.1885 54.01247,13.6803 74.49997,18.8707 20.4875,5.1903 52.55,13.2809 71.25,17.979 18.7,4.6982 35.0125,8.9919 36.25,9.5416 1.2375,0.5497 2.25,1.7591 2.25,2.6874 0,0.9284 -2.0687,8.2505 -4.5972,16.2715 -27.6116,87.5914 -83.2606,161.7112 -159.81297,212.8576 -73.4617,49.0813 -166.29168,72.7158 -254.08978,64.6911 z M -85.07051,882.45023 c 0,-3.85921 -103.60199,-17.22595 -150.74713,-39.93684 -76.56985,-36.88545 -137.08926,-93.28613 -180.28443,-168.01492 -15.96635,-27.62222 -29.10633,-59.37586 -38.46803,-92.96061 -34.72602,-124.57829 -9.37401,-256.94293 69.04714,-360.5 25.02949,-33.05207 60.14398,-66.47876 94.47229,-89.93145 43.1137,-29.45475 90.12799,-50.163108 140.48016,-61.877217 C -103.71577,58.328739 -55.35596,55.720158 -8.0705098,61.542589 71.65417,71.35938 143.64575,102.4567 206.92949,154.41351 c 12.00428,9.85567 44.03627,42.15091 54.17909,54.62435 49.22688,60.53822 80.63443,133.11121 90.23294,208.5 1.9546,15.35185 3.84788,40.82293 3.41919,46 l -0.33122,4 -205.5,0.5 -205.5,0.5 -0.31492,2.21465 c -0.233234,1.6402 0.28555,2.3384 2,2.69169 1.27321,0.26236 14.23992,0.73012 28.81492,1.03945 24.7859102,0.52605 39.99952,0.92929 134,3.55177 20.075,0.56007 52.925,1.47271 73,2.02811 20.075,0.55539 52.025,1.44524 71,1.97745 18.975,0.53221 47.325,1.21589 63,1.51927 33.58759,0.65008 38.62056,1.04643 39.40995,3.10354 0.52891,1.37831 -1.4585,26.75973 -2.92645,37.37407 -7.5481,54.57829 -24.26777,104.63451 -50.26968,150.5 -6.95942,12.27591 -24.05888,37.86233 -32.7468,49 -57.41473,73.60402 -135.82717,124.64759 -226.46702,147.42159 -32.9713398,8.28432 -56.18585,11.1518 -93.5,11.54921 -15.95,0.16987 -33.5,2.42483 -33.5,-0.0584 z m 638.20496,-322.7754 c -3.6941,-8.618 -9.8558,-29.37117 -12.3621,-41.63697 -23.6539,-115.75975 42.1483,-230.69475 153.8034,-268.64433 24.7047,-8.39668 40.8919,-11.21975 69,-12.03368 22.9661,-0.66502 39.8181,0.93469 60,5.69561 30.8668,7.28149 64.15888,23.12183 89.98928,42.81678 9.1408,6.9696 29.7928,27.48182 38.7014,38.43945 21.6765,26.6622 37.6103,59.61244 45.7478,94.60402 3.02767,13.01909 6.44927,39.34915 5.88257,45.26805 l -0.3211,3.3541 -117.49997,0.5 -117.49998,0.5 -15,6.87946 c -8.25,3.7837 -26.925,12.27359 -41.5,18.8664 -14.575,6.59282 -36.175,16.37876 -48,21.74654 -83.7621,38.02254 -106.1212,48.0076 -107.5011,48.0076 -0.901,0 -2.3669,-1.85921 -3.4402,-4.36303 z"
         id="path320"
         sodipodi:nodetypes="scsscsssssssssssssssssssssssssssssssssssssssssscssssssssssscccsssssssssssssscscssssssscccsssss" /></g></g></svg>
