<?xml version="1.0" encoding="UTF-8" standalone="no"?>
<!-- Created with Inkscape (http://www.inkscape.org/) -->

<svg
   width="500"
   height="500"
   id="svg2"
   version="1.1"
   inkscape:version="1.2.2 (b0a8486541, 2022-12-01)"
   inkscape:export-filename="/home/brian/src/cytoflow/cytoflowgui/view_plugins/images/bar_chart.png"
   inkscape:export-xdpi="5.8299999"
   inkscape:export-ydpi="5.8299999"
   sodipodi:docname="matrix.svg"
   xml:space="preserve"
   xmlns:inkscape="http://www.inkscape.org/namespaces/inkscape"
   xmlns:sodipodi="http://sodipodi.sourceforge.net/DTD/sodipodi-0.dtd"
   xmlns="http://www.w3.org/2000/svg"
   xmlns:svg="http://www.w3.org/2000/svg"
   xmlns:rdf="http://www.w3.org/1999/02/22-rdf-syntax-ns#"
   xmlns:cc="http://creativecommons.org/ns#"
   xmlns:dc="http://purl.org/dc/elements/1.1/"><defs
     id="defs4" /><sodipodi:namedview
     id="base"
     pagecolor="#ffffff"
     bordercolor="#666666"
     borderopacity="1.0"
     inkscape:pageopacity="0.0"
     inkscape:pageshadow="2"
     inkscape:zoom="0.98994949"
     inkscape:cx="102.53048"
     inkscape:cy="91.418805"
     inkscape:document-units="px"
     inkscape:current-layer="layer1"
     showgrid="false"
     inkscape:window-width="2494"
     inkscape:window-height="1371"
     inkscape:window-x="66"
     inkscape:window-y="32"
     inkscape:window-maximized="1"
     showguides="true"
     inkscape:guide-bbox="true"
     inkscape:showpageshadow="2"
     inkscape:pagecheckerboard="0"
     inkscape:deskcolor="#d1d1d1" /><metadata
     id="metadata7"><rdf:RDF><cc:Work
         rdf:about=""><dc:format>image/svg+xml</dc:format><dc:type
           rdf:resource="http://purl.org/dc/dcmitype/StillImage" /><dc:title /></cc:Work></rdf:RDF></metadata><g
     inkscape:label="Layer 1"
     inkscape:groupmode="layer"
     id="layer1"
     transform="translate(0,-552.36218)"><g
       id="g180"
       transform="matrix(0.44373946,0,0,0.44373946,222.32361,512.65433)"><path
         style="fill:#fce64d"
         d="m -252.35715,591.43089 c -2.2,-0.48511 -6.16323,-0.90795 -8.80718,-0.93965 -2.64395,-0.0317 -6.69395,-0.47058 -9,-0.97529 -2.30605,-0.50471 -6.89282,-1.43828 -10.19282,-2.07459 -19.80021,-3.81793 -41.19105,-11.33385 -60.25515,-21.17137 -10.44216,-5.3884 -35.13487,-21.21051 -39.7607,-25.47709 -1.10872,-1.02261 -4.54905,-3.99129 -7.64518,-6.59706 -17.66781,-14.86964 -38.27877,-39.93238 -49.43451,-60.11193 -5.13645,-9.29131 -11.06126,-21.62774 -15.44079,-32.1503 -2.54349,-6.11117 -8.52307,-26.46438 -9.98887,-34 -0.6419,-3.3 -1.56072,-8.025 -2.04181,-10.5 -4.42136,-22.74607 -4.3371,-57.22158 0.19796,-81 0.57694,-3.025 1.47659,-7.75 1.99923,-10.5 1.19391,-6.28207 7.44635,-27.26449 9.83349,-33 4.37953,-10.52256 10.30434,-22.85899 15.44079,-32.1503 11.22073,-20.2971 32.93938,-46.72509 49.59554,-60.34953 3.025,-2.47439 6.625,-5.52608 8,-6.78152 5.08919,-4.64669 27.85787,-19.21779 39,-24.95854 11.35048,-5.8481 28.23831,-12.82453 37,-15.28485 2.475,-0.69499 6.525,-1.9113 9,-2.70292 2.475,-0.79161 6.975,-1.89338 10,-2.44837 3.025,-0.55498 7.525,-1.42937 10,-1.94309 19.55973,-4.05987 60.61311,-4.53887 77.5,-0.90426 2.2,0.47351 6.7,1.38403 10,2.02338 9.37879,1.81706 14.51502,3.07316 21,5.13568 3.3,1.04954 7.575,2.37812 9.5,2.95239 1.925,0.57427 4.5125,1.46438 5.75,1.97803 1.2375,0.51364 3.2625,1.33802 4.5,1.83194 13.58998,5.42415 30.58775,14.33754 42.75,22.41748 16.41696,10.90654 38.27982,30.36298 48.51402,43.17412 2.19229,2.74431 4.82217,5.89431 5.84419,7 1.02201,1.1057 5.47097,7.37633 9.88657,13.93473 21.51065,31.94939 32.06402,59.47447 38.945,101.57563 1.59164,9.73846 1.58095,50.10134 -0.0159,60 -2.04928,12.70323 -4.56205,24.95366 -6.15351,30 -0.43363,1.375 -1.35549,4.525 -2.04857,7 -2.03224,7.25713 -3.64828,12.1383 -5.95935,18 -4.12534,10.46329 -5.93471,14.28882 -13.5155,28.57563 -3.49502,6.58674 -18.12336,28.6789 -21.13874,31.92437 -1.02202,1.1 -3.88321,4.46579 -6.35821,7.47954 -13.29557,16.18968 -39.10225,38.07336 -57,48.33514 -16.56692,9.49875 -35.90331,18.16138 -49.5,22.17582 -3.3,0.97433 -8.025,2.42512 -10.5,3.22398 -2.475,0.79886 -6.975,1.90656 -10,2.46154 -3.025,0.55499 -7.525,1.43771 -10,1.9616 -12.75831,2.7006 -51.72756,4.57352 -59.5,2.85966 z"
         id="path188" /><path
         style="fill:#2b9d88"
         d="m -251.35715,1182.8561 c -9.51212,-0.9305 -22.26795,-2.6473 -25.5,-3.432 -1.925,-0.4673 -6.2,-1.3875 -9.5,-2.0448 -3.3,-0.6574 -8.7,-2.0489 -12,-3.0924 -3.3,-1.0435 -7.575,-2.3706 -9.5,-2.9492 -5.28968,-1.5898 -24.09276,-9.0528 -27.5,-10.9148 -1.65,-0.9017 -5.925,-3.1645 -9.5,-5.0283 -7.9855,-4.1633 -28.72175,-17.8127 -35.49707,-23.3656 -14.77299,-12.1074 -20.08977,-17.2682 -31.00502,-30.0954 -12.80225,-15.0447 -24.16017,-32.2162 -32.41047,-49 -3.51468,-7.15 -6.83239,-14.125 -7.37268,-15.5 -0.54029,-1.375 -1.34261,-3.4 -1.78292,-4.5 -0.9435,-2.357 -3.80011,-11.196 -6.7869,-21 -8.73118,-28.65972 -10.86598,-73.36246 -4.99047,-104.49999 1.73903,-9.21603 3.05591,-15.37487 3.84877,-18 0.41528,-1.375 1.76433,-5.875 2.99787,-10 3.26188,-10.90776 9.52957,-26.9887 12.86205,-33 0.45736,-0.825 2.88578,-5.36673 5.3965,-10.09274 12.97749,-24.42797 36.00188,-52.16961 57.74034,-69.57023 9.6087,-7.69131 26.26484,-18.79742 36.5,-24.33774 4.4,-2.38174 8.675,-4.69881 9.5,-5.14906 3.32629,-1.81532 15.11465,-6.85023 16.03861,-6.85023 0.54369,0 1.76992,-0.42875 2.72496,-0.95277 3.53016,-1.93697 25.24975,-8.42163 33.73643,-10.07243 3.3,-0.64191 8.025,-1.55844 10.5,-2.03674 21.24397,-4.10545 56.91195,-4.01331 79,0.20409 14.46553,2.76199 18.93321,3.85679 33,8.08657 17.57918,5.28593 39.42573,15.95794 58,28.33291 27.41771,18.26686 56.09359,48.54888 71.08833,75.07001 4.00977,7.09204 12.4073,23.81088 14.24886,28.36836 1.00008,2.475 2.23334,5.5125 2.74057,6.75 2.32531,5.67309 2.85202,7.20826 4.88905,14.25 1.19328,4.125 2.54074,8.625 2.99436,10 0.45362,1.375 1.35948,5.2 2.01302,8.5 0.65355,3.3 1.58274,7.8 2.06487,10 3.46609,15.81586 4.6089,54.57148 2.09362,71 -6.23179,40.70279 -16.81495,68.92179 -37.76716,100.70259 -13.3494,20.2486 -28.81453,37.3139 -46.86552,51.7145 -21.62113,17.2487 -37.53933,26.6038 -63.5,37.3187 -4.41675,1.8229 -6.35513,2.4828 -14,4.766 -4.125,1.2319 -8.625,2.6174 -10,3.0787 -3.06067,1.0269 -15.57504,3.5762 -27,5.5001 -8.21662,1.3837 -43.34254,2.64 -51.5,1.8419 z m 591,0 c -9.3145,-0.9086 -22.24986,-2.6407 -25.5,-3.4145 -1.925,-0.4584 -5.975,-1.3602 -9,-2.004 -5.24162,-1.1156 -14.84113,-3.7867 -23.5,-6.5389 -14.40432,-4.5784 -39.1574,-16.8308 -53.70664,-26.584 -31.10687,-20.8527 -59.63365,-51.7353 -75.52205,-81.7587 -1.92718,-3.6417 -4.494,-8.4213 -5.70404,-10.6213 -2.30156,-4.1845 -8.8222,-20.1058 -11.05425,-26.9908 -4.41953,-13.6327 -5.36753,-17.1727 -8.57197,-32.00919 -2.87322,-13.30295 -3.40696,-20.49772 -3.33829,-45 0.0576,-20.56783 0.4421,-27.88037 1.84009,-35 0.97196,-4.95 2.15809,-11.025 2.63583,-13.5 0.47773,-2.475 1.3051,-6.075 1.83858,-8 0.53349,-1.925 1.40383,-5.075 1.9341,-7 1.98224,-7.19593 4.26935,-14.57196 5.19372,-16.75 0.52521,-1.2375 1.35904,-3.2625 1.85296,-4.5 11.18325,-28.01913 27.66277,-53.80084 49.60196,-77.60074 10.30141,-11.17509 35.74016,-31.08424 50.17135,-39.26563 7.1715,-4.0657 23.81563,-12.43081 28.32865,-14.23759 2.475,-0.99086 5.4,-2.18703 6.5,-2.65817 2.51775,-1.07836 12.58323,-4.32646 18.5,-5.9699 2.475,-0.68746 5.625,-1.59957 7,-2.02691 2.31447,-0.71933 7.75458,-1.87979 19,-4.053 21.26677,-4.10986 57.61649,-4.02391 80,0.18917 18.44227,3.47125 33.89143,7.98652 50.47339,14.75169 14.43572,5.88954 46.41391,24.68991 54.02661,31.76287 1.1,1.02202 4.475,3.88119 7.5,6.35371 13.474,11.01319 31.6745,31.48485 42.8196,48.16296 12.2041,18.2627 23.2796,41.75035 29.1611,61.84154 4.1153,14.05779 3.7018,12.30255 7.0674,30 5.456,28.69005 3.2306,71.17104 -5.2646,100.49999 -3.0821,10.6405 -5.7723,18.8075 -6.8307,20.7364 -0.5241,0.9551 -0.9528,2.1813 -0.9528,2.725 0,0.9397 -5.1003,12.8587 -6.8632,16.0386 -0.4573,0.825 -2.9548,5.4967 -5.55,10.3815 -17.0144,32.0257 -44.6874,62.2799 -76.38016,83.5046 -14.57077,9.7581 -39.31644,22.004 -53.70664,26.5779 -15.91976,5.0601 -28.99388,8.1694 -44.5,10.5829 -6.78992,1.0569 -42.57041,2.0504 -49.5,1.3745 z m 47,-2.4102 c 15.27105,-2.0995 32.46561,-6.0232 46.00916,-10.499 6.33514,-2.0936 22.69279,-8.7145 25.99084,-10.52 1.65,-0.9033 5.925,-3.1664 9.5,-5.0291 15.52925,-8.0914 38.3574,-24.5907 52.3722,-37.8526 7.5982,-7.1901 23.8883,-27.0749 31.6155,-38.5922 3.8568,-5.7484 7.0123,-10.6369 7.0123,-10.8633 0,-0.2264 2.0288,-4.0794 4.5085,-8.5623 7.861,-14.2117 14.6676,-31.6975 20.4723,-52.5927 1.6834,-6.05989 4.9092,-25.28979 5.955,-35.49999 4.3947,-42.90355 -5.1539,-91.3037 -25.6469,-130 -23.8126,-44.96462 -59.2104,-79.26181 -104.69817,-101.4428 -14.91298,-7.27195 -18.96574,-8.86812 -35.59073,-14.01726 -40.52127,-12.55036 -92.03673,-12.56297 -133,-0.0325 -15.88656,4.85961 -20.48688,6.675 -35.59073,14.04492 -59.085,28.8305 -102.45458,79.58411 -121.296,141.94768 -14.51043,48.02835 -13.32017,96.89133 3.56862,146.49995 9.7959,28.7742 29.49587,60.4667 52.73224,84.8333 11.07492,11.6136 36.52108,31.1847 50.66289,38.9658 32.93414,18.1209 60.34387,26.4721 100.42298,30.597 6.75487,0.6952 36.53673,-0.2214 45,-1.3849 z"
         id="path186" /><path
         style="fill:#2c808c"
         d="m 341.64285,1181.8297 c -55.32765,-5.6942 -95.66471,-22.2051 -135.5,-55.4632 -16.94137,-14.1442 -30.57651,-29.5763 -43.24366,-48.9427 -17.43358,-26.6536 -27.94642,-52.2228 -34.12154,-82.99019 -6.07217,-30.25438 -6.08074,-60.51818 -0.0258,-91 4.62623,-23.28931 10.73353,-40.78118 21.59701,-61.85576 23.37142,-45.33933 58.92514,-80.01055 105.20323,-102.59192 15.10385,-7.36992 19.70417,-9.18531 35.59073,-14.04492 40.96327,-12.53043 92.47873,-12.51782 133,0.0325 16.62499,5.14914 20.67775,6.74531 35.59073,14.01726 45.48777,22.18099 80.88557,56.47818 104.69817,101.4428 20.493,38.6963 30.0416,87.09645 25.6469,130 -1.0458,10.2102 -4.2716,29.4401 -5.955,35.50003 -5.8047,20.8952 -12.6113,38.3809 -20.4723,52.5926 -2.4797,4.4829 -4.5085,8.336 -4.5085,8.5624 0,0.2264 -3.1555,5.1149 -7.0123,10.8632 -7.7272,11.5174 -24.0173,31.4022 -31.6155,38.5923 -14.0148,13.2619 -36.84295,29.7612 -52.3722,37.8526 -3.575,1.8627 -7.85,4.1258 -9.5,5.0291 -3.29805,1.8055 -19.6557,8.4264 -25.99084,10.52 -13.54355,4.4758 -30.73811,8.3995 -46.00916,10.499 -8.46327,1.1635 -38.24513,2.0801 -45,1.3849 z m -3.5,-590.27773 c -1.925,-0.3401 6.80304,-0.61836 19.39564,-0.61836 12.5926,0 21.1426,0.31157 19,0.69237 -4.73714,0.84193 -33.52537,0.78644 -38.39564,-0.074 z m -17.5,-2.15318 c -1.30612,-0.584 -0.0918,-0.68608 3.5,-0.29425 3.025,0.33001 5.6875,0.76405 5.91667,0.96454 0.88548,0.77469 -7.52367,0.17612 -9.41667,-0.67029 z m 68,-0.0225 c 2.2,-0.45505 4.9,-0.82168 6,-0.81472 l 2,0.0127 -2,0.85943 c -1.1,0.47269 -3.8,0.83931 -6,0.81472 l -4,-0.0447 4,-0.82737 z m -78,-1.94268 -2,-0.85943 2,0.0294 c 1.1,0.0162 3.125,0.38968 4.5,0.83003 l 2.5,0.80064 -2.5,0.0294 c -1.375,0.0162 -3.4,-0.35734 -4.5,-0.83003 z m 89.5,0 c 1.375,-0.44035 3.4,-0.81387 4.5,-0.83003 l 2,-0.0294 -2,0.85943 c -1.1,0.47269 -3.125,0.8462 -4.5,0.83003 l -2.5,-0.0294 z m -99.5,-2 -2,-0.85943 2,0.0294 c 1.1,0.0162 3.125,0.38968 4.5,0.83003 l 2.5,0.80064 -2.5,0.0294 c -1.375,0.0162 -3.4,-0.35734 -4.5,-0.83003 z m 109.5,0 c 1.375,-0.44035 3.4,-0.81387 4.5,-0.83003 l 2,-0.0294 -2,0.85943 c -1.1,0.47269 -3.125,0.8462 -4.5,0.83003 l -2.5,-0.0294 z m -116,-2 c -1.33333,-0.86167 -1.33333,-0.96937 0,-0.96937 0.825,0 2.175,0.43621 3,0.96937 1.33333,0.86167 1.33333,0.96937 0,0.96937 -0.825,0 -2.175,-0.43621 -3,-0.96937 z m 124,0 c 0.825,-0.53316 2.175,-0.96937 3,-0.96937 1.33333,0 1.33333,0.1077 0,0.96937 -0.825,0.53316 -2.175,0.96937 -3,0.96937 -1.33333,0 -1.33333,-0.1077 0,-0.96937 z m -131,-2 c -1.33333,-0.86167 -1.33333,-0.96937 0,-0.96937 0.825,0 2.175,0.43621 3,0.96937 1.33333,0.86167 1.33333,0.96937 0,0.96937 -0.825,0 -2.175,-0.43621 -3,-0.96937 z m 137.5,0 c 1.1,-0.47269 2.675,-0.88417 3.5,-0.9144 1.33333,-0.0489 1.33333,0.0527 0,0.9144 -0.825,0.53316 -2.4,0.94464 -3.5,0.9144 l -2,-0.055 2,-0.85943 z m -146.3125,-2.68311 c -2.37188,-0.83887 -4.1358,-1.70192 -3.91983,-1.91789 0.21596,-0.21596 2.83159,0.47303 5.8125,1.5311 2.9809,1.05807 4.74483,1.92112 3.91983,1.91789 -0.825,-0.003 -3.44062,-0.69223 -5.8125,-1.5311 z m 156.73233,-0.38679 c 2.98091,-1.05807 5.5928,-1.7508 5.8042,-1.5394 0.46649,0.46649 -8.64198,3.63918 -10.15217,3.53623 -0.58952,-0.0402 1.36707,-0.93876 4.34797,-1.99683 z m -164.91983,-2.9301 c -0.825,-0.53316 -1.05,-0.96937 -0.5,-0.96937 0.55,0 1.675,0.43621 2.5,0.96937 0.825,0.53316 1.05,0.96937 0.5,0.96937 -0.55,0 -1.675,-0.43621 -2.5,-0.96937 z m 173,0 c 0.825,-0.53316 1.95,-0.96937 2.5,-0.96937 0.55,0 0.325,0.43621 -0.5,0.96937 -0.825,0.53316 -1.95,0.96937 -2.5,0.96937 -0.55,0 -0.325,-0.43621 0.5,-0.96937 z M 263.27652,572.8017 c -1.85148,-0.80782 -3.13145,-1.70365 -2.84437,-1.99073 0.28709,-0.28708 2.25193,0.39068 4.36634,1.50614 4.43242,2.33834 3.44634,2.65231 -1.52197,0.48459 z m 187.21069,-0.48459 c 2.11441,-1.11546 4.07554,-1.79693 4.35809,-1.51438 0.48813,0.48813 -6.25215,3.67977 -7.57457,3.58668 -0.34534,-0.0243 1.10208,-0.95684 3.21648,-2.0723 z m -195.68277,-3.5018 c -1.56112,-0.84602 -2.62437,-1.75225 -2.36278,-2.01385 0.2616,-0.26159 1.98888,0.44694 3.83841,1.57452 3.89437,2.37424 2.73287,2.72005 -1.47563,0.43933 z m 201.42174,1.24548 c 1.02905,-0.92077 6.91667,-3.62641 6.91667,-3.17854 0,0.57598 -5.54382,3.55136 -6.61701,3.55136 -0.39398,0 -0.52882,-0.16777 -0.29966,-0.37282 z m -213.58333,-7.7784 c -3.85,-2.17433 -7.45,-4.41418 -8,-4.97745 -1.10964,-1.1364 14.43949,6.93844 15.95,8.28303 2.10006,1.86937 -1.26269,0.47115 -7.95,-3.30558 z m 221.5,3.66562 c 0,-0.26709 2.5875,-1.79386 5.75,-3.39283 14.14181,-7.15015 36.5011,-23.51542 50.6112,-37.04342 12.8865,-12.35498 32.8542,-37.87265 39.0635,-49.92108 0.9475,-1.83861 1.9505,-3.11516 2.2289,-2.83676 0.5428,0.54274 -0.076,1.60684 -8.5381,14.67969 -4.9443,7.6385 -8.05,11.7799 -16.1155,21.49 -15.9556,19.20896 -43.9479,42.14828 -66.31159,54.3414 -5.92793,3.23203 -6.68841,3.53709 -6.68841,2.683 z m -239.5,-15.07482 c -4.4,-2.99207 -8.675,-6.00403 -9.5,-6.69324 -0.825,-0.68922 -4.875,-4.02561 -9,-7.41422 -9.26712,-7.61276 -23.72012,-22.36396 -31.67851,-32.33212 -6.59847,-8.26482 -20.69427,-28.96055 -20.11767,-29.53716 0.20044,-0.20044 3.62141,4.562 7.60215,10.58321 17.51937,26.49953 38.84205,48.28077 63.44403,64.80843 4.2625,2.86356 7.75,5.41775 7.75,5.67599 0,0.6985 0.11408,0.76683 -8.5,-5.09089 z M 149.7619,466.81456 c -1.97117,-3.71216 -3.41252,-6.92082 -3.20299,-7.13034 0.20952,-0.20953 1.99372,2.65627 3.96489,6.36844 1.97117,3.71216 3.41252,6.92082 3.20299,7.13034 -0.20952,0.20953 -1.99372,-2.65627 -3.96489,-6.36844 z m 415.93255,-2.48343 c 1.9672,-3.90637 3.765,-6.91427 3.995,-6.68422 0.4653,0.46529 -6.4203,13.7867 -7.1261,13.7867 -0.2451,0 1.1639,-3.19612 3.1311,-7.10248 z m -421.99302,-9.41156 c -2.15886,-5.16689 -1.87359,-5.75062 0.55792,-1.1416 1.11546,2.11441 1.79693,4.07554 1.51438,4.35809 -0.28254,0.28255 -1.21508,-1.16487 -2.0723,-3.21649 z m 426.47202,1.01404 c 0,-0.55 0.4362,-1.675 0.9694,-2.5 0.5332,-0.825 0.9694,-1.05 0.9694,-0.5 0,0.55 -0.4362,1.675 -0.9694,2.5 -0.5332,0.825 -0.9694,1.05 -0.9694,0.5 z m 1.9733,-4.55 c 0.012,-1.34757 7.9473,-20.20522 7.9745,-18.95 0.038,1.74149 -5.8766,17.04212 -7.1316,18.45 -0.4657,0.5225 -0.845,0.7475 -0.8429,0.5 z m -431.33723,-2.61667 c -0.36667,-0.36666 -0.65299,-1.37916 -0.63626,-2.25 0.025,-1.3003 0.22011,-1.2571 1.09166,0.24167 1.07678,1.85169 0.76461,3.22835 -0.4554,2.00833 z m -2,-5 c -0.36667,-0.36666 -0.65299,-1.37916 -0.63626,-2.25 0.025,-1.3003 0.22011,-1.2571 1.09166,0.24167 1.07678,1.85169 0.76461,3.22835 -0.4554,2.00833 z m -2,-5 c -0.36667,-0.36666 -0.65299,-1.37916 -0.63626,-2.25 0.025,-1.3003 0.22011,-1.2571 1.09166,0.24167 1.07678,1.85169 0.76461,3.22835 -0.4554,2.00833 z m -2.09524,-6.90476 c -0.36782,-1.46551 -0.47591,-2.85742 -0.24019,-3.09314 0.23571,-0.23571 0.72951,0.77049 1.09733,2.236 0.36782,1.46551 0.47591,2.85742 0.24019,3.09314 -0.23571,0.23571 -0.72951,-0.77049 -1.09733,-2.236 z m 445.45917,-2.42857 c 0,-0.825 0.4362,-2.175 0.9694,-3 0.8617,-1.33333 0.9694,-1.33333 0.9694,0 0,0.825 -0.4362,2.175 -0.9694,3 -0.8617,1.33333 -0.9694,1.33333 -0.9694,0 z m -447.34708,-3.38235 c -0.37594,-0.97967 -0.655,-2.53192 -0.62013,-3.44944 0.042,-1.10488 0.38931,-0.85293 1.02856,0.74611 0.53084,1.32787 0.8099,2.88012 0.62013,3.44944 -0.18977,0.56931 -0.65262,0.23357 -1.02856,-0.74611 z m 449.45708,-2.61765 c 0,-0.825 0.3867,-2.4 0.8594,-3.5 0.5417,-1.26064 0.8594,-1.44548 0.8594,-0.5 0,0.825 -0.3867,2.4 -0.8594,3.5 -0.5417,1.26064 -0.8594,1.44548 -0.8594,0.5 z m -451.6406,-5 c -0.37544,-1.1829 -0.45761,-2.37572 -0.18261,-2.65072 0.275,-0.275 0.80717,0.46782 1.18261,1.65072 0.37544,1.1829 0.45761,2.37572 0.18261,2.65072 -0.275,0.275 -0.80717,-0.46782 -1.18261,-1.65072 z m 453.615,-2 c 0.046,-0.825 0.4446,-2.625 0.885,-4 l 0.8006,-2.5 0.084,2.5 c 0.046,1.375 -0.3518,3.175 -0.885,4 -0.8617,1.33333 -0.96,1.33333 -0.885,0 z m -455.615,-6 c -0.38421,-2.27412 -0.47356,-4.35977 -0.19856,-4.63477 0.275,-0.275 0.81435,1.36065 1.19856,3.63477 0.38421,2.27412 0.47356,4.35977 0.19856,4.63477 -0.275,0.275 -0.81435,-1.36065 -1.19856,-3.63477 z m 457.6994,-3 c 0,-1.375 0.3602,-3.625 0.8006,-5 l 0.8006,-2.5 v 2.5 c 0,1.375 -0.3602,3.625 -0.8006,5 l -0.8006,2.5 z m -459.6994,-7 c -0.38421,-2.27412 -0.47356,-4.35977 -0.19856,-4.63477 0.275,-0.275 0.81435,1.36065 1.19856,3.63477 0.38421,2.27412 0.47356,4.35977 0.19856,4.63477 -0.275,0.275 -0.81435,-1.36065 -1.19856,-3.63477 z m 461.67,-3.5 c 0.016,-1.1 0.3896,-3.125 0.83,-4.5 l 0.8006,-2.5 0.029,2.5 c 0.016,1.375 -0.3573,3.4 -0.83,4.5 l -0.8594,2 0.029,-2 z m -463.68626,-7.78385 c -0.37467,-2.99873 -0.49692,-6.29912 -0.27168,-7.33419 0.22524,-1.03508 0.75928,1.19093 1.18675,4.94669 0.42747,3.75576 0.54973,7.05614 0.27168,7.33419 -0.27805,0.27805 -0.81208,-1.94796 -1.18675,-4.94669 z m 465.70536,-7.21615 c -0.023,-2.2 0.3195,-6.025 0.7599,-8.5 l 0.8007,-4.5 0.067,4.5 c 0.037,2.475 -0.3048,6.3 -0.7598,8.5 l -0.8274,4 -0.041,-4 z m -467.54112,-11.75 c -0.82943,-6.90537 -0.67144,-20.97449 0.30601,-27.25 0.53986,-3.46601 0.81978,0.75245 0.9124,13.75 0.0735,10.3125 -0.0287,18.75 -0.2271,18.75 -0.19839,0 -0.64448,-2.3625 -0.99131,-5.25 z m 467.90192,-32.04497 c -0.4363,-4.28723 -0.5531,-8.03512 -0.2596,-8.32865 0.7176,-0.71763 2.0253,11.83489 1.4824,14.22955 -0.2362,1.04174 -0.7864,-1.61366 -1.2228,-5.9009 z m -466.30642,-7.70503 c -0.004,-2.475 0.33667,-5.85 0.75652,-7.5 l 0.76337,-3 0.0442,3 c 0.0243,1.65 -0.31613,5.025 -0.75652,7.5 l -0.80071,4.5 -0.007,-4.5 z m 464.25652,-10 c -0.3842,-2.27412 -0.4736,-4.35977 -0.1986,-4.63477 0.275,-0.275 0.8144,1.36065 1.1986,3.63477 0.3842,2.27412 0.4736,4.35977 0.1986,4.63477 -0.275,0.275 -0.8144,-1.36065 -1.1986,-3.63477 z m -462.33003,-3.5 c 0.0162,-1.1 0.38968,-3.125 0.83003,-4.5 l 0.80064,-2.5 0.0294,2.5 c 0.0162,1.375 -0.35734,3.4 -0.83003,4.5 l -0.85943,2 0.0294,-2 z m 460.33003,-6.5 c -0.3842,-2.27412 -0.4736,-4.35977 -0.1986,-4.63477 0.275,-0.275 0.8144,1.36065 1.1986,3.63477 0.3842,2.27412 0.4736,4.35977 0.1986,4.63477 -0.275,0.275 -0.8144,-1.36065 -1.1986,-3.63477 z m -458.33003,-3.5 c 0.0162,-1.1 0.38968,-3.125 0.83003,-4.5 l 0.80064,-2.5 0.0294,2.5 c 0.0162,1.375 -0.35734,3.4 -0.83003,4.5 l -0.85943,2 0.0294,-2 z m 456.95253,-3.5 c -0.082,-0.825 -0.3996,-2.625 -0.705,-4 -0.4798,-2.16091 -0.4012,-2.25874 0.5795,-0.72124 0.624,0.97831 0.9412,2.77831 0.705,4 -0.2363,1.22168 -0.4971,1.54624 -0.5795,0.72124 z m -455.0369,-5 c -0.0302,-0.825 0.38124,-2.175 0.9144,-3 1.18132,-1.82797 1.18132,-0.24909 0,2.5 -0.56668,1.31874 -0.87815,1.48906 -0.9144,0.5 z m 452.4858,-4.57143 c -0.3678,-1.46551 -0.4759,-2.85742 -0.2402,-3.09314 0.2358,-0.23571 0.7296,0.77049 1.0974,2.236 0.3678,1.46551 0.4759,2.85742 0.2402,3.09314 -0.2358,0.23571 -0.7296,-0.77049 -1.0974,-2.236 z m -450.54077,-2.42857 c 0,-0.825 0.43621,-2.175 0.96937,-3 0.86167,-1.33333 0.96937,-1.33333 0.96937,0 0,0.825 -0.43621,2.175 -0.96937,3 -0.86167,1.33333 -0.96937,1.33333 -0.96937,0 z m 448.46937,-4 c -0.3754,-1.1829 -0.4576,-2.37572 -0.1826,-2.65072 0.275,-0.275 0.8072,0.46782 1.1826,1.65072 0.3754,1.1829 0.4576,2.37572 0.1826,2.65072 -0.275,0.275 -0.8072,-0.46782 -1.1826,-1.65072 z m -446.35943,-2 c 0,-0.825 0.38674,-2.4 0.85943,-3.5 0.54172,-1.26064 0.85943,-1.44548 0.85943,-0.5 0,0.825 -0.38674,2.4 -0.85943,3.5 -0.54172,1.26064 -0.85943,1.44548 -0.85943,0.5 z m 444.92923,-3 c -0.048,-0.825 -2.0991,-6.42246 -4.5569,-12.43879 -2.4577,-6.01633 -4.2662,-11.14124 -4.0188,-11.38869 0.2475,-0.24744 0.8637,0.62501 1.3693,1.93879 0.5056,1.31378 2.5851,6.53793 4.6211,11.60922 2.036,5.0713 3.4704,9.7963 3.1876,10.5 -0.3665,0.91203 -0.5395,0.84869 -0.6023,-0.22053 z m -443.05449,-4.19098 c -0.008,-0.93004 0.43469,-1.9691 0.98469,-2.30902 1.2656,-0.78218 1.2656,0.54163 0,2.5 -0.8354,1.29269 -0.97149,1.26629 -0.98469,-0.19098 z m 2,-5 c -0.008,-0.93004 0.43469,-1.9691 0.98469,-2.30902 1.2656,-0.78218 1.2656,0.54163 0,2.5 -0.8354,1.29269 -0.97149,1.26629 -0.98469,-0.19098 z m 2,-5 c -0.008,-0.93004 0.43469,-1.9691 0.98469,-2.30902 1.2656,-0.78218 1.2656,0.54163 0,2.5 -0.8354,1.29269 -0.97149,1.26629 -0.98469,-0.19098 z m 2.02889,-3.9369 c -0.0931,-1.32242 3.09855,-8.0627 3.58668,-7.57457 0.28255,0.28255 -0.39892,2.24368 -1.51438,4.35809 -1.11546,2.1144 -2.048,3.56182 -2.0723,3.21648 z m 423.4156,-14.01964 c -2.0177,-4.04386 -3.2321,-6.90248 -2.6987,-6.35248 1.635,1.6857 7.3436,12.72858 6.8403,13.23192 -0.2602,0.26018 -2.1239,-2.83557 -4.1416,-6.87944 z m -419.28595,4.39752 c 1.75585,-3.86734 6.96278,-13.25 7.35312,-13.25 0.27399,0 -1.08814,3.15 -3.02697,7 -1.93883,3.85 -3.78199,7 -4.09591,7 -0.31391,0 -0.41752,-0.3375 -0.23024,-0.75 z m 413.25085,-15.40707 c -3.4773,-6.74728 -13.9767,-21.61791 -22.4828,-31.84293 -9.7972,-11.77705 -20.6734,-22.54075 -32.1919,-31.85892 -4.2625,-3.44825 -7.75,-6.50346 -7.75,-6.78935 0,-1.19564 19.0591,14.78489 26.4612,22.18704 4.402,4.40201 12.8849,14.07006 19.7405,22.49849 7.0467,8.66338 19.3204,27.77399 18.4175,28.67684 -0.2594,0.25947 -1.247,-1.03256 -2.1945,-2.87117 z m -405.4247,0.79426 c 0,-0.74586 15.9008,-24.80027 16.94707,-25.63719 0.34379,-0.275 3.36683,-3.875 6.71787,-8 9.63891,-11.86514 35.7898,-36.2142 42.33506,-39.41812 1.71786,-0.8409 0.14974,0.53536 -13,11.40939 -17.34532,14.34352 -32.01498,30.87115 -45.27455,51.00873 -7.43523,11.29202 -7.72545,11.69163 -7.72545,10.63719 z m 68.43257,-74.52809 c 0.71346,-1.15439 4.56743,-3.48267 4.56743,-2.7593 0,0.2311 -1.18041,1.19361 -2.62312,2.13892 -1.44272,0.9453 -2.31766,1.22447 -1.94431,0.62038 z m 264.56743,-3.19845 c -2.15377,-1.76168 -2.1961,-1.89635 -0.30569,-0.97239 1.20687,0.58987 2.47092,1.52007 2.80901,2.06712 0.90258,1.46039 0.29641,1.19531 -2.50332,-1.09473 z m -258.56743,-0.80155 c 0.71346,-1.15439 4.56743,-3.48267 4.56743,-2.7593 0,0.2311 -1.18041,1.19361 -2.62312,2.13892 -1.44272,0.9453 -2.31766,1.22447 -1.94431,0.62038 z m 252.56743,-3.19845 c -2.15377,-1.76168 -2.1961,-1.89635 -0.30569,-0.97239 1.20687,0.58987 2.47092,1.52007 2.80901,2.06712 0.90258,1.46039 0.29641,1.19531 -2.50332,-1.09473 z m -244,-2.30831 c 0,-0.72958 9.27516,-5.66051 9.7515,-5.18417 0.24605,0.24605 -1.84738,1.6102 -4.65207,3.03144 -2.80468,1.42124 -5.09943,2.38997 -5.09943,2.15273 z m 235.6522,-2.21777 c -2.66629,-1.38727 -4.64722,-2.72289 -4.40207,-2.96804 0.46832,-0.46831 9.74987,4.45237 9.74987,5.16896 0,0.58417 0.0243,0.59416 -5.3478,-2.20092 z m -224.6522,-3.78867 c 0,-0.8097 14.11082,-7.81842 14.65181,-7.27742 0.24577,0.24576 -2.61285,1.94194 -6.35248,3.76929 -3.73963,1.82735 -7.13683,3.49266 -7.54933,3.70068 -0.4125,0.20802 -0.75,0.12137 -0.75,-0.19255 z m 208,-4.71015 c -5.225,-2.62825 -9.10207,-4.80274 -8.6157,-4.83219 1.25967,-0.0763 19.6157,8.70417 19.6157,9.38301 0,0.8971 -0.95439,0.50226 -11,-4.55082 z m -191,-3.88575 c 0.825,-0.53316 1.95,-0.96938 2.5,-0.96938 0.55,0 0.325,0.43622 -0.5,0.96938 -0.825,0.53315 -1.95,0.96937 -2.5,0.96937 -0.55,0 -0.325,-0.43622 0.5,-0.96937 z m 4.5,-2 c 0.33992,-0.55 1.37898,-0.99311 2.30902,-0.98469 1.45727,0.0132 1.48367,0.14929 0.19098,0.98469 -1.95837,1.2656 -3.28218,1.2656 -2.5,0 z m 173.5,0 c -0.825,-0.53316 -1.05,-0.96938 -0.5,-0.96938 0.55,0 1.675,0.43622 2.5,0.96938 0.825,0.53315 1.05,0.96937 0.5,0.96937 -0.55,0 -1.675,-0.43622 -2.5,-0.96937 z m -168,-2 c 0.825,-0.53316 1.95,-0.96938 2.5,-0.96938 0.55,0 0.325,0.43622 -0.5,0.96938 -0.825,0.53315 -1.95,0.96937 -2.5,0.96937 -0.55,0 -0.325,-0.43622 0.5,-0.96937 z m 163,0 c -0.825,-0.53316 -1.05,-0.96938 -0.5,-0.96938 0.55,0 1.675,0.43622 2.5,0.96938 0.825,0.53315 1.05,0.96937 0.5,0.96937 -0.55,0 -1.675,-0.43622 -2.5,-0.96937 z m -158,-2 c 0.825,-0.53316 2.4,-0.94464 3.5,-0.9144 l 2,0.055 -2,0.85943 c -1.1,0.47268 -2.675,0.88417 -3.5,0.9144 -1.33333,0.0489 -1.33333,-0.0527 0,-0.9144 z m 151.5,0 -2,-0.85943 2,-0.055 c 1.1,-0.0302 2.675,0.38125 3.5,0.9144 1.33333,0.86167 1.33333,0.96327 0,0.9144 -0.825,-0.0302 -2.4,-0.44172 -3.5,-0.9144 z m -144.5,-2 c 0.825,-0.53316 2.175,-0.96938 3,-0.96938 1.33333,0 1.33333,0.10771 0,0.96938 -0.825,0.53315 -2.175,0.96937 -3,0.96937 -1.33333,0 -1.33333,-0.10771 0,-0.96937 z m 138,0 c -1.33333,-0.86167 -1.33333,-0.96938 0,-0.96938 0.825,0 2.175,0.43622 3,0.96938 1.33333,0.86166 1.33333,0.96937 0,0.96937 -0.825,0 -2.175,-0.43622 -3,-0.96937 z m -132,-2 c 0.825,-0.53316 2.4,-0.94464 3.5,-0.9144 l 2,0.055 -2,0.85943 c -1.1,0.47268 -2.675,0.88417 -3.5,0.9144 -1.33333,0.0489 -1.33333,-0.0527 0,-0.9144 z m 125.5,0 c -1.26064,-0.54172 -1.44548,-0.85943 -0.5,-0.85943 0.825,0 2.4,0.38674 3.5,0.85943 1.26064,0.54171 1.44548,0.85943 0.5,0.85943 -0.825,0 -2.4,-0.38675 -3.5,-0.85943 z m -118.5,-2 c 0.825,-0.53316 2.625,-0.94464 4,-0.9144 2.28958,0.0504 2.33166,0.12731 0.5,0.9144 -1.1,0.47268 -2.9,0.88417 -4,0.9144 -1.65073,0.0454 -1.73805,-0.11431 -0.5,-0.9144 z m 110.5,0 -2,-0.85943 h 2 c 1.1,0 2.9,0.38674 4,0.85943 l 2,0.85943 h -2 c -1.1,0 -2.9,-0.38675 -4,-0.85943 z m -101,-2 c 1.1,-0.47269 3.125,-0.85943 4.5,-0.85943 2.27881,0 2.32305,0.076 0.5,0.85943 -1.1,0.47269 -3.125,0.85943 -4.5,0.85943 -2.27881,0 -2.32305,-0.076 -0.5,-0.85943 z m 91,0 -2,-0.85943 2,0.0294 c 1.1,0.0162 3.125,0.38968 4.5,0.83004 l 2.5,0.80063 -2.5,0.0294 c -1.375,0.0162 -3.4,-0.35734 -4.5,-0.83003 z m -80.5,-1.9482 c 2.46603,-0.84086 10.72569,-1.40474 9.91667,-0.677 -0.22917,0.20614 -3.11667,0.6346 -6.41667,0.95212 -3.88694,0.374 -5.11956,0.27711 -3.5,-0.27512 z m 68.5,-0.0518 -4,-0.71619 4,-0.0422 c 2.2,-0.0232 5.125,0.31806 6.5,0.75842 l 2.5,0.80064 -2.5,-0.0422 c -1.375,-0.0232 -4.3,-0.3645 -6.5,-0.7584 z m -50.89564,-2.19237 c 5.0534,-0.89814 34.73788,-0.89814 39.79128,0 2.1426,0.3808 -6.81044,0.69237 -19.89564,0.69237 -13.0852,0 -22.03824,-0.31157 -19.89564,-0.69237 z"
         id="path184" /><path
         style="fill:#420350"
         d="m 334.64285,590.42526 c -8.72597,-0.85139 -31.91042,-5.13752 -38,-7.0251 -37.58268,-11.64948 -62.39581,-24.63143 -89,-46.56377 -17.05664,-14.0614 -30.99297,-29.51444 -44.103,-48.90278 -20.46567,-30.26655 -32.21068,-61.40221 -37.882,-100.42407 -2.66682,-18.3492 -1.67519,-57.04008 1.86007,-72.57593 0.25032,-1.1 0.99691,-4.7 1.65909,-8 4.89628,-24.40048 17.45285,-54.2427 32.39892,-77 22.98156,-34.99235 52.17207,-61.42539 88.56692,-80.20047 18.67263,-9.63269 37.22418,-16.48341 55,-20.31043 3.025,-0.65126 7.3,-1.57882 9.5,-2.06123 17.49621,-3.83656 58.7186,-4.69239 76.5,-1.58824 19.23127,3.35725 21.63193,3.92346 40.13905,9.46708 15.34189,4.59551 40.11297,16.70098 56.36095,27.54324 36.9576,24.66177 68.1338,62.31049 85.4167,103.15005 8.2653,19.53075 15.8495,49.49151 17.7198,70 4.0741,44.67333 -5.6194,92.20314 -26.8763,131.78299 -18.2227,33.93006 -43.8059,62.26388 -75.34372,83.44432 -30.17419,20.26465 -58.9394,31.43518 -97.41648,37.8302 -11.24913,1.86964 -43.61605,2.69121 -56.5,1.43414 z"
         id="path182" /></g></g></svg>
